{
.appVersion = "1313";
DisplayStrings = (
"/circumflexcomb_tildecomb"
);
classes = (
{
automatic = 1;

glyphs = (
{
glyphname = A;
layers = (
{
anchors = (
{
name = bottom;
position = "{168, 0}";
},
{
name = ogonek;
position = "{274, 6}";
},
{
name = top;
position = "{168, 800}";
}
);
layerId = "3B122060-26E0-4730-9241-82784E6CB359";
paths = (
{
closed = 1;
nodes = (
"81 0 LINE",
"103 259 LINE",
"188 259 LINE",
"198 297 LINE",
"106 297 LINE",
"120 461 LINE",
"146 762 LINE",
"228 762 LINE",
"225 800 LINE",
"112 800 LINE",
"40 0 LINE"
);
},
{
closed = 1;
nodes = (
"296 0 LINE",
"230 726 LINE",
"192 726 LINE",
"216 463 LINE",
"255 0 LINE"
);
}
);
width = 336;
},
{
anchors = (
{
name = bottom;
position = "{259, 0}";
},
{
name = ogonek;
position = "{400, 0}";
},
{
name = top;
position = "{259, 800}";
}
);
color = -1;
layerId = "1DFA7D5B-2E97-4B89-827F-FB43F8066DC1";
paths = (
{
closed = 1;
nodes = (
"174 0 LINE",
"201 167 LINE",
"249 167 LINE",
"284 299 LINE",
"215 299 LINE",
"238 480 LINE",
"242 668 LINE",
"406 668 LINE",
"390 800 LINE",
"131 800 LINE",
"20 0 LINE"
);
},
{
closed = 1;
nodes = (
"498 0 LINE",
"410 617 LINE",
"282 617 LINE",
"285 480 LINE",
"344 0 LINE"
);
}
);
width = 518;
},
{
anchors = (
{
name = bottom;
position = "{249, 0}";
},
{
name = ogonek;
position = "{380.895, 0}";
},
{
name = top;
position = "{249, 800}";
}
);
color = -1;
layerId = "5013C991-8699-46CB-BB1C-82E334DBD38B";
paths = (
{
closed = 1;
nodes = (
"174 0 LINE",
"201 167 LINE",
"236 167 LINE",
"271 299 LINE",
"210 299 LINE",
"231 456 LINE",
"242 668 LINE",
"396 668 LINE",
"379 800 LINE",
"131 800 LINE",
"20 0 LINE"
);
},
{
closed = 1;
nodes = (
"488 0 LINE",
"399 618 LINE",
"275 618 LINE",
"280 457 LINE",
"334 0 LINE"
);
}
);
width = 508;
},
{
anchors = (
{
name = bottom;
position = "{133, 0}";
},
{
name = ogonek;
position = "{226, 0}";
},
{
name = top;
position = "{133, 800}";
}
);
layerId = "3D06B89B-468F-44E0-A3D7-A5BC6911123E";
paths = (
{
closed = 1;
nodes = (
"50 0 LINE",
"73 268 LINE",
"160 268 LINE",
"165 288 LINE",
"75 288 LINE",
"90 460 LINE",
"117 780 LINE",
"165 780 LINE",
"164 800 LINE",
"101 800 LINE",
"30 0 LINE"
);
},
{
closed = 1;
nodes = (
"234 0 LINE",
"166 760 LINE",
"148 760 LINE",
"174 461 LINE",
"214 0 LINE"
);
}
);
width = 264;
}
);
leftKerningGroup = A;
rightKerningGroup = A;
unicode = 0041;
},
{
glyphname = AE;
layers = (
{
anchors = (
{
name = bottom;
position = "{237, 0}";
},
{
name = top;
position = "{279, 800}";
}
);
layerId = "3B122060-26E0-4730-9241-82784E6CB359";
paths = (
{
closed = 1;
nodes = (
"82 0 LINE",
"124 252 LINE",
"194 252 LINE",
"205 290 LINE",
"131 290 LINE",
"159 457 LINE",
"207 763 LINE",
"454 763 LINE",
"454 800 LINE",
"174 800 LINE",
"40 0 LINE"
);
},
{
closed = 1;
nodes = (
"454 0 LINE",
"454 38 LINE",
"331 38 LINE",
"331 0 LINE"
);
},
{
closed = 1;
nodes = (
"285 0 LINE",
"285 717 LINE",
"245 717 LINE",
"245 0 LINE"
);
},
{
closed = 1;
nodes = (
"444 381 LINE",
"444 419 LINE",
"331 419 LINE",
"331 381 LINE"
);
}
);
width = 504;
},
{
anchors = (
{
name = bottom;
position = "{381, 0}";
},
{
name = top;
position = "{431, 800}";
}
);
color = -1;
layerId = "1DFA7D5B-2E97-4B89-827F-FB43F8066DC1";
paths = (
{
closed = 1;
nodes = (
"184 0 LINE",
"220 167 LINE",
"283 167 LINE",
"318 299 LINE",
"248 299 LINE",
"278 436 LINE",
"300 668 LINE",
"712 668 LINE",
"712 800 LINE",
"186 800 LINE",
"20 0 LINE"
);
},
{
closed = 1;
nodes = (
"712 0 LINE",
"712 132 LINE",
"563 132 LINE",
"563 0 LINE"
);
},
{
closed = 1;
nodes = (
"496 0 LINE",
"496 602 LINE",
"346 602 LINE",
"346 0 LINE"
);
},
{
closed = 1;
nodes = (
"702 341 LINE",
"702 473 LINE",
"563 473 LINE",
"563 341 LINE"
);
}
);
width = 732;
},
{
anchors = (
{
name = bottom;
position = "{361, 0}";
},
{
name = top;
position = "{411, 800}";
}
);
color = -1;
layerId = "5013C991-8699-46CB-BB1C-82E334DBD38B";
paths = (
{
closed = 1;
nodes = (
"20 0 LINE",
"184 0 LINE",
"220 167 LINE",
"273 167 LINE",
"310 299 LINE",
"248 299 LINE",
"278 436 LINE",
"300 668 LINE",
"672 668 LINE",
"672 800 LINE",
"186 800 LINE"
);
},
{
closed = 1;
nodes = (
"476 0 LINE",
"476 618 LINE",
"326 618 LINE",
"326 0 LINE"
);
},
{
closed = 1;
nodes = (
"525 341 LINE",
"662 341 LINE",
"662 473 LINE",
"525 473 LINE"
);
},
{
closed = 1;
nodes = (
"672 0 LINE",
"672 132 LINE",
"525 132 LINE",
"525 0 LINE"
);
}
);
width = 692;
},
{
anchors = (
{
name = bottom;
position = "{170, 0}";
},
{
name = top;
position = "{205, 800}";
}
);
layerId = "3D06B89B-468F-44E0-A3D7-A5BC6911123E";
paths = (
{
closed = 1;
nodes = (
"30 0 LINE",
"50 0 LINE",
"87 268 LINE",
"143 268 LINE",
"149 288 LINE",
"89 288 LINE",
"113 461 LINE",
"158 780 LINE",
"337 780 LINE",
"337 800 LINE",
"141 800 LINE"
);
},
{
closed = 1;
nodes = (
"198 0 LINE",
"198 740 LINE",
"178 740 LINE",
"178 0 LINE"
);
},
{
closed = 1;
nodes = (
"238 390 LINE",
"327 390 LINE",
"327 410 LINE",
"238 410 LINE"
);
},
{
closed = 1;
nodes = (
"337 0 LINE",
"337 20 LINE",
"238 20 LINE",
"238 0 LINE"
);
}
);
width = 377;
}
);
leftKerningGroup = A;
leftMetricsKey = A;
rightKerningGroup = E;
rightMetricsKey = E;
unicode = 00C6;
},
{
glyphname = B;
layers = (
{
layerId = "3B122060-26E0-4730-9241-82784E6CB359";
paths = (
{
closed = 1;
nodes = (
"110 0 LINE",
"110 800 LINE",
"70 800 LINE",
"70 0 LINE"
);
},
{
closed = 1;
nodes = (
"193 0 LINE SMOOTH",
"274 0 OFFCURVE",
"307 28 OFFCURVE",
"309 98 CURVE SMOOTH",
"311 176 OFFCURVE",
"312 233 OFFCURVE",
"309 312 CURVE SMOOTH",
"307 359 OFFCURVE",
"289 385 OFFCURVE",
"245 395 CURVE",
"245 405 LINE",
"287 414 OFFCURVE",
"303 440 OFFCURVE",
"305 488 CURVE SMOOTH",
"307 551 OFFCURVE",
"306 609 OFFCURVE",
"305 702 CURVE SMOOTH",
"304 772 OFFCURVE",
"271 800 OFFCURVE",
"189 800 CURVE SMOOTH",
"156 800 LINE",
"156 762 LINE",
"189 762 LINE SMOOTH",
"248 762 OFFCURVE",
"264 749 OFFCURVE",
"265 702 CURVE SMOOTH",
"267 624 OFFCURVE",
"268 566 OFFCURVE",
"265 488 CURVE SMOOTH",
"263 435 OFFCURVE",
"251 420 OFFCURVE",
"201 420 CURVE SMOOTH",
"156 420 LINE",
"156 380 LINE",
"197 380 LINE SMOOTH",
"251 380 OFFCURVE",
"267 365 OFFCURVE",
"269 312 CURVE SMOOTH",
"272 234 OFFCURVE",
"272 176 OFFCURVE",
"269 98 CURVE SMOOTH",
"267 52 OFFCURVE",
"252 40 OFFCURVE",
"193 40 CURVE SMOOTH",
"156 40 LINE",
"156 0 LINE"
);
}
);
width = 371;
},
{
layerId = "1DFA7D5B-2E97-4B89-827F-FB43F8066DC1";
paths = (
{
closed = 1;
nodes = (
"190 0 LINE",
"190 800 LINE",
"40 800 LINE",
"40 0 LINE"
);
},
{
closed = 1;
nodes = (
"257 0 LINE SMOOTH",
"406 0 OFFCURVE",
"466 56 OFFCURVE",
"472 195 CURVE SMOOTH",
"473 218 OFFCURVE",
"473 235 OFFCURVE",
"472 257 CURVE SMOOTH",
"469 332 OFFCURVE",
"442 374 OFFCURVE",
"381 394 CURVE",
"381 418 LINE",
"440 438 OFFCURVE",
"467 479 OFFCURVE",
"471 552 CURVE SMOOTH",
"472 569 OFFCURVE",
"472 586 OFFCURVE",
"472 605 CURVE SMOOTH",
"472 744 OFFCURVE",
"406 800 OFFCURVE",
"257 800 CURVE SMOOTH",
"256 800 LINE",
"256 668 LINE",
"257 668 LINE SMOOTH",
"299 668 OFFCURVE",
"322 648 OFFCURVE",
"322 613 CURVE SMOOTH",
"322 594 OFFCURVE",
"322 575 OFFCURVE",
"322 556 CURVE SMOOTH",
"322 503 OFFCURVE",
"299 473 OFFCURVE",
"257 473 CURVE SMOOTH",
"256 473 LINE",
"256 341 LINE",
"257 341 LINE SMOOTH",
"303 341 OFFCURVE",
"322 316 OFFCURVE",
"322 250 CURVE SMOOTH",
"322 232 OFFCURVE",
"322 215 OFFCURVE",
"322 197 CURVE SMOOTH",
"322 155 OFFCURVE",
"299 132 OFFCURVE",
"257 132 CURVE SMOOTH",
"256 132 LINE",
"256 0 LINE"
);
}
);
width = 493;
},
{
layerId = "5013C991-8699-46CB-BB1C-82E334DBD38B";
paths = (
{
closed = 1;
nodes = (
"190 0 LINE",
"190 800 LINE",
"40 800 LINE",
"40 0 LINE"
);
},
{
closed = 1;
nodes = (
"245 0 LINE SMOOTH",
"394 0 OFFCURVE",
"454 56 OFFCURVE",
"460 195 CURVE SMOOTH",
"461 218 OFFCURVE",
"461 235 OFFCURVE",
"460 257 CURVE SMOOTH",
"457 332 OFFCURVE",
"430 374 OFFCURVE",
"369 394 CURVE",
"369 418 LINE",
"428 438 OFFCURVE",
"455 479 OFFCURVE",
"459 552 CURVE SMOOTH",
"460 569 OFFCURVE",
"460 586 OFFCURVE",
"460 605 CURVE SMOOTH",
"460 744 OFFCURVE",
"394 800 OFFCURVE",
"245 800 CURVE SMOOTH",
"240 800 LINE",
"240 668 LINE",
"245 668 LINE SMOOTH",
"287 668 OFFCURVE",
"310 648 OFFCURVE",
"310 613 CURVE SMOOTH",
"310 594 OFFCURVE",
"310 575 OFFCURVE",
"310 556 CURVE SMOOTH",
"310 503 OFFCURVE",
"287 473 OFFCURVE",
"245 473 CURVE SMOOTH",
"240 473 LINE",
"240 341 LINE",
"245 341 LINE SMOOTH",
"291 341 OFFCURVE",
"310 316 OFFCURVE",
"310 250 CURVE SMOOTH",
"310 232 OFFCURVE",
"310 215 OFFCURVE",
"310 197 CURVE SMOOTH",
"310 155 OFFCURVE",
"287 132 OFFCURVE",
"245 132 CURVE SMOOTH",
"240 132 LINE",
"240 0 LINE"
);
}
);
width = 481;
},
{
layerId = "3D06B89B-468F-44E0-A3D7-A5BC6911123E";
paths = (
{
closed = 1;
nodes = (
"80 0 LINE",
"80 800 LINE",
"60 800 LINE",
"60 0 LINE"
);
},
{
closed = 1;
nodes = (
"143 0 LINE SMOOTH",
"202 0 OFFCURVE",
"227 27 OFFCURVE",
"229 93 CURVE SMOOTH",
"231 171 OFFCURVE",
"231 233 OFFCURVE",
"229 312 CURVE SMOOTH",
"228 357 OFFCURVE",
"215 382 OFFCURVE",
"185 392 CURVE",
"185 407 LINE",
"214 418 OFFCURVE",
"227 442 OFFCURVE",
"228 488 CURVE SMOOTH",
"230 551 OFFCURVE",
"230 614 OFFCURVE",
"228 707 CURVE SMOOTH",
"226 773 OFFCURVE",
"201 800 OFFCURVE",
"142 800 CURVE SMOOTH",
"120 800 LINE",
"120 780 LINE",
"142 780 LINE SMOOTH",
"187 780 OFFCURVE",
"206 759 OFFCURVE",
"208 707 CURVE SMOOTH",
"211 629 OFFCURVE",
"211 566 OFFCURVE",
"208 488 CURVE SMOOTH",
"206 432 OFFCURVE",
"187 410 OFFCURVE",
"141 410 CURVE SMOOTH",
"120 410 LINE",
"120 390 LINE",
"137 390 LINE SMOOTH",
"186 390 OFFCURVE",
"207 368 OFFCURVE",
"209 312 CURVE SMOOTH",
"212 234 OFFCURVE",
"212 171 OFFCURVE",
"209 93 CURVE SMOOTH",
"207 41 OFFCURVE",
"188 20 OFFCURVE",
"143 20 CURVE SMOOTH",
"120 20 LINE",
"120 0 LINE"
);
}
);
width = 280;
}
);
leftKerningGroup = H;
rightKerningGroup = B;
unicode = 0042;
},
{
glyphname = C;
layers = (
{
anchors = (
{
name = bottom;
position = "{191, 0}";
},
{
name = top;
position = "{191, 800}";
}
);
background = {
paths = (
{
closed = 1;
nodes = (
"240 -10 OFFCURVE",
"281 33 OFFCURVE",
"281 90 CURVE SMOOTH",
"281 240 LINE",
"261 240 LINE",
"261 90 LINE SMOOTH",
"261 44 OFFCURVE",
"229 10 OFFCURVE",
"186 10 CURVE SMOOTH",
"143 10 OFFCURVE",
"111 44 OFFCURVE",
"111 90 CURVE SMOOTH",
"111 700 LINE SMOOTH",
"111 746 OFFCURVE",
"143 790 OFFCURVE",
"186 790 CURVE SMOOTH",
"229 790 OFFCURVE",
"261 746 OFFCURVE",
"261 700 CURVE SMOOTH",
"261 570 LINE",
"281 570 LINE",
"281 700 LINE SMOOTH",
"281 757 OFFCURVE",
"240 810 OFFCURVE",
"186 810 CURVE SMOOTH",
"132 810 OFFCURVE",
"91 757 OFFCURVE",
"91 700 CURVE SMOOTH",
"91 90 LINE SMOOTH",
"91 33 OFFCURVE",
"132 -10 OFFCURVE",
"186 -10 CURVE SMOOTH"
);
}
);
};
layerId = "3B122060-26E0-4730-9241-82784E6CB359";
paths = (
{
closed = 1;
nodes = (
"172 32.645 LINE",
"129.246 35.895 OFFCURVE",
"112.88 52.123 OFFCURVE",
"112 97 CURVE SMOOTH",
"107 343 OFFCURVE",
"107 456 OFFCURVE",
"112 701 CURVE SMOOTH",
"112.885 746.119 OFFCURVE",
"129.423 762.279 OFFCURVE",
"172 765.406 CURVE",
"172 803.459 LINE",
"104.428 799.184 OFFCURVE",
"72.922 769.207 OFFCURVE",
"72 701 CURVE SMOOTH",
"69 479 OFFCURVE",
"69 320 OFFCURVE",
"72 97 CURVE SMOOTH",
"72.917 29.123 OFFCURVE",
"104.964 -0.892 OFFCURVE",
"172 -5.395 CURVE"
);
},
{
closed = 1;
nodes = (
"284.144 1.118 OFFCURVE",
"314.451 31.351 OFFCURVE",
"318 97 CURVE SMOOTH",
"321 154 OFFCURVE",
"320 200 OFFCURVE",
"317 282 CURVE",
"277 282 LINE",
"279 189 OFFCURVE",
"280 143 OFFCURVE",
"278 97 CURVE SMOOTH",
"276.318 54.1 OFFCURVE",
"260.484 37.381 OFFCURVE",
"218 33.152 CURVE",
"218 -4.869 LINE"
);
},
{
closed = 1;
nodes = (
"314 534 LINE",
"317 597 OFFCURVE",
"317 638 OFFCURVE",
"314 701 CURVE SMOOTH",
"310.482 766.091 OFFCURVE",
"281.431 796.365 OFFCURVE",
"218 802.711 CURVE",
"218 764.644 LINE",
"257.654 760.099 OFFCURVE",
"272.344 743.24 OFFCURVE",
"274 701 CURVE SMOOTH",
"276 638 OFFCURVE",
"276 597 OFFCURVE",
"274 534 CURVE"
);
}
);
width = 380;
},
{
anchors = (
{
name = bottom;
position = "{259, 0}";
},
{
name = top;
position = "{259, 800}";
}
);
layerId = "1DFA7D5B-2E97-4B89-827F-FB43F8066DC1";
paths = (
{
closed = 1;
nodes = (
"230 116.351 LINE",
"204.336 124.666 OFFCURVE",
"192.737 145.415 OFFCURVE",
"192 183 CURVE SMOOTH",
"188 329 OFFCURVE",
"188 471 OFFCURVE",
"192 618 CURVE SMOOTH",
"192.737 654.848 OFFCURVE",
"204.336 675.403 OFFCURVE",
"230 683.667 CURVE",
"230 808.936 LINE",
"102.044 800.282 OFFCURVE",
"43.848 738.511 OFFCURVE",
"42 611 CURVE SMOOTH",
"39 460 OFFCURVE",
"39 340 OFFCURVE",
"42 191 CURVE SMOOTH",
"44.777 57.686 OFFCURVE",
"98.98 -1.061 OFFCURVE",
"230 -9.046 CURVE"
);
},
{
closed = 1;
nodes = (
"427.025 -1.061 OFFCURVE",
"481.297 57.686 OFFCURVE",
"485 191 CURVE SMOOTH",
"486 223 OFFCURVE",
"486 268 OFFCURVE",
"485 300 CURVE",
"335 300 LINE",
"337 255 OFFCURVE",
"337 226 OFFCURVE",
"335 183 CURVE SMOOTH",
"333.518 145.199 OFFCURVE",
"322.146 124.428 OFFCURVE",
"296 116.209 CURVE",
"296 -9.046 LINE"
);
},
{
closed = 1;
nodes = (
"480 500 LINE",
"481 533 OFFCURVE",
"482 577 OFFCURVE",
"481 610 CURVE SMOOTH",
"477.313 735.374 OFFCURVE",
"420.085 799.559 OFFCURVE",
"296 808.824 CURVE",
"296 683.188 LINE",
"319.619 674.625 OFFCURVE",
"330.277 654.156 OFFCURVE",
"331 618 CURVE SMOOTH",
"332 581 OFFCURVE",
"331 537 OFFCURVE",
"330 500 CURVE"
);
}
);
width = 506;
},
{
anchors = (
{
name = bottom;
position = "{248, 0}";
},
{
name = top;
position = "{248, 800}";
}
);
layerId = "5013C991-8699-46CB-BB1C-82E334DBD38B";
paths = (
{
closed = 1;
nodes = (
"227 115.204 LINE",
"204.471 121.732 OFFCURVE",
"191.755 138.094 OFFCURVE",
"191 163 CURVE SMOOTH",
"186 302 OFFCURVE",
"186 498 OFFCURVE",
"191 638 CURVE SMOOTH",
"191.755 662.151 OFFCURVE",
"204.471 678.328 OFFCURVE",
"227 684.81 CURVE",
"227 809.211 LINE",
"97.932 800.81 OFFCURVE",
"42.883 725.842 OFFCURVE",
"41 611 CURVE SMOOTH",
"39 498 OFFCURVE",
"39 302 OFFCURVE",
"41 191 CURVE SMOOTH",
"43.828 55.238 OFFCURVE",
"94.655 -3.193 OFFCURVE",
"227 -9.435 CURVE"
);
},
{
closed = 1;
nodes = (
"405.964 -3.01 OFFCURVE",
"460.235 55.452 OFFCURVE",
"464 191 CURVE SMOOTH",
"465 223 OFFCURVE",
"465 268 OFFCURVE",
"464 300 CURVE",
"314 300 LINE",
"315 264 OFFCURVE",
"315 199 OFFCURVE",
"314 163 CURVE SMOOTH",
"313.239 137.889 OFFCURVE",
"300.318 121.463 OFFCURVE",
"277 115.045 CURVE",
"277 -9.405 LINE"
);
},
{
closed = 1;
nodes = (
"459 500 LINE",
"460 533 OFFCURVE",
"461 577 OFFCURVE",
"460 610 CURVE SMOOTH",
"456.24 744.427 OFFCURVE",
"402.993 802.856 OFFCURVE",
"277 809.379 CURVE",
"277 684.404 LINE",
"297.587 677.668 OFFCURVE",
"309.261 661.661 OFFCURVE",
"310 638 CURVE SMOOTH",
"311 601 OFFCURVE",
"310 537 OFFCURVE",
"309 500 CURVE"
);
}
);
width = 485;
},
{
anchors = (
{
name = bottom;
position = "{145, 0}";
},
{
name = top;
position = "{145, 800}";
}
);
background = {
paths = (
{
closed = 1;
nodes = (
"211 -10 OFFCURVE",
"252 33 OFFCURVE",
"252 90 CURVE SMOOTH",
"252 240 LINE",
"232 240 LINE",
"232 90 LINE SMOOTH",
"232 44 OFFCURVE",
"200 10 OFFCURVE",
"157 10 CURVE SMOOTH",
"114 10 OFFCURVE",
"82 44 OFFCURVE",
"82 90 CURVE SMOOTH",
"82 700 LINE SMOOTH",
"82 746 OFFCURVE",
"114 790 OFFCURVE",
"157 790 CURVE SMOOTH",
"200 790 OFFCURVE",
"232 746 OFFCURVE",
"232 700 CURVE SMOOTH",
"232 570 LINE",
"252 570 LINE",
"252 700 LINE SMOOTH",
"252 757 OFFCURVE",
"211 810 OFFCURVE",
"157 810 CURVE SMOOTH",
"103 810 OFFCURVE",
"62 757 OFFCURVE",
"62 700 CURVE SMOOTH",
"62 90 LINE SMOOTH",
"62 33 OFFCURVE",
"103 -10 OFFCURVE",
"157 -10 CURVE SMOOTH"
);
}
);
};
layerId = "3D06B89B-468F-44E0-A3D7-A5BC6911123E";
paths = (
{
closed = 1;
nodes = (
"130 15.026 LINE",
"96.044 19.614 OFFCURVE",
"83.868 40.115 OFFCURVE",
"83 87 CURVE SMOOTH",
"79 318 OFFCURVE",
"79 481 OFFCURVE",
"83 711 CURVE SMOOTH",
"83.874 759.065 OFFCURVE",
"96.204 778.872 OFFCURVE",
"130 783.103 CURVE",
"130 803.245 LINE",
"83.54 798.542 OFFCURVE",
"63.903 771.47 OFFCURVE",
"63 711 CURVE SMOOTH",
"59 481 OFFCURVE",
"59 318 OFFCURVE",
"63 87 CURVE SMOOTH",
"63.898 27.743 OFFCURVE",
"83.336 -0.076 OFFCURVE",
"130 -5.142 CURVE"
);
},
{
closed = 1;
nodes = (
"217.336 1.654 OFFCURVE",
"237.259 29.554 OFFCURVE",
"239 87 CURVE SMOOTH",
"241 157 OFFCURVE",
"240 212 OFFCURVE",
"238 282 CURVE",
"218 282 LINE",
"219 217 OFFCURVE",
"220 152 OFFCURVE",
"219 87 CURVE SMOOTH",
"218.161 41.714 OFFCURVE",
"205.367 21.044 OFFCURVE",
"170 15.552 CURVE",
"170 -4.613 LINE"
);
},
{
closed = 1;
nodes = (
"235 534 LINE",
"236 575 OFFCURVE",
"236 670 OFFCURVE",
"235 711 CURVE SMOOTH",
"233.285 767.585 OFFCURVE",
"213.929 795.503 OFFCURVE",
"170 802.317 CURVE",
"170 782.2 LINE",
"202.52 776.463 OFFCURVE",
"214.177 756.258 OFFCURVE",
"215 711 CURVE SMOOTH",
"216 652 OFFCURVE",
"216 593 OFFCURVE",
"215 534 CURVE"
);
}
);
width = 290;
}
);
leftKerningGroup = O;
rightKerningGroup = O;
unicode = 0043;
},
{
glyphname = D;
layers = (
{
anchors = (
{
name = bottom;
position = "{185, 0}";
},
{
name = center;
position = "{187, 400}";
},
{
name = top;
position = "{176, 800}";
}
);
layerId = "3B122060-26E0-4730-9241-82784E6CB359";
paths = (
{
closed = 1;
nodes = (
"110 0 LINE",
"110 800 LINE",
"70 800 LINE",
"70 0 LINE"
);
},
{
closed = 1;
nodes = (
"195 0 LINE SMOOTH",
"270 0 OFFCURVE",
"301 27 OFFCURVE",
"302 93 CURVE SMOOTH",
"305 312 OFFCURVE",
"305 487 OFFCURVE",
"302 707 CURVE SMOOTH",
"301 773 OFFCURVE",
"268 800 OFFCURVE",
"186 800 CURVE SMOOTH",
"156 800 LINE",
"156 762 LINE",
"186 762 LINE SMOOTH",
"245 762 OFFCURVE",
"261 749 OFFCURVE",
"262 707 CURVE SMOOTH",
"267 466 OFFCURVE",
"267 334 OFFCURVE",
"262 93 CURVE SMOOTH",
"261 51 OFFCURVE",
"247 38 OFFCURVE",
"195 38 CURVE SMOOTH",
"156 38 LINE",
"156 0 LINE"
);
}
);
width = 374;
},
{
anchors = (
{
name = bottom;
position = "{230, 0}";
},
{
name = center;
position = "{250, 400}";
},
{
name = top;
position = "{250, 800}";
}
);
layerId = "1DFA7D5B-2E97-4B89-827F-FB43F8066DC1";
paths = (
{
closed = 1;
nodes = (
"190 0 LINE",
"190 800 LINE",
"40 800 LINE",
"40 0 LINE"
);
},
{
closed = 1;
nodes = (
"257 0 LINE SMOOTH",
"407 0 OFFCURVE",
"469 59 OFFCURVE",
"472 206 CURVE SMOOTH",
"475 345 OFFCURVE",
"475 456 OFFCURVE",
"472 595 CURVE SMOOTH",
"469 741 OFFCURVE",
"407 800 OFFCURVE",
"257 800 CURVE SMOOTH",
"256 800 LINE",
"256 668 LINE",
"257 668 LINE SMOOTH",
"299 668 OFFCURVE",
"321 648 OFFCURVE",
"322 613 CURVE SMOOTH",
"326 471 OFFCURVE",
"326 330 OFFCURVE",
"322 188 CURVE SMOOTH",
"321 152 OFFCURVE",
"299 132 OFFCURVE",
"257 132 CURVE SMOOTH",
"256 132 LINE",
"256 0 LINE"
);
}
);
width = 514;
},
{
anchors = (
{
name = bottom;
position = "{230, 0}";
},
{
name = center;
position = "{250, 400}";
},
{
name = top;
position = "{250, 800}";
}
);
layerId = "5013C991-8699-46CB-BB1C-82E334DBD38B";
paths = (
{
closed = 1;
nodes = (
"190 0 LINE",
"190 800 LINE",
"40 800 LINE",
"40 0 LINE"
);
},
{
closed = 1;
nodes = (
"243 0 LINE SMOOTH",
"393 0 OFFCURVE",
"455 59 OFFCURVE",
"458 206 CURVE SMOOTH",
"461 345 OFFCURVE",
"461 456 OFFCURVE",
"458 595 CURVE SMOOTH",
"455 741 OFFCURVE",
"393 800 OFFCURVE",
"243 800 CURVE SMOOTH",
"240 800 LINE",
"240 668 LINE",
"243 668 LINE SMOOTH",
"285 668 OFFCURVE",
"307 648 OFFCURVE",
"308 613 CURVE SMOOTH",
"312 471 OFFCURVE",
"312 330 OFFCURVE",
"308 188 CURVE SMOOTH",
"307 152 OFFCURVE",
"285 132 OFFCURVE",
"243 132 CURVE SMOOTH",
"240 132 LINE",
"240 0 LINE"
);
}
);
width = 500;
},
{
anchors = (
{
name = bottom;
position = "{145, 0}";
},
{
name = center;
position = "{147, 400}";
},
{
name = top;
position = "{137, 800}";
}
);
layerId = "3D06B89B-468F-44E0-A3D7-A5BC6911123E";
paths = (
{
closed = 1;
nodes = (
"80 0 LINE",
"80 800 LINE",
"60 800 LINE",
"60 0 LINE"
);
},
{
closed = 1;
nodes = (
"145 0 LINE SMOOTH",
"206 0 OFFCURVE",
"231 27 OFFCURVE",
"232 93 CURVE SMOOTH",
"235 312 OFFCURVE",
"235 487 OFFCURVE",
"232 707 CURVE SMOOTH",
"231 773 OFFCURVE",
"206 800 OFFCURVE",
"146 800 CURVE SMOOTH",
"120 800 LINE",
"120 780 LINE",
"146 780 LINE SMOOTH",
"193 780 OFFCURVE",
"211 759 OFFCURVE",
"212 707 CURVE SMOOTH",
"214 502 OFFCURVE",
"214 298 OFFCURVE",
"212 93 CURVE SMOOTH",
"211 41 OFFCURVE",
"193 20 OFFCURVE",
"145 20 CURVE SMOOTH",
"120 20 LINE",
"120 0 LINE"
);
}
);
width = 294;
}
);
leftKerningGroup = H;
rightKerningGroup = O;
unicode = 0044;
},
{
glyphname = Eth;
layers = (
{
components = (
{
name = D;
transform = "{1, 0, 0, 1, 29, 0}";
}
);
layerId = "3B122060-26E0-4730-9241-82784E6CB359";
paths = (
{
closed = 1;
nodes = (
"60 439 LINE",
"122 439 LINE",
"122 473 LINE",
"60 473 LINE"
);
},
{
closed = 1;
nodes = (
"171 439 LINE",
"233 439 LINE",
"233 473 LINE",
"171 473 LINE"
);
}
);
width = 403;
},
{
components = (
{
name = D;
transform = "{1, 0, 0, 1, 49, 0}";
}
);
layerId = "1DFA7D5B-2E97-4B89-827F-FB43F8066DC1";
paths = (
{
closed = 1;
nodes = (
"50 360 LINE",
"128 360 LINE",
"128 473 LINE",
"50 473 LINE"
);
},
{
closed = 1;
nodes = (
"271 360 LINE",
"338 360 LINE",
"338 473 LINE",
"271 473 LINE"
);
}
);
width = 563;
},
{
components = (
{
name = D;
transform = "{1, 0, 0, 1, 49, 0}";
}
);
layerId = "5013C991-8699-46CB-BB1C-82E334DBD38B";
paths = (
{
closed = 1;
nodes = (
"50 360 LINE",
"167 360 LINE",
"167 473 LINE",
"50 473 LINE"
);
},
{
closed = 1;
nodes = (
"276 360 LINE",
"326 360 LINE",
"326 473 LINE",
"276 473 LINE"
);
}
);
width = 549;
},
{
components = (
{
name = D;
transform = "{1, 0, 0, 1, 29, 0}";
}
);
layerId = "3D06B89B-468F-44E0-A3D7-A5BC6911123E";
paths = (
{
closed = 1;
nodes = (
"50 453 LINE",
"101 453 LINE",
"101 473 LINE",
"50 473 LINE"
);
},
{
closed = 1;
nodes = (
"140 453 LINE",
"191 453 LINE",
"191 473 LINE",
"140 473 LINE"
);
}
);
width = 323;
}
);
leftKerningGroup = H;
rightKerningGroup = O;
rightMetricsKey = D;
unicode = 00D0;
},
{
glyphname = E;
layers = (
{
anchors = (
{
name = bottom;
position = "{181, -2}";
},
{
name = ogonek;
position = "{256, 0}";
},
{
name = top;
position = "{171, 798}";
},
{
name = topleft;
position = "{80, 800}";
}
);
layerId = "3B122060-26E0-4730-9241-82784E6CB359";
paths = (
{
closed = 1;
nodes = (
"110 0 LINE",
"110 800 LINE",
"70 800 LINE",
"70 0 LINE"
);
},
{
closed = 1;
nodes = (
"279 0 LINE",
"279 38 LINE",
"156 38 LINE",
"156 0 LINE"
);
},
{
closed = 1;
nodes = (
"269 381 LINE",
"269 419 LINE",
"156 419 LINE",
"156 381 LINE"
);
},
{
closed = 1;
nodes = (
"279 762 LINE",
"279 800 LINE",
"156 800 LINE",
"156 762 LINE"
);
}
);
width = 329;
},
{
anchors = (
{
name = bottom;
position = "{238, 0}";
},
{
name = ogonek;
position = "{304, 0}";
},
{
name = top;
position = "{224, 800}";
},
{
name = topleft;
position = "{40, 800}";
}
);
layerId = "1DFA7D5B-2E97-4B89-827F-FB43F8066DC1";
paths = (
{
closed = 1;
nodes = (
"190 0 LINE",
"190 800 LINE",
"40 800 LINE",
"40 0 LINE"
);
},
{
closed = 1;
nodes = (
"406 0 LINE",
"406 132 LINE",
"257 132 LINE",
"257 0 LINE"
);
},
{
closed = 1;
nodes = (
"396 341 LINE",
"396 473 LINE",
"257 473 LINE",
"257 341 LINE"
);
},
{
closed = 1;
nodes = (
"406 668 LINE",
"406 800 LINE",
"257 800 LINE",
"257 668 LINE"
);
}
);
width = 426;
},
{
anchors = (
{
name = bottom;
position = "{218, 0}";
},
{
name = ogonek;
position = "{280, 0}";
},
{
name = top;
position = "{215, 800}";
},
{
name = topleft;
position = "{20, 800}";
}
);
layerId = "5013C991-8699-46CB-BB1C-82E334DBD38B";
paths = (
{
closed = 1;
nodes = (
"190 0 LINE",
"190 800 LINE",
"40 800 LINE",
"40 0 LINE"
);
},
{
closed = 1;
nodes = (
"386 0 LINE",
"386 132 LINE",
"239 132 LINE",
"239 0 LINE"
);
},
{
closed = 1;
nodes = (
"376 341 LINE",
"376 473 LINE",
"239 473 LINE",
"239 341 LINE"
);
},
{
closed = 1;
nodes = (
"386 668 LINE",
"386 800 LINE",
"239 800 LINE",
"239 668 LINE"
);
}
);
width = 406;
},
{
anchors = (
{
name = bottom;
position = "{135, 0}";
},
{
name = ogonek;
position = "{196, 0}";
},
{
name = top;
position = "{135, 800}";
},
{
name = topleft;
position = "{40, 800}";
}
);
layerId = "3D06B89B-468F-44E0-A3D7-A5BC6911123E";
paths = (
{
closed = 1;
nodes = (
"80 0 LINE",
"80 800 LINE",
"60 800 LINE",
"60 0 LINE"
);
},
{
closed = 1;
nodes = (
"219 0 LINE",
"219 20 LINE",
"120 20 LINE",
"120 0 LINE"
);
},
{
closed = 1;
nodes = (
"209 390 LINE",
"209 410 LINE",
"120 410 LINE",
"120 390 LINE"
);
},
{
closed = 1;
nodes = (
"219 780 LINE",
"219 800 LINE",
"120 800 LINE",
"120 780 LINE"
);
}
);
width = 259;
}
);
leftKerningGroup = H;
rightKerningGroup = E;
unicode = 0045;
},
{
glyphname = F;
layers = (
{
layerId = "3B122060-26E0-4730-9241-82784E6CB359";
paths = (
{
closed = 1;
nodes = (
"110 0 LINE",
"110 800 LINE",
"70 800 LINE",
"70 0 LINE"
);
},
{
closed = 1;
nodes = (
"279 381 LINE",
"279 419 LINE",
"156 419 LINE",
"156 381 LINE"
);
},
{
closed = 1;
nodes = (
"289 762 LINE",
"289 800 LINE",
"156 800 LINE",
"156 762 LINE"
);
}
);
width = 339;
},
{
layerId = "1DFA7D5B-2E97-4B89-827F-FB43F8066DC1";
paths = (
{
closed = 1;
nodes = (
"190 0 LINE",
"190 800 LINE",
"40 800 LINE",
"40 0 LINE"
);
},
{
closed = 1;
nodes = (
"396 341 LINE",
"396 473 LINE",
"256 473 LINE",
"256 341 LINE"
);
},
{
closed = 1;
nodes = (
"406 668 LINE",
"406 800 LINE",
"256 800 LINE",
"256 668 LINE"
);
}
);
width = 426;
},
{
layerId = "5013C991-8699-46CB-BB1C-82E334DBD38B";
paths = (
{
closed = 1;
nodes = (
"190 0 LINE",
"190 800 LINE",
"40 800 LINE",
"40 0 LINE"
);
},
{
closed = 1;
nodes = (
"376 341 LINE",
"376 473 LINE",
"240 473 LINE",
"240 341 LINE"
);
},
{
closed = 1;
nodes = (
"386 668 LINE",
"386 800 LINE",
"240 800 LINE",
"240 668 LINE"
);
}
);
width = 406;
},
{
layerId = "3D06B89B-468F-44E0-A3D7-A5BC6911123E";
paths = (
{
closed = 1;
nodes = (
"80 0 LINE",
"80 800 LINE",
"60 800 LINE",
"60 0 LINE"
);
},
{
closed = 1;
nodes = (
"209 390 LINE",
"209 410 LINE",
"110 410 LINE",
"110 390 LINE"
);
},
{
closed = 1;
nodes = (
"219 780 LINE",
"219 800 LINE",
"110 800 LINE",
"110 780 LINE"
);
}
);
width = 259;
}
);
leftKerningGroup = H;
rightKerningGroup = F;
unicode = 0046;
},
{
glyphname = G;
layers = (
{
anchors = (
{
name = bottom;
position = "{193, 0}";
},
{
name = top;
position = "{193, 800}";
}
);
background = {
paths = (
{
closed = 1;
nodes = (
"249 -10 OFFCURVE",
"290 33 OFFCURVE",
"290 90 CURVE SMOOTH",
"290 298 LINE",
"270 298 LINE",
"270 90 LINE SMOOTH",
"270 44 OFFCURVE",
"238 10 OFFCURVE",
"195 10 CURVE SMOOTH",
"152 10 OFFCURVE",
"120 44 OFFCURVE",
"120 90 CURVE SMOOTH",
"120 710 LINE SMOOTH",
"120 756 OFFCURVE",
"152 790 OFFCURVE",
"195 790 CURVE SMOOTH",
"238 790 OFFCURVE",
"270 756 OFFCURVE",
"270 710 CURVE SMOOTH",
"270 570 LINE",
"290 570 LINE",
"290 710 LINE SMOOTH",
"290 767 OFFCURVE",
"249 810 OFFCURVE",
"195 810 CURVE SMOOTH",
"141 810 OFFCURVE",
"100 767 OFFCURVE",
"100 710 CURVE SMOOTH",
"100 90 LINE SMOOTH",
"100 33 OFFCURVE",
"141 -10 OFFCURVE",
"195 -10 CURVE SMOOTH"
);
},
{
closed = 1;
nodes = (
"182 298 LINE",
"290 298 LINE",
"290 318 LINE",
"182 318 LINE"
);
}
);
};
layerId = "3B122060-26E0-4730-9241-82784E6CB359";
paths = (
{
closed = 1;
nodes = (
"171 33.721 LINE",
"123.66 37.143 OFFCURVE",
"112.873 53.463 OFFCURVE",
"112 98 CURVE SMOOTH",
"108 335 OFFCURVE",
"108 465 OFFCURVE",
"112 702 CURVE SMOOTH",
"112.877 746.748 OFFCURVE",
"123.763 763.011 OFFCURVE",
"171 766.326 CURVE",
"171 804.326 LINE",
"98.816 799.594 OFFCURVE",
"72.913 769.54 OFFCURVE",
"72 702 CURVE SMOOTH",
"69 486 OFFCURVE",
"69 314 OFFCURVE",
"72 98 CURVE SMOOTH",
"72.91 30.695 OFFCURVE",
"98.636 0.616 OFFCURVE",
"171 -4.276 CURVE"
);
},
{
closed = 1;
nodes = (
"290.23 0.27 OFFCURVE",
"317.085 30.307 OFFCURVE",
"318 98 CURVE SMOOTH",
"319 159 OFFCURVE",
"319 211 OFFCURVE",
"318 307 CURVE",
"185 307 LINE",
"185 267 LINE",
"278 267 LINE",
"279 203 OFFCURVE",
"279 162 OFFCURVE",
"278 98 CURVE SMOOTH",
"277 53 OFFCURVE",
"266.094 36.777 OFFCURVE",
"216 33.61 CURVE",
"216 -4.358 LINE"
);
},
{
closed = 1;
nodes = (
"314 535 LINE",
"316 598 OFFCURVE",
"316 639 OFFCURVE",
"314 702 CURVE SMOOTH",
"312.185 769.148 OFFCURVE",
"286.492 799.244 OFFCURVE",
"216 804.241 CURVE",
"216 766.228 LINE",
"261.461 762.699 OFFCURVE",
"272.262 746.321 OFFCURVE",
"274 702 CURVE SMOOTH",
"276 639 OFFCURVE",
"276 598 OFFCURVE",
"274 535 CURVE"
);
}
);
width = 369;
},
{
anchors = (
{
name = bottom;
position = "{260, 0}";
},
{
name = top;
position = "{260, 800}";
}
);
background = {
paths = (
{
closed = 1;
nodes = (
"270 -10 OFFCURVE",
"333 54 OFFCURVE",
"333 140 CURVE SMOOTH",
"333 300 LINE",
"233 300 LINE",
"233 140 LINE SMOOTH",
"233 111 OFFCURVE",
"213 90 OFFCURVE",
"187 90 CURVE SMOOTH",
"162 90 OFFCURVE",
"143 111 OFFCURVE",
"143 140 CURVE SMOOTH",
"143 660 LINE SMOOTH",
"143 689 OFFCURVE",
"162 710 OFFCURVE",
"187 710 CURVE SMOOTH",
"213 710 OFFCURVE",
"233 689 OFFCURVE",
"233 660 CURVE SMOOTH",
"233 500 LINE",
"333 500 LINE",
"333 660 LINE SMOOTH",
"333 746 OFFCURVE",
"270 810 OFFCURVE",
"187 810 CURVE SMOOTH",
"105 810 OFFCURVE",
"43 746 OFFCURVE",
"43 660 CURVE SMOOTH",
"43 140 LINE SMOOTH",
"43 54 OFFCURVE",
"105 -10 OFFCURVE",
"187 -10 CURVE SMOOTH"
);
},
{
closed = 1;
nodes = (
"186 300 LINE",
"333 300 LINE",
"333 400 LINE",
"186 400 LINE"
);
}
);
};
layerId = "1DFA7D5B-2E97-4B89-827F-FB43F8066DC1";
paths = (
{
closed = 1;
nodes = (
"231 115.923 LINE",
"206.431 123.161 OFFCURVE",
"195.189 140.892 OFFCURVE",
"193 173 CURVE SMOOTH",
"185 313 OFFCURVE",
"185 488 OFFCURVE",
"193 628 CURVE SMOOTH",
"195.189 659.378 OFFCURVE",
"206.431 676.911 OFFCURVE",
"231 684.097 CURVE",
"231 808.956 LINE",
"102.79 800.407 OFFCURVE",
"48.546 738.722 OFFCURVE",
"43 601 CURVE SMOOTH",
"39 493 OFFCURVE",
"39 303 OFFCURVE",
"43 191 CURVE SMOOTH",
"47.624 57.827 OFFCURVE",
"101.853 -0.936 OFFCURVE",
"231 -9.02 CURVE"
);
},
{
closed = 1;
nodes = (
"423.336 -0.742 OFFCURVE",
"477.537 58.047 OFFCURVE",
"484 191 CURVE SMOOTH",
"487 252 OFFCURVE",
"488 330 OFFCURVE",
"485 391 CURVE",
"284 391 LINE",
"284 261 LINE",
"339 261 LINE",
"341 238 OFFCURVE",
"341 196 OFFCURVE",
"339 173 CURVE SMOOTH",
"336.028 140.305 OFFCURVE",
"323.669 122.518 OFFCURVE",
"297 115.536 CURVE",
"297 -8.98 LINE"
);
},
{
closed = 1;
nodes = (
"482 500 LINE",
"484 531 OFFCURVE",
"484 579 OFFCURVE",
"482 610 CURVE SMOOTH",
"473.705 741.797 OFFCURVE",
"420.389 800.541 OFFCURVE",
"297 808.936 CURVE",
"297 683.651 LINE",
"319.529 676.201 OFFCURVE",
"329.855 658.747 OFFCURVE",
"332 628 CURVE SMOOTH",
"334 584 OFFCURVE",
"334 544 OFFCURVE",
"332 500 CURVE"
);
}
);
width = 507;
},
{
anchors = (
{
name = bottom;
position = "{250, 0}";
},
{
name = top;
position = "{250, 800}";
}
);
background = {
paths = (
{
closed = 1;
nodes = (
"260 -10 OFFCURVE",
"323 54 OFFCURVE",
"323 140 CURVE SMOOTH",
"323 300 LINE",
"223 300 LINE",
"223 140 LINE SMOOTH",
"223 111 OFFCURVE",
"203 90 OFFCURVE",
"177 90 CURVE SMOOTH",
"152 90 OFFCURVE",
"133 111 OFFCURVE",
"133 140 CURVE SMOOTH",
"133 660 LINE SMOOTH",
"133 689 OFFCURVE",
"152 710 OFFCURVE",
"177 710 CURVE SMOOTH",
"203 710 OFFCURVE",
"223 689 OFFCURVE",
"223 660 CURVE SMOOTH",
"223 500 LINE",
"323 500 LINE",
"323 660 LINE SMOOTH",
"323 746 OFFCURVE",
"260 810 OFFCURVE",
"177 810 CURVE SMOOTH",
"95 810 OFFCURVE",
"33 746 OFFCURVE",
"33 660 CURVE SMOOTH",
"33 140 LINE SMOOTH",
"33 54 OFFCURVE",
"95 -10 OFFCURVE",
"177 -10 CURVE SMOOTH"
);
},
{
closed = 1;
nodes = (
"176 300 LINE",
"323 300 LINE",
"323 400 LINE",
"176 400 LINE"
);
}
);
};
layerId = "5013C991-8699-46CB-BB1C-82E334DBD38B";
paths = (
{
closed = 1;
nodes = (
"229 115.123 LINE",
"206.371 121.595 OFFCURVE",
"194.516 137.99 OFFCURVE",
"193 163 CURVE SMOOTH",
"185 303 OFFCURVE",
"185 498 OFFCURVE",
"193 638 CURVE SMOOTH",
"194.516 662.252 OFFCURVE",
"206.371 678.463 OFFCURVE",
"229 684.891 CURVE",
"229 809.41 LINE",
"99.518 803.02 OFFCURVE",
"48.65 744.126 OFFCURVE",
"43 601 CURVE SMOOTH",
"39 493 OFFCURVE",
"39 303 OFFCURVE",
"43 191 CURVE SMOOTH",
"47.714 55.244 OFFCURVE",
"96.866 -3.188 OFFCURVE",
"229 -9.434 CURVE"
);
},
{
closed = 1;
nodes = (
"404.052 -2.8 OFFCURVE",
"457.423 55.694 OFFCURVE",
"464 191 CURVE SMOOTH",
"467 252 OFFCURVE",
"468 330 OFFCURVE",
"465 391 CURVE",
"264 391 LINE",
"264 261 LINE",
"319 261 LINE",
"321 238 OFFCURVE",
"321 186 OFFCURVE",
"319 163 CURVE SMOOTH",
"316.725 137.976 OFFCURVE",
"302.374 121.577 OFFCURVE",
"279 115.112 CURVE",
"279 -9.37 LINE"
);
},
{
closed = 1;
nodes = (
"462 500 LINE",
"464 531 OFFCURVE",
"464 579 OFFCURVE",
"462 610 CURVE SMOOTH",
"453.555 744.176 OFFCURVE",
"401.091 802.638 OFFCURVE",
"279 809.342 CURVE",
"279 684.208 LINE",
"298.881 677.361 OFFCURVE",
"310.535 661.435 OFFCURVE",
"312 638 CURVE SMOOTH",
"314 601 OFFCURVE",
"314 537 OFFCURVE",
"312 500 CURVE"
);
}
);
width = 487;
},
{
anchors = (
{
name = bottom;
position = "{145, 0}";
},
{
name = top;
position = "{145, 800}";
}
);
background = {
paths = (
{
closed = 1;
nodes = (
"219 -10 OFFCURVE",
"260 33 OFFCURVE",
"260 90 CURVE SMOOTH",
"260 298 LINE",
"240 298 LINE",
"240 90 LINE SMOOTH",
"240 44 OFFCURVE",
"208 10 OFFCURVE",
"165 10 CURVE SMOOTH",
"122 10 OFFCURVE",
"90 44 OFFCURVE",
"90 90 CURVE SMOOTH",
"90 710 LINE SMOOTH",
"90 756 OFFCURVE",
"122 790 OFFCURVE",
"165 790 CURVE SMOOTH",
"208 790 OFFCURVE",
"240 756 OFFCURVE",
"240 710 CURVE SMOOTH",
"240 570 LINE",
"260 570 LINE",
"260 710 LINE SMOOTH",
"260 767 OFFCURVE",
"219 810 OFFCURVE",
"165 810 CURVE SMOOTH",
"111 810 OFFCURVE",
"70 767 OFFCURVE",
"70 710 CURVE SMOOTH",
"70 90 LINE SMOOTH",
"70 33 OFFCURVE",
"111 -10 OFFCURVE",
"165 -10 CURVE SMOOTH"
);
},
{
closed = 1;
nodes = (
"152 298 LINE",
"260 298 LINE",
"260 318 LINE",
"152 318 LINE"
);
}
);
};
layerId = "3D06B89B-468F-44E0-A3D7-A5BC6911123E";
paths = (
{
closed = 1;
nodes = (
"128 16.68 LINE",
"95.366 22.579 OFFCURVE",
"82 44.385 OFFCURVE",
"82 88 CURVE SMOOTH",
"80 311 OFFCURVE",
"80 489 OFFCURVE",
"82 712 CURVE SMOOTH",
"82.84 755.7 OFFCURVE",
"96.393 777.506 OFFCURVE",
"128 783.354 CURVE",
"128 803.827 LINE",
"82.376 798.002 OFFCURVE",
"62.881 770.125 OFFCURVE",
"62 712 CURVE SMOOTH",
"59 489 OFFCURVE",
"59 311 OFFCURVE",
"62 88 CURVE SMOOTH",
"62.876 30.161 OFFCURVE",
"82.184 2.274 OFFCURVE",
"128 -3.739 CURVE"
);
},
{
closed = 1;
nodes = (
"216.37 1.347 OFFCURVE",
"237.109 29.192 OFFCURVE",
"238 88 CURVE SMOOTH",
"239 199 OFFCURVE",
"239 261 OFFCURVE",
"238 307 CURVE",
"145 307 LINE",
"145 287 LINE",
"218 287 LINE",
"219 216 OFFCURVE",
"219 159 OFFCURVE",
"218 88 CURVE SMOOTH",
"217.144 43.479 OFFCURVE",
"202.36 21.682 OFFCURVE",
"168 16.333 CURVE",
"168 -4.023 LINE"
);
},
{
closed = 1;
nodes = (
"234 535 LINE",
"236 598 OFFCURVE",
"236 649 OFFCURVE",
"234 712 CURVE SMOOTH",
"232.243 769.989 OFFCURVE",
"212.73 797.871 OFFCURVE",
"168 803.785 CURVE",
"168 783.277 LINE",
"198.751 777.317 OFFCURVE",
"212.327 755.511 OFFCURVE",
"214 712 CURVE SMOOTH",
"216 649 OFFCURVE",
"216 598 OFFCURVE",
"214 535 CURVE"
);
}
);
width = 279;
}
);
leftKerningGroup = O;
rightKerningGroup = O;
unicode = 0047;
},
{
glyphname = H;
layers = (
{
anchors = (
{
name = bottom;
position = "{190, 0}";
},
{
name = center;
position = "{190, 400}";
},
{
name = top;
position = "{190, 800}";
},
{
name = topleft;
position = "{50, 800}";
}
);
layerId = "3B122060-26E0-4730-9241-82784E6CB359";
paths = (
{
closed = 1;
nodes = (
"110 0 LINE",
"110 800 LINE",
"70 800 LINE",
"70 0 LINE"
);
},
{
closed = 1;
nodes = (
"224 381 LINE",
"234 419 LINE",
"81 419 LINE",
"81 381 LINE"
);
},
{
closed = 1;
nodes = (
"310 0 LINE",
"310 800 LINE",
"270 800 LINE",
"270 0 LINE"
);
}
);
width = 380;
},
{
anchors = (
{
name = bottom;
position = "{253, 0}";
},
{
name = center;
position = "{253, 400}";
},
{
name = top;
position = "{253, 800}";
},
{
name = topleft;
position = "{20, 800}";
}
);
layerId = "1DFA7D5B-2E97-4B89-827F-FB43F8066DC1";
paths = (
{
closed = 1;
nodes = (
"190 0 LINE",
"190 800 LINE",
"40 800 LINE",
"40 0 LINE"
);
},
{
closed = 1;
nodes = (
"248 341 LINE",
"283 473 LINE",
"150 473 LINE",
"150 341 LINE"
);
},
{
closed = 1;
nodes = (
"465 0 LINE",
"465 800 LINE",
"315 800 LINE",
"315 0 LINE"
);
}
);
width = 505;
},
{
anchors = (
{
name = bottom;
position = "{243, 0}";
},
{
name = center;
position = "{243, 400}";
},
{
name = top;
position = "{243, 800}";
},
{
name = topleft;
position = "{20, 800}";
}
);
layerId = "5013C991-8699-46CB-BB1C-82E334DBD38B";
paths = (
{
closed = 1;
nodes = (
"190 0 LINE",
"190 800 LINE",
"40 800 LINE",
"40 0 LINE"
);
},
{
closed = 1;
nodes = (
"230 341 LINE",
"265 473 LINE",
"130 473 LINE",
"130 341 LINE"
);
},
{
closed = 1;
nodes = (
"445 0 LINE",
"445 800 LINE",
"295 800 LINE",
"295 0 LINE"
);
}
);
width = 485;
},
{
anchors = (
{
name = bottom;
position = "{150, 0}";
},
{
name = center;
position = "{150, 400}";
},
{
name = top;
position = "{150, 800}";
},
{
name = topleft;
position = "{260, 800}";
}
);
layerId = "3D06B89B-468F-44E0-A3D7-A5BC6911123E";
paths = (
{
closed = 1;
nodes = (
"80 0 LINE",
"80 800 LINE",
"60 800 LINE",
"60 0 LINE"
);
},
{
closed = 1;
nodes = (
"185 390 LINE",
"190 410 LINE",
"71 410 LINE",
"71 390 LINE"
);
},
{
closed = 1;
nodes = (
"240 0 LINE",
"240 800 LINE",
"220 800 LINE",
"220 0 LINE"
);
}
);
width = 300;
}
);
leftKerningGroup = H;
rightKerningGroup = H;
unicode = 0048;
},
{
glyphname = Hbar;
layers = (
{
components = (
{
name = H;
transform = "{1, 0, 0, 1, -22, 0}";
}
);
layerId = "3B122060-26E0-4730-9241-82784E6CB359";
leftMetricsKey = "=15";
rightMetricsKey = "=15";
paths = (
{
closed = 1;
nodes = (
"15 571 LINE",
"87 571 LINE",
"87 605 LINE",
"15 605 LINE"
);
},
{
closed = 1;
nodes = (
"116 571 LINE",
"321 571 LINE",
"321 605 LINE",
"116 605 LINE"
);
}
);
width = 336;
},
{
components = (
{
name = H;
transform = "{1, 0, 0, 1, 38, 0}";
}
);
layerId = "1DFA7D5B-2E97-4B89-827F-FB43F8066DC1";
leftMetricsKey = "=30";
rightMetricsKey = "=30";
paths = (
{
closed = 1;
nodes = (
"30 527 LINE",
"191 527 LINE",
"191 640 LINE",
"30 640 LINE"
);
},
{
closed = 1;
nodes = (
"278 527 LINE",
"551 527 LINE",
"551 640 LINE",
"278 640 LINE"
);
}
);
width = 581;
},
{
components = (
{
name = H;
transform = "{1, 0, 0, 1, 48, 0}";
}
);
layerId = "5013C991-8699-46CB-BB1C-82E334DBD38B";
leftMetricsKey = "=30";
rightMetricsKey = "=30";
paths = (
{
closed = 1;
nodes = (
"30 527 LINE",
"178 527 LINE",
"178 640 LINE",
"30 640 LINE"
);
},
{
closed = 1;
nodes = (
"284 527 LINE",
"546 527 LINE",
"546 640 LINE",
"284 640 LINE"
);
}
);
width = 576;
},
{
components = (
{
name = H;
transform = "{1, 0, 0, 1, -2, 0}";
}
);
layerId = "3D06B89B-468F-44E0-A3D7-A5BC6911123E";
leftMetricsKey = "=15";
rightMetricsKey = "=15";
paths = (
{
closed = 1;
nodes = (
"15 580 LINE",
"65 580 LINE",
"65 600 LINE",
"15 600 LINE"
);
},
{
closed = 1;
nodes = (
"119 580 LINE",
"280 580 LINE",
"280 600 LINE",
"119 600 LINE"
);
}
);
width = 295;
}
);
leftKerningGroup = H;
leftMetricsKey = "H-45";
rightKerningGroup = H;
rightMetricsKey = H;
unicode = 0126;
},
{
glyphname = I;
layers = (
{
anchors = (
{
name = bottom;
position = "{90, 0}";
},
{
name = ogonek;
position = "{89, 0}";
},
{
name = top;
position = "{90, 800}";
},
{
name = topleft;
position = "{50, 800}";
}
);
layerId = "3B122060-26E0-4730-9241-82784E6CB359";
paths = (
{
closed = 1;
nodes = (
"110 0 LINE",
"110 800 LINE",
"70 800 LINE",
"70 0 LINE"
);
}
);
width = 180;
},
{
anchors = (
{
name = bottom;
position = "{115, 0}";
},
{
name = ogonek;
position = "{94, 0}";
},
{
name = top;
position = "{115, 800}";
},
{
name = topleft;
position = "{20, 800}";
}
);
layerId = "1DFA7D5B-2E97-4B89-827F-FB43F8066DC1";
paths = (
{
closed = 1;
nodes = (
"190 0 LINE",
"190 800 LINE",
"40 800 LINE",
"40 0 LINE"
);
}
);
width = 230;
},
{
anchors = (
{
name = bottom;
position = "{115, 0}";
},
{
name = ogonek;
position = "{90.676, 0}";
},
{
name = top;
position = "{115, 800}";
},
{
name = topleft;
position = "{20, 800}";
}
);
layerId = "5013C991-8699-46CB-BB1C-82E334DBD38B";
paths = (
{
closed = 1;
nodes = (
"190 0 LINE",
"190 800 LINE",
"40 800 LINE",
"40 0 LINE"
);
}
);
width = 230;
},
{
anchors = (
{
name = bottom;
position = "{70, 0}";
},
{
name = ogonek;
position = "{71, 0}";
},
{
name = top;
position = "{70, 800}";
},
{
name = topleft;
position = "{40, 800}";
}
);
layerId = "3D06B89B-468F-44E0-A3D7-A5BC6911123E";
paths = (
{
closed = 1;
nodes = (
"80 0 LINE",
"80 800 LINE",
"60 800 LINE",
"60 0 LINE"
);
}
);
width = 140;
}
);
leftKerningGroup = H;
rightKerningGroup = H;
unicode = 0049;
},
{
glyphname = J;
layers = (
{
anchors = (
{
name = bottom;
position = "{133, 0}";
},
{
name = top;
position = "{153, 800}";
}
);
layerId = "3B122060-26E0-4730-9241-82784E6CB359";
paths = (
{
closed = 1;
nodes = (
"106 34.419 LINE",
"72.657 39.267 OFFCURVE",
"62.666 57.186 OFFCURVE",
"61 98 CURVE SMOOTH",
"58 163 OFFCURVE",
"59 218 OFFCURVE",
"61 283 CURVE",
"21 283 LINE",
"19 213 OFFCURVE",
"19 168 OFFCURVE",
"21 98 CURVE SMOOTH",
"22.782 32.075 OFFCURVE",
"47.58 1.865 OFFCURVE",
"106 -3.943 CURVE"
);
},
{
closed = 1;
nodes = (
"218.157 1.123 OFFCURVE",
"245 31.26 OFFCURVE",
"245 98 CURVE SMOOTH",
"245 800 LINE",
"205 800 LINE",
"205 98 LINE SMOOTH",
"205 55.965 OFFCURVE",
"193.225 38.216 OFFCURVE",
"152 34.019 CURVE",
"152 -4.148 LINE"
);
}
);
width = 285;
},
{
anchors = (
{
name = bottom;
position = "{230, -10}";
},
{
name = top;
position = "{258, 800}";
}
);
layerId = "1DFA7D5B-2E97-4B89-827F-FB43F8066DC1";
paths = (
{
closed = 1;
nodes = (
"197 116.122 LINE",
"173.381 123.484 OFFCURVE",
"162.723 141.183 OFFCURVE",
"162 173 CURVE SMOOTH",
"161 209 OFFCURVE",
"161 264 OFFCURVE",
"162 300 CURVE",
"21 300 LINE",
"20 268 OFFCURVE",
"20 223 OFFCURVE",
"21 191 CURVE SMOOTH",
"24.682 58.453 OFFCURVE",
"75.81 -0.382 OFFCURVE",
"197 -8.903 CURVE"
);
},
{
closed = 1;
nodes = (
"392.782 -0.989 OFFCURVE",
"445 57.768 OFFCURVE",
"445 191 CURVE SMOOTH",
"445 800 LINE",
"295 800 LINE",
"295 173 LINE SMOOTH",
"295 141.57 OFFCURVE",
"285.305 123.917 OFFCURVE",
"263 116.396 CURVE",
"263 -9.031 LINE"
);
}
);
width = 475;
},
{
anchors = (
{
name = bottom;
position = "{230, -10}";
},
{
name = top;
position = "{258, 800}";
}
);
layerId = "5013C991-8699-46CB-BB1C-82E334DBD38B";
paths = (
{
closed = 1;
nodes = (
"205 115.214 LINE",
"183.182 121.749 OFFCURVE",
"172.754 138.107 OFFCURVE",
"172 163 CURVE SMOOTH",
"171 199 OFFCURVE",
"171 264 OFFCURVE",
"172 300 CURVE",
"31 300 LINE",
"30 268 OFFCURVE",
"30 223 OFFCURVE",
"31 191 CURVE SMOOTH",
"34.764 55.497 OFFCURVE",
"77.488 -2.97 OFFCURVE",
"205 -9.398 CURVE"
);
},
{
closed = 1;
nodes = (
"387.009 -3.185 OFFCURVE",
"435 55.248 OFFCURVE",
"435 191 CURVE SMOOTH",
"435 800 LINE",
"285 800 LINE",
"285 163 LINE SMOOTH",
"285 138.232 OFFCURVE",
"275.987 121.913 OFFCURVE",
"255 115.313 CURVE",
"255 -9.433 LINE"
);
}
);
width = 475;
},
{
anchors = (
{
name = bottom;
position = "{123, 0}";
},
{
name = top;
position = "{143, 800}";
}
);
layerId = "3D06B89B-468F-44E0-A3D7-A5BC6911123E";
paths = (
{
closed = 1;
nodes = (
"99 16.46 LINE",
"65.224 22.02 OFFCURVE",
"52.699 43.823 OFFCURVE",
"51 88 CURVE SMOOTH",
"49 153 OFFCURVE",
"49 218 OFFCURVE",
"51 283 CURVE",
"31 283 LINE",
"29 213 OFFCURVE",
"29 158 OFFCURVE",
"31 88 CURVE SMOOTH",
"31.885 29.614 OFFCURVE",
"51.551 1.749 OFFCURVE",
"99 -3.904 CURVE"
);
},
{
closed = 1;
nodes = (
"185.522 1.872 OFFCURVE",
"205 29.743 OFFCURVE",
"205 88 CURVE SMOOTH",
"205 800 LINE",
"185 800 LINE",
"185 88 LINE SMOOTH",
"185 44.118 OFFCURVE",
"171.47 22.313 OFFCURVE",
"139 16.574 CURVE",
"139 -3.866 LINE"
);
}
);
width = 265;
}
);
leftKerningGroup = J;
rightKerningGroup = O;
unicode = 004A;
},
{
glyphname = K;
layers = (
{
anchors = (
{
name = bottom;
position = "{185, 0}";
},
{
name = top;
position = "{175, 800}";
}
);
background = {
paths = (
{
closed = 1;
nodes = (
"171 361 LINE",
"189 419 LINE",
"302 800 LINE",
"260 800 LINE",
"213 641 LINE",
"128 349 LINE",
"105 349 LINE",
"103 159 LINE"
);
},
{
closed = 1;
nodes = (
"110 0 LINE",
"110 387 LINE",
"110 398 LINE",
"110 642 LINE",
"110 800 LINE",
"70 800 LINE",
"70 0 LINE"
);
},
{
closed = 1;
nodes = (
"318 0 LINE",
"191 427 LINE",
"152 422 LINE",
"275 0 LINE"
);
}
);
};
layerId = "3B122060-26E0-4730-9241-82784E6CB359";
paths = (
{
closed = 1;
nodes = (
"110 0 LINE",
"110 152 LINE",
"302 800 LINE",
"260 800 LINE",
"213 641 LINE",
"128 349 LINE",
"70 349 LINE",
"70 0 LINE"
);
},
{
closed = 1;
nodes = (
"318 0 LINE",
"212 358 LINE",
"191 286 LINE",
"275 0 LINE"
);
},
{
closed = 1;
nodes = (
"110 395 LINE",
"110 639 LINE",
"110 800 LINE",
"70 800 LINE",
"70 395 LINE"
);
}
);
width = 358;
},
{
anchors = (
{
name = bottom;
position = "{265, 0}";
},
{
name = top;
position = "{265, 800}";
}
);
background = {
paths = (
{
closed = 1;
nodes = (
"287 363 LINE",
"351 425 LINE",
"502 800 LINE",
"338 800 LINE",
"266 606 LINE",
"218 427 LINE",
"153 427 LINE",
"173 141 LINE"
);
},
{
closed = 1;
nodes = (
"193 0 LINE",
"193 272 LINE",
"181 427 LINE",
"198 606 LINE",
"200 800 LINE",
"40 800 LINE",
"40 0 LINE"
);
},
{
closed = 1;
nodes = (
"508 0 LINE",
"361 499 LINE",
"254 357 LINE",
"356 0 LINE"
);
}
);
};
layerId = "1DFA7D5B-2E97-4B89-827F-FB43F8066DC1";
paths = (
{
closed = 1;
nodes = (
"193 0 LINE",
"193 120 LINE",
"502 800 LINE",
"338 800 LINE",
"266 606 LINE",
"218 427 LINE",
"40 427 LINE",
"40 0 LINE"
);
},
{
closed = 1;
nodes = (
"508 0 LINE",
"387.153 409.489 LINE",
"296.021 206.849 LINE",
"356 0 LINE"
);
},
{
closed = 1;
nodes = (
"178 478 LINE",
"199 609 LINE",
"200 800 LINE",
"40 800 LINE",
"40 478 LINE"
);
}
);
width = 528;
},
{
anchors = (
{
name = bottom;
position = "{265, 0}";
},
{
name = top;
position = "{265, 800}";
}
);
background = {
paths = (
{
closed = 1;
nodes = (
"305 427 LINE",
"331 425 LINE",
"482 800 LINE",
"318 800 LINE",
"246 606 LINE",
"198 427 LINE",
"153 427 LINE",
"173 141 LINE"
);
},
{
closed = 1;
nodes = (
"193 0 LINE",
"193 272 LINE",
"171 427 LINE",
"198 606 LINE",
"200 800 LINE",
"40 800 LINE",
"40 0 LINE"
);
},
{
closed = 1;
nodes = (
"488 0 LINE",
"341 499 LINE",
"234 357 LINE",
"336 0 LINE"
);
}
);
};
layerId = "5013C991-8699-46CB-BB1C-82E334DBD38B";
paths = (
{
closed = 1;
nodes = (
"193 0 LINE",
"193 120 LINE",
"482 800 LINE",
"318 800 LINE",
"246 606 LINE",
"198 427 LINE",
"40 427 LINE",
"40 0 LINE"
);
},
{
closed = 1;
nodes = (
"488 0 LINE",
"367 413 LINE",
"279 202 LINE",
"336 0 LINE"
);
},
{
closed = 1;
nodes = (
"169 473 LINE",
"198 606 LINE",
"200 800 LINE",
"40 800 LINE",
"40 473 LINE"
);
}
);
width = 508;
},
{
anchors = (
{
name = bottom;
position = "{149, 0}";
},
{
name = top;
position = "{139, 800}";
}
);
background = {
paths = (
{
closed = 1;
nodes = (
"115 410 LINE",
"119 419 LINE",
"232 800 LINE",
"210 800 LINE",
"163 641 LINE",
"91 395 LINE",
"79 395 LINE",
"77 290 LINE"
);
},
{
closed = 1;
nodes = (
"80 0 LINE",
"80 387 LINE",
"80 398 LINE",
"80 642 LINE",
"80 800 LINE",
"60 800 LINE",
"60 0 LINE"
);
},
{
closed = 1;
nodes = (
"248 0 LINE",
"121 427 LINE",
"102 422 LINE",
"225 0 LINE"
);
}
);
};
layerId = "3D06B89B-468F-44E0-A3D7-A5BC6911123E";
paths = (
{
closed = 1;
nodes = (
"80 0 LINE",
"80 279 LINE",
"232 800 LINE",
"210 800 LINE",
"163 641 LINE",
"91 395 LINE",
"60 395 LINE",
"60 0 LINE"
);
},
{
closed = 1;
nodes = (
"248 0 LINE",
"135 377 LINE",
"124 345 LINE",
"225 0 LINE"
);
},
{
closed = 1;
nodes = (
"80 415 LINE",
"80 638 LINE",
"80 800 LINE",
"60 800 LINE",
"60 415 LINE"
);
}
);
width = 278;
}
);
leftKerningGroup = H;
rightKerningGroup = K;
unicode = 004B;
},
{
glyphname = L;
layers = (
{
anchors = (
{
name = bottom;
position = "{181, 0}";
},
{
name = center;
position = "{165, 400}";
},
{
name = top;
position = "{165, 800}";
},
{
name = topright;
position = "{249, 800}";
}
);
layerId = "3B122060-26E0-4730-9241-82784E6CB359";
paths = (
{
closed = 1;
nodes = (
"110 0 LINE",
"110 800 LINE",
"70 800 LINE",
"70 0 LINE"
);
},
{
closed = 1;
nodes = (
"289 0 LINE",
"289 38 LINE",
"156 38 LINE",
"156 0 LINE"
);
}
);
width = 329;
},
{
anchors = (
{
name = bottom;
position = "{193, 0}";
},
{
name = center;
position = "{219, 400}";
},
{
name = top;
position = "{219, 800}";
},
{
name = topright;
position = "{417, 800}";
}
);
layerId = "1DFA7D5B-2E97-4B89-827F-FB43F8066DC1";
paths = (
{
closed = 1;
nodes = (
"190 0 LINE",
"190 800 LINE",
"40 800 LINE",
"40 0 LINE"
);
},
{
closed = 1;
nodes = (
"387 0 LINE",
"387 132 LINE",
"256 132 LINE",
"256 0 LINE"
);
}
);
width = 407;
},
{
anchors = (
{
name = bottom;
position = "{204, 0}";
},
{
name = center;
position = "{219, 400}";
},
{
name = top;
position = "{219, 800}";
},
{
name = topright;
position = "{417, 800}";
}
);
layerId = "5013C991-8699-46CB-BB1C-82E334DBD38B";
paths = (
{
closed = 1;
nodes = (
"190 0 LINE",
"190 800 LINE",
"40 800 LINE",
"40 0 LINE"
);
},
{
closed = 1;
nodes = (
"387 0 LINE",
"387 132 LINE",
"240 132 LINE",
"240 0 LINE"
);
}
);
width = 407;
},
{
anchors = (
{
name = bottom;
position = "{141, 0}";
},
{
name = center;
position = "{125, 400}";
},
{
name = top;
position = "{125, 800}";
},
{
name = topright;
position = "{209, 800}";
}
);
layerId = "3D06B89B-468F-44E0-A3D7-A5BC6911123E";
paths = (
{
closed = 1;
nodes = (
"80 0 LINE",
"80 800 LINE",
"60 800 LINE",
"60 0 LINE"
);
},
{
closed = 1;
nodes = (
"219 0 LINE",
"219 20 LINE",
"120 20 LINE",
"120 0 LINE"
);
}
);
width = 249;
}
);
leftKerningGroup = H;
rightKerningGroup = L;
unicode = 004C;
},
{
glyphname = Lslash;
layers = (
{
components = (
{
name = L;
}
);
layerId = "3B122060-26E0-4730-9241-82784E6CB359";
paths = (
{
closed = 1;
nodes = (
"50 197 LINE",
"77 283 LINE",
"104 373 LINE",
"173 600 LINE",
"133 600 LINE",
"101 494 LINE",
"73 402 LINE",
"10 197 LINE"
);
}
);
width = 329;
},
{
components = (
{
name = L;
transform = "{1, 0, 0, 1, 79, 0}";
}
);
layerId = "1DFA7D5B-2E97-4B89-827F-FB43F8066DC1";
paths = (
{
closed = 1;
nodes = (
"103 180 LINE",
"134 246 LINE",
"259 375 LINE",
"400 600 LINE",
"287 600 LINE",
"243 511 LINE",
"131 390 LINE",
"0 180 LINE"
);
}
);
width = 486;
},
{
components = (
{
name = L;
transform = "{1, 0, 0, 1, 82, 0}";
}
);
layerId = "5013C991-8699-46CB-BB1C-82E334DBD38B";
paths = (
{
closed = 1;
nodes = (
"103 180 LINE",
"134 246 LINE",
"259 375 LINE",
"400 600 LINE",
"287 600 LINE",
"243 511 LINE",
"131 390 LINE",
"0 180 LINE"
);
}
);
width = 489;
},
{
components = (
{
name = L;
}
);
layerId = "3D06B89B-468F-44E0-A3D7-A5BC6911123E";
paths = (
{
closed = 1;
nodes = (
"40 200 LINE",
"63 317 LINE",
"77 387 LINE",
"120 600 LINE",
"100 600 LINE",
"76 479 LINE",
"63 413 LINE",
"20 200 LINE"
);
}
);
width = 249;
}
);
leftKerningGroup = H;
rightKerningGroup = L;
rightMetricsKey = L;
unicode = 0141;
},
{
glyphname = M;
layers = (
{
anchors = (
{
name = bottom;
position = "{215, 0}";
},
{
name = top;
position = "{215, 800}";
}
);
background = {
paths = (
{
closed = 1;
nodes = (
"100 0 LINE",
"100 230 LINE",
"68 470 LINE",
"60 470 LINE",
"60 0 LINE"
);
},
{
closed = 1;
nodes = (
"205 38 LINE",
"95 800 LINE",
"55 800 LINE",
"170 0 LINE",
"257 0 LINE",
"374 800 LINE",
"334 800 LINE",
"222 38 LINE"
);
},
{
closed = 1;
nodes = (
"373 470 LINE",
"365 470 LINE",
"333 230 LINE",
"333 0 LINE",
"373 0 LINE"
);
}
);
};
layerId = "3B122060-26E0-4730-9241-82784E6CB359";
paths = (
{
closed = 1;
nodes = (
"317 5 LINE",
"340 226 LINE",
"397 762 LINE",
"477 762 LINE",
"477 800 LINE",
"361 800 LINE",
"324 459 LINE",
"282 43 LINE",
"265 43 LINE",
"223 459 LINE",
"186 800 LINE",
"70 800 LINE",
"70 762 LINE",
"150 762 LINE",
"207 226 LINE",
"230 5 LINE"
);
},
{
closed = 1;
nodes = (
"110 0 LINE",
"110 225 LINE",
"110 726 LINE",
"70 726 LINE",
"70 0 LINE"
);
},
{
closed = 1;
nodes = (
"477 0 LINE",
"477 726 LINE",
"437 726 LINE",
"437 225 LINE",
"437 0 LINE"
);
}
);
width = 547;
},
{
anchors = (
{
name = bottom;
position = "{413, 0}";
},
{
name = top;
position = "{413, 800}";
}
);
background = {
paths = (
{
closed = 1;
nodes = (
"123 559 LINE",
"86 559 LINE",
"86 0 LINE",
"241 0 LINE",
"241 143 LINE"
);
},
{
closed = 1;
nodes = (
"419 132 LINE",
"407 307 LINE",
"272 800 LINE",
"106 800 LINE",
"331 0 LINE",
"544 0 LINE",
"769 800 LINE",
"603 800 LINE",
"468 307 LINE",
"456 132 LINE"
);
},
{
closed = 1;
nodes = (
"634 0 LINE",
"789 0 LINE",
"789 559 LINE",
"752 559 LINE",
"634 143 LINE"
);
}
);
};
layerId = "1DFA7D5B-2E97-4B89-827F-FB43F8066DC1";
paths = (
{
closed = 1;
nodes = (
"503 0 LINE",
"570 236 LINE",
"612 668 LINE",
"785 668 LINE",
"785 800 LINE",
"515 800 LINE",
"448 497 LINE",
"436 132 LINE",
"390 132 LINE",
"377 497 LINE",
"311 800 LINE",
"40 800 LINE",
"40 668 LINE",
"213 668 LINE",
"256 236 LINE",
"317 0 LINE"
);
},
{
closed = 1;
nodes = (
"195 0 LINE",
"195 246 LINE",
"171 622 LINE",
"40 622 LINE",
"40 0 LINE"
);
},
{
closed = 1;
nodes = (
"785 0 LINE",
"785 622 LINE",
"654 622 LINE",
"630 246 LINE",
"630 0 LINE"
);
}
);
width = 825;
},
{
anchors = (
{
name = bottom;
position = "{373, 0}";
},
{
name = top;
position = "{373, 800}";
}
);
layerId = "5013C991-8699-46CB-BB1C-82E334DBD38B";
paths = (
{
closed = 1;
nodes = (
"453 0 LINE",
"515 236 LINE",
"557 668 LINE",
"705 668 LINE",
"705 800 LINE",
"465 800 LINE",
"398 497 LINE",
"386 132 LINE",
"360 132 LINE",
"347 497 LINE",
"281 800 LINE",
"40 800 LINE",
"40 668 LINE",
"188 668 LINE",
"231 236 LINE",
"292 0 LINE"
);
},
{
closed = 1;
nodes = (
"190 0 LINE",
"190 220 LINE",
"148 618 LINE",
"40 618 LINE",
"40 0 LINE"
);
},
{
closed = 1;
nodes = (
"705 0 LINE",
"705 618 LINE",
"598 618 LINE",
"555 220 LINE",
"555 0 LINE"
);
}
);
width = 745;
},
{
anchors = (
{
name = bottom;
position = "{204, 0}";
},
{
name = top;
position = "{204, 800}";
}
);
layerId = "3D06B89B-468F-44E0-A3D7-A5BC6911123E";
paths = (
{
closed = 1;
nodes = (
"228 5 LINE",
"250 226 LINE",
"309 780 LINE",
"347 780 LINE",
"347 800 LINE",
"291 800 LINE",
"253 459 LINE",
"210 25 LINE",
"197 25 LINE",
"154 459 LINE",
"116 800 LINE",
"60 800 LINE",
"60 780 LINE",
"98 780 LINE",
"157 226 LINE",
"179 5 LINE"
);
},
{
closed = 1;
nodes = (
"80 0 LINE",
"80 228 LINE",
"80 750 LINE",
"60 750 LINE",
"60 0 LINE"
);
},
{
closed = 1;
nodes = (
"347 0 LINE",
"347 750 LINE",
"327 750 LINE",
"327 223 LINE",
"327 0 LINE"
);
}
);
width = 407;
},
{
anchors = (
{
name = bottom;
position = "{265, 0}";
},
{
name = top;
position = "{265, 800}";
}
);
associatedMasterId = "3B122060-26E0-4730-9241-82784E6CB359";
background = {
paths = (
{
closed = 1;
nodes = (
"100 0 LINE",
"100 230 LINE",
"68 470 LINE",
"60 470 LINE",
"60 0 LINE"
);
},
{
closed = 1;
nodes = (
"205 38 LINE",
"95 800 LINE",
"55 800 LINE",
"170 0 LINE",
"257 0 LINE",
"374 800 LINE",
"334 800 LINE",
"222 38 LINE"
);
},
{
closed = 1;
nodes = (
"373 470 LINE",
"365 470 LINE",
"333 230 LINE",
"333 0 LINE",
"373 0 LINE"
);
}
);
};
layerId = "A60137E2-33F3-47F3-B4C0-C3E5894F781A";
name = "{300,10}";
paths = (
{
closed = 1;
nodes = (
"378 4 LINE",
"403 239 LINE",
"451 739 LINE",
"554 739 LINE",
"554 800 LINE",
"389 800 LINE",
"359 459 LINE",
"321 65 LINE",
"296 65 LINE",
"257 460 LINE",
"227 800 LINE",
"63 800 LINE",
"63 739 LINE",
"166 739 LINE",
"215 233 LINE",
"240 4 LINE"
);
},
{
closed = 1;
nodes = (
"131 0 LINE",
"131 230 LINE",
"131 703 LINE",
"63 703 LINE",
"63 0 LINE"
);
},
{
closed = 1;
nodes = (
"554 0 LINE",
"554 703 LINE",
"485 703 LINE",
"485 230 LINE",
"485 0 LINE"
);
}
);
width = 617;
},
{
anchors = (
{
name = bottom;
position = "{254, 0}";
},
{
name = top;
position = "{254, 800}";
}
);
associatedMasterId = "3D06B89B-468F-44E0-A3D7-A5BC6911123E";
layerId = "DDC0386E-5748-44CA-8840-FFADC4F32689";
name = "{300,72}";
paths = (
{
closed = 1;
nodes = (
"325 4 LINE",
"344 237 LINE",
"387 752 LINE",
"473 752 LINE",
"473 800 LINE",
"336 800 LINE",
"312 508 LINE",
"275 52 LINE",
"259 52 LINE",
"222 503 LINE",
"198 800 LINE",
"63 800 LINE",
"63 752 LINE",
"149 752 LINE",
"191 239 LINE",
"210 4 LINE"
);
},
{
closed = 1;
nodes = (
"116 0 LINE",
"116 233 LINE",
"116 720 LINE",
"63 720 LINE",
"63 0 LINE"
);
},
{
closed = 1;
nodes = (
"473 0 LINE",
"473 720 LINE",
"420 720 LINE",
"420 229 LINE",
"420 0 LINE"
);
}
);
width = 536;
}
);
leftKerningGroup = H;
rightKerningGroup = H;
unicode = 004D;
},
{
glyphname = N;
layers = (
{
anchors = (
{
name = bottom;
position = "{231, 0}";
},
{
name = top;
position = "{238, 800}";
}
);
layerId = "3B122060-26E0-4730-9241-82784E6CB359";
paths = (
{
closed = 1;
nodes = (
"375 0 LINE",
"375 38 LINE",
"294 38 LINE",
"221 548 LINE",
"185 800 LINE",
"70 800 LINE",
"70 762 LINE",
"151 762 LINE",
"216 300 LINE",
"259 0 LINE"
);
},
{
closed = 1;
nodes = (
"110 0 LINE",
"110 303 LINE",
"110 726 LINE",
"70 726 LINE",
"70 0 LINE"
);
},
{
closed = 1;
nodes = (
"375 74 LINE",
"375 800 LINE",
"335 800 LINE",
"335 549 LINE",
"335 74 LINE"
);
}
);
width = 445;
},
{
anchors = (
{
name = bottom;
position = "{297, 0}";
},
{
name = top;
position = "{297, 800}";
}
);
background = {
paths = (
{
closed = 1;
nodes = (
"211 0 LINE",
"206 307 LINE",
"181 668 LINE",
"209 668 LINE",
"261 291 LINE",
"355 0 LINE",
"594 0 LINE",
"594 800 LINE",
"434 800 LINE",
"439 457 LINE",
"483 132 LINE",
"457 132 LINE",
"372 535 LINE",
"292 800 LINE",
"50 800 LINE",
"50 0 LINE"
);
}
);
};
layerId = "1DFA7D5B-2E97-4B89-827F-FB43F8066DC1";
paths = (
{
closed = 1;
nodes = (
"559 0 LINE",
"559 132 LINE",
"402 132 LINE",
"347 545 LINE",
"287 800 LINE",
"40 800 LINE",
"40 669 LINE",
"199 669 LINE",
"240 262 LINE",
"300 0 LINE"
);
},
{
closed = 1;
nodes = (
"190 0 LINE",
"177 307 LINE",
"156 618 LINE",
"40 618 LINE",
"40 0 LINE"
);
},
{
closed = 1;
nodes = (
"559 183 LINE",
"559 800 LINE",
"408 800 LINE",
"420 457 LINE",
"442 183 LINE"
);
}
);
width = 599;
},
{
anchors = (
{
name = bottom;
position = "{272, 0}";
},
{
name = top;
position = "{272, 800}";
}
);
background = {
paths = (
{
closed = 1;
nodes = (
"186 0 LINE",
"181 307 LINE",
"156 668 LINE",
"184 668 LINE",
"236 291 LINE",
"330 0 LINE",
"569 0 LINE",
"569 800 LINE",
"409 800 LINE",
"414 457 LINE",
"458 132 LINE",
"432 132 LINE",
"347 535 LINE",
"267 800 LINE",
"25 800 LINE",
"25 0 LINE"
);
}
);
};
layerId = "5013C991-8699-46CB-BB1C-82E334DBD38B";
paths = (
{
closed = 1;
nodes = (
"503 0 LINE",
"503 132 LINE",
"372 132 LINE",
"317 545 LINE",
"257 800 LINE",
"40 800 LINE",
"40 669 LINE",
"174 669 LINE",
"215 262 LINE",
"275 0 LINE"
);
},
{
closed = 1;
nodes = (
"185 0 LINE",
"172 258 LINE",
"133 619 LINE",
"40 619 LINE",
"40 0 LINE"
);
},
{
closed = 1;
nodes = (
"503 182 LINE",
"503 800 LINE",
"358 800 LINE",
"365 545 LINE",
"411 182 LINE"
);
}
);
width = 543;
},
{
anchors = (
{
name = bottom;
position = "{161, 0}";
},
{
name = top;
position = "{168, 800}";
}
);
layerId = "3D06B89B-468F-44E0-A3D7-A5BC6911123E";
paths = (
{
closed = 1;
nodes = (
"265 0 LINE",
"265 20 LINE",
"227 20 LINE",
"151 548 LINE",
"115 800 LINE",
"60 800 LINE",
"60 780 LINE",
"98 780 LINE",
"166 300 LINE",
"209 0 LINE"
);
},
{
closed = 1;
nodes = (
"80 0 LINE",
"80 297 LINE",
"80 750 LINE",
"60 750 LINE",
"60 0 LINE"
);
},
{
closed = 1;
nodes = (
"265 50 LINE",
"265 800 LINE",
"245 800 LINE",
"245 552 LINE",
"245 50 LINE"
);
}
);
width = 325;
},
{
anchors = (
{
name = bottom;
position = "{248, 0}";
},
{
name = top;
position = "{253, 800}";
}
);
associatedMasterId = "3B122060-26E0-4730-9241-82784E6CB359";
layerId = "38BBD077-E9B2-4963-980C-FE176A040DB7";
name = "{300, 10}";
paths = (
{
closed = 1;
nodes = (
"421 0 LINE",
"421 62 LINE",
"321 62 LINE",
"253 534 LINE",
"216 800 LINE",
"63 800 LINE",
"63 739 LINE",
"163 739 LINE",
"226 291 LINE",
"269 0 LINE"
);
},
{
closed = 1;
nodes = (
"130 0 LINE",
"127 304 LINE",
"127 703 LINE",
"63 703 LINE",
"63 0 LINE"
);
},
{
closed = 1;
nodes = (
"421 98 LINE",
"421 800 LINE",
"353 800 LINE",
"356 526 LINE",
"356 98 LINE"
);
}
);
width = 484;
},
{
anchors = (
{
name = bottom;
position = "{189, 0}";
},
{
name = top;
position = "{194, 800}";
}
);
associatedMasterId = "3D06B89B-468F-44E0-A3D7-A5BC6911123E";
layerId = "B51C1A58-7C4C-4F3C-8888-CC07038E49EF";
name = "{300, 72}";
paths = (
{
closed = 1;
nodes = (
"325 0 LINE",
"325 48 LINE",
"263 48 LINE",
"192 547 LINE",
"160 800 LINE",
"55 800 LINE",
"55 752 LINE",
"117 752 LINE",
"179 291 LINE",
"218 0 LINE"
);
},
{
closed = 1;
nodes = (
"106 0 LINE",
"103 300 LINE",
"103 720 LINE",
"55 720 LINE",
"55 0 LINE"
);
},
{
closed = 1;
nodes = (
"325 81 LINE",
"325 800 LINE",
"273 800 LINE",
"276 528 LINE",
"276 81 LINE"
);
}
);
width = 380;
}
);
leftKerningGroup = H;
rightKerningGroup = H;
unicode = 004E;
},
{
glyphname = Eng;
layers = (
{
components = (
{
name = N;
}
);
layerId = "3B122060-26E0-4730-9241-82784E6CB359";
paths = (
{
closed = 1;
nodes = (
"351 -202 OFFCURVE",
"375 -164 OFFCURVE",
"375 -98 CURVE SMOOTH",
"375 23 LINE",
"337 23 LINE",
"337 -100 LINE SMOOTH",
"337 -146 OFFCURVE",
"323 -167 OFFCURVE",
"261 -167 CURVE SMOOTH",
"234 -167 OFFCURVE",
"214 -166 OFFCURVE",
"199 -164 CURVE",
"199 -196 LINE",
"217 -200 OFFCURVE",
"247 -202 OFFCURVE",
"263 -202 CURVE SMOOTH"
);
}
);
width = 445;
},
{
components = (
{
name = N;
}
);
layerId = "1DFA7D5B-2E97-4B89-827F-FB43F8066DC1";
paths = (
{
closed = 1;
nodes = (
"487 -211 OFFCURVE",
"559 -160 OFFCURVE",
"559 -33 CURVE SMOOTH",
"559 92 LINE",
"428 92 LINE",
"428 -47 LINE SMOOTH",
"428 -83 OFFCURVE",
"387 -97 OFFCURVE",
"334 -97 CURVE SMOOTH",
"315 -97 OFFCURVE",
"279 -96 OFFCURVE",
"261 -95 CURVE",
"261 -204 LINE",
"285 -208 OFFCURVE",
"311 -211 OFFCURVE",
"334 -211 CURVE SMOOTH"
);
}
);
width = 599;
},
{
components = (
{
name = N;
}
);
layerId = "5013C991-8699-46CB-BB1C-82E334DBD38B";
paths = (
{
closed = 1;
nodes = (
"431 -211 OFFCURVE",
"503 -160 OFFCURVE",
"503 -33 CURVE SMOOTH",
"503 92 LINE",
"372 92 LINE",
"372 -47 LINE SMOOTH",
"372 -83 OFFCURVE",
"331 -97 OFFCURVE",
"278 -97 CURVE SMOOTH",
"259 -97 OFFCURVE",
"223 -96 OFFCURVE",
"205 -95 CURVE",
"205 -204 LINE",
"229 -208 OFFCURVE",
"255 -211 OFFCURVE",
"278 -211 CURVE SMOOTH"
);
}
);
width = 543;
},
{
components = (
{
name = N;
}
);
layerId = "3D06B89B-468F-44E0-A3D7-A5BC6911123E";
paths = (
{
closed = 1;
nodes = (
"244 -200 OFFCURVE",
"265 -174 OFFCURVE",
"265 -110 CURVE SMOOTH",
"265 11 LINE",
"245 11 LINE",
"245 -110 LINE SMOOTH",
"245 -165 OFFCURVE",
"230 -180 OFFCURVE",
"182 -180 CURVE SMOOTH",
"161 -180 OFFCURVE",
"145 -179 OFFCURVE",
"131 -176 CURVE",
"131 -195 LINE",
"144 -198 OFFCURVE",
"169 -200 OFFCURVE",
"184 -200 CURVE SMOOTH"
);
}
);
width = 325;
}
);
leftKerningGroup = H;
leftMetricsKey = N;
rightKerningGroup = H;
rightMetricsKey = N;
unicode = 014A;
},
{
glyphname = O;
layers = (
{
anchors = (
{
name = bottom;
position = "{191, 0}";
},
{
name = center;
position = "{191, 400}";
},
{
name = ogonek;
position = "{154, 0}";
},
{
name = top;
position = "{191, 800}";
},
{
name = topleft;
position = "{82, 800}";
},
{
name = topright;
position = "{326, 800}";
}
);
background = {
paths = (
{
closed = 1;
nodes = (
"235 -10 OFFCURVE",
"280 35 OFFCURVE",
"280 90 CURVE SMOOTH",
"280 710 LINE SMOOTH",
"280 765 OFFCURVE",
"235 810 OFFCURVE",
"180 810 CURVE SMOOTH",
"125 810 OFFCURVE",
"80 765 OFFCURVE",
"80 710 CURVE SMOOTH",
"80 90 LINE SMOOTH",
"80 35 OFFCURVE",
"125 -10 OFFCURVE",
"180 -10 CURVE SMOOTH"
);
},
{
closed = 1;
nodes = (
"136 10 OFFCURVE",
"100 46 OFFCURVE",
"100 90 CURVE SMOOTH",
"100 710 LINE SMOOTH",
"100 754 OFFCURVE",
"136 790 OFFCURVE",
"180 790 CURVE SMOOTH",
"224 790 OFFCURVE",
"260 754 OFFCURVE",
"260 710 CURVE SMOOTH",
"260 90 LINE SMOOTH",
"260 46 OFFCURVE",
"224 10 OFFCURVE",
"180 10 CURVE SMOOTH"
);
}
);
};
layerId = "3B122060-26E0-4730-9241-82784E6CB359";
paths = (
{
closed = 1;
nodes = (
"167 34.084 LINE",
"126.298 38.389 OFFCURVE",
"113.851 56.475 OFFCURVE",
"113 105 CURVE SMOOTH",
"109 351 OFFCURVE",
"109 461 OFFCURVE",
"113 694 CURVE SMOOTH",
"113.851 742.525 OFFCURVE",
"126.298 761.336 OFFCURVE",
"167 765.857 CURVE",
"167 803.975 LINE",
"101.375 797.945 OFFCURVE",
"73.897 764.901 OFFCURVE",
"73 694 CURVE SMOOTH",
"70 474 OFFCURVE",
"70 335 OFFCURVE",
"73 105 CURVE SMOOTH",
"73.897 34.099 OFFCURVE",
"101.375 1.861 OFFCURVE",
"167 -4.004 CURVE"
);
},
{
closed = 1;
nodes = (
"281.183 2.524 OFFCURVE",
"308.112 34.824 OFFCURVE",
"309 105 CURVE SMOOTH",
"312 335 OFFCURVE",
"312 474 OFFCURVE",
"309 694 CURVE SMOOTH",
"308.112 764.176 OFFCURVE",
"281.183 797.265 OFFCURVE",
"217 803.781 CURVE",
"217 765.62 LINE",
"256.111 760.704 OFFCURVE",
"268.163 741.721 OFFCURVE",
"269 694 CURVE SMOOTH",
"273 454 OFFCURVE",
"273 344 OFFCURVE",
"269 105 CURVE SMOOTH",
"268.163 57.279 OFFCURVE",
"256.111 38.997 OFFCURVE",
"217 34.309 CURVE",
"217 -3.816 LINE"
);
}
);
width = 380;
},
{
anchors = (
{
name = bottom;
position = "{264, 0}";
},
{
name = center;
position = "{264, 400}";
},
{
name = ogonek;
position = "{212.25, 0}";
},
{
name = top;
position = "{264, 800}";
},
{
name = topleft;
position = "{30, 800}";
},
{
name = topright;
position = "{497, 800}";
}
);
background = {
paths = (
{
closed = 1;
nodes = (
"260 -5 OFFCURVE",
"327 54 OFFCURVE",
"327 127 CURVE SMOOTH",
"327 675 LINE SMOOTH",
"327 746 OFFCURVE",
"260 805 OFFCURVE",
"170 805 CURVE SMOOTH",
"81 805 OFFCURVE",
"14 746 OFFCURVE",
"14 675 CURVE SMOOTH",
"14 127 LINE SMOOTH",
"14 54 OFFCURVE",
"81 -5 OFFCURVE",
"170 -5 CURVE SMOOTH"
);
},
{
closed = 1;
nodes = (
"144 102 OFFCURVE",
"124 118 OFFCURVE",
"124 140 CURVE SMOOTH",
"124 661 LINE SMOOTH",
"124 682 OFFCURVE",
"144 698 OFFCURVE",
"170 698 CURVE SMOOTH",
"197 698 OFFCURVE",
"217 682 OFFCURVE",
"217 661 CURVE SMOOTH",
"217 140 LINE SMOOTH",
"217 118 OFFCURVE",
"197 102 OFFCURVE",
"170 102 CURVE SMOOTH"
);
}
);
};
layerId = "1DFA7D5B-2E97-4B89-827F-FB43F8066DC1";
paths = (
{
closed = 1;
nodes = (
"232 116.351 LINE",
"206.336 124.666 OFFCURVE",
"194.737 145.415 OFFCURVE",
"194 183 CURVE SMOOTH",
"187 329 OFFCURVE",
"187 472 OFFCURVE",
"194 618 CURVE SMOOTH",
"194.737 654.848 OFFCURVE",
"206.336 675.403 OFFCURVE",
"232 683.667 CURVE",
"232 809.164 LINE",
"99.531 801.66 OFFCURVE",
"44.791 743.06 OFFCURVE",
"42 610 CURVE SMOOTH",
"39 460 OFFCURVE",
"39 341 OFFCURVE",
"42 191 CURVE SMOOTH",
"44.791 57.01 OFFCURVE",
"99.531 -1.655 OFFCURVE",
"232 -9.164 CURVE"
);
},
{
closed = 1;
nodes = (
"424.487 -0.566 OFFCURVE",
"478.391 58.246 OFFCURVE",
"483 191 CURVE SMOOTH",
"489 340 OFFCURVE",
"489 459 OFFCURVE",
"483 610 CURVE SMOOTH",
"478.391 741.832 OFFCURVE",
"424.487 800.572 OFFCURVE",
"297 808.943 CURVE",
"297 683.931 LINE",
"322.966 675.846 OFFCURVE",
"334.255 655.247 OFFCURVE",
"335 618 CURVE SMOOTH",
"342 472 OFFCURVE",
"342 329 OFFCURVE",
"335 183 CURVE SMOOTH",
"334.255 145.008 OFFCURVE",
"322.966 124.219 OFFCURVE",
"297 116.086 CURVE",
"297 -8.943 LINE"
);
}
);
width = 527;
},
{
anchors = (
{
name = bottom;
position = "{254, 0}";
},
{
name = center;
position = "{254, 400}";
},
{
name = ogonek;
position = "{198, 0}";
},
{
name = top;
position = "{254, 800}";
},
{
name = topleft;
position = "{20, 800}";
},
{
name = topright;
position = "{487, 800}";
}
);
background = {
paths = (
{
closed = 1;
nodes = (
"250 -5 OFFCURVE",
"317 54 OFFCURVE",
"317 127 CURVE SMOOTH",
"317 675 LINE SMOOTH",
"317 746 OFFCURVE",
"250 805 OFFCURVE",
"160 805 CURVE SMOOTH",
"71 805 OFFCURVE",
"4 746 OFFCURVE",
"4 675 CURVE SMOOTH",
"4 127 LINE SMOOTH",
"4 54 OFFCURVE",
"71 -5 OFFCURVE",
"160 -5 CURVE SMOOTH"
);
},
{
closed = 1;
nodes = (
"134 102 OFFCURVE",
"114 118 OFFCURVE",
"114 140 CURVE SMOOTH",
"114 661 LINE SMOOTH",
"114 682 OFFCURVE",
"134 698 OFFCURVE",
"160 698 CURVE SMOOTH",
"187 698 OFFCURVE",
"207 682 OFFCURVE",
"207 661 CURVE SMOOTH",
"207 140 LINE SMOOTH",
"207 118 OFFCURVE",
"187 102 OFFCURVE",
"160 102 CURVE SMOOTH"
);
}
);
};
layerId = "5013C991-8699-46CB-BB1C-82E334DBD38B";
paths = (
{
closed = 1;
nodes = (
"229 115.204 LINE",
"206.471 121.732 OFFCURVE",
"193.755 138.094 OFFCURVE",
"193 163 CURVE SMOOTH",
"187 299 OFFCURVE",
"187 502 OFFCURVE",
"193 638 CURVE SMOOTH",
"193.755 662.151 OFFCURVE",
"206.471 678.328 OFFCURVE",
"229 684.81 CURVE",
"229 809.454 LINE",
"99.32 803.314 OFFCURVE",
"44.831 744.954 OFFCURVE",
"42 610 CURVE SMOOTH",
"39 479 OFFCURVE",
"39 322 OFFCURVE",
"42 191 CURVE SMOOTH",
"44.831 55.102 OFFCURVE",
"99.32 -3.311 OFFCURVE",
"229 -9.453 CURVE"
);
},
{
closed = 1;
nodes = (
"406.901 -2.697 OFFCURVE",
"458.306 55.814 OFFCURVE",
"463 191 CURVE SMOOTH",
"468 322 OFFCURVE",
"468 477 OFFCURVE",
"463 610 CURVE SMOOTH",
"458.306 744.247 OFFCURVE",
"406.901 802.7 OFFCURVE",
"279 809.353 CURVE",
"279 684.766 LINE",
"301.153 678.255 OFFCURVE",
"313.247 662.096 OFFCURVE",
"314 638 CURVE SMOOTH",
"320 502 OFFCURVE",
"320 299 OFFCURVE",
"314 163 CURVE SMOOTH",
"313.242 137.995 OFFCURVE",
"301.576 121.602 OFFCURVE",
"279 115.127 CURVE",
"279 -9.353 LINE"
);
}
);
width = 507;
},
{
anchors = (
{
name = bottom;
position = "{150, 0}";
},
{
name = center;
position = "{151, 400}";
},
{
name = ogonek;
position = "{121, 0}";
},
{
name = top;
position = "{150, 800}";
},
{
name = topleft;
position = "{66, 800}";
},
{
name = topright;
position = "{258, 800}";
}
);
background = {
paths = (
{
closed = 1;
nodes = (
"205 -10 OFFCURVE",
"250 35 OFFCURVE",
"250 90 CURVE SMOOTH",
"250 710 LINE SMOOTH",
"250 765 OFFCURVE",
"205 810 OFFCURVE",
"150 810 CURVE SMOOTH",
"95 810 OFFCURVE",
"50 765 OFFCURVE",
"50 710 CURVE SMOOTH",
"50 90 LINE SMOOTH",
"50 35 OFFCURVE",
"95 -10 OFFCURVE",
"150 -10 CURVE SMOOTH"
);
},
{
closed = 1;
nodes = (
"106 10 OFFCURVE",
"70 46 OFFCURVE",
"70 90 CURVE SMOOTH",
"70 710 LINE SMOOTH",
"70 754 OFFCURVE",
"106 790 OFFCURVE",
"150 790 CURVE SMOOTH",
"194 790 OFFCURVE",
"230 754 OFFCURVE",
"230 710 CURVE SMOOTH",
"230 90 LINE SMOOTH",
"230 46 OFFCURVE",
"194 10 OFFCURVE",
"150 10 CURVE SMOOTH"
);
}
);
};
layerId = "3D06B89B-468F-44E0-A3D7-A5BC6911123E";
paths = (
{
closed = 1;
nodes = (
"131 16.167 LINE",
"96.339 20.789 OFFCURVE",
"83.853 39.806 OFFCURVE",
"83 85 CURVE SMOOTH",
"79 314 OFFCURVE",
"78 494 OFFCURVE",
"83 714 CURVE SMOOTH",
"83.853 760.046 OFFCURVE",
"96.339 779.189 OFFCURVE",
"131 783.83 CURVE",
"131 803.857 LINE",
"83.577 798.207 OFFCURVE",
"64.88 771.209 OFFCURVE",
"64 714 CURVE SMOOTH",
"60 489 OFFCURVE",
"60 310 OFFCURVE",
"64 85 CURVE SMOOTH",
"64.88 28.671 OFFCURVE",
"83.577 1.779 OFFCURVE",
"131 -3.859 CURVE"
);
},
{
closed = 1;
nodes = (
"220.082 1.023 OFFCURVE",
"240 27.874 OFFCURVE",
"240 85 CURVE SMOOTH",
"242 310 OFFCURVE",
"242 489 OFFCURVE",
"240 714 CURVE SMOOTH",
"240 772.019 OFFCURVE",
"220.082 798.965 OFFCURVE",
"171 804.084 CURVE",
"171 783.83 LINE",
"205 778 OFFCURVE",
"218 760 OFFCURVE",
"219 714 CURVE SMOOTH",
"222 494 OFFCURVE",
"224 314 OFFCURVE",
"219 85 CURVE SMOOTH",
"218.147 39.806 OFFCURVE",
"205.661 20.789 OFFCURVE",
"171 16.167 CURVE",
"171 -4.085 LINE"
);
}
);
width = 300;
}
);
leftKerningGroup = O;
rightKerningGroup = O;
unicode = 004F;
},
{
glyphname = Oslash;
layers = (
{
components = (
{
name = O;
}
);
layerId = "3B122060-26E0-4730-9241-82784E6CB359";
paths = (
{
closed = 1;
nodes = (
"225 398 LINE",
"225 488 LINE",
"157 341 LINE",
"157 251 LINE"
);
}
);
width = 380;
},
{
components = (
{
name = O;
}
);
layerId = "1DFA7D5B-2E97-4B89-827F-FB43F8066DC1";
paths = (
{
closed = 1;
nodes = (
"308 332 LINE",
"308 518 LINE",
"220 398 LINE",
"220 212 LINE"
);
}
);
width = 527;
},
{
components = (
{
name = O;
}
);
layerId = "5013C991-8699-46CB-BB1C-82E334DBD38B";
paths = (
{
closed = 1;
nodes = (
"290 338 LINE",
"290 524 LINE",
"218 425 LINE",
"218 239 LINE"
);
}
);
width = 507;
},
{
components = (
{
name = O;
}
);
layerId = "3D06B89B-468F-44E0-A3D7-A5BC6911123E";
paths = (
{
closed = 1;
nodes = (
"199 454 LINE",
"199 500 LINE",
"103 313 LINE",
"103 267 LINE"
);
}
);
width = 300;
}
);
leftKerningGroup = O;
leftMetricsKey = O;
rightKerningGroup = O;
rightMetricsKey = O;
unicode = 00D8;
},
{
glyphname = P;
layers = (
{
layerId = "3B122060-26E0-4730-9241-82784E6CB359";
paths = (
{
closed = 1;
nodes = (
"110 0 LINE",
"110 800 LINE",
"70 800 LINE",
"70 0 LINE"
);
},
{
closed = 1;
nodes = (
"181 345 LINE SMOOTH",
"254 345 OFFCURVE",
"285 372 OFFCURVE",
"288 438 CURVE SMOOTH",
"292 522 OFFCURVE",
"291 599 OFFCURVE",
"288 707 CURVE SMOOTH",
"286 773 OFFCURVE",
"255 800 OFFCURVE",
"182 800 CURVE SMOOTH",
"156 800 LINE",
"156 762 LINE",
"182 762 LINE SMOOTH",
"232 762 OFFCURVE",
"247 750 OFFCURVE",
"248 707 CURVE SMOOTH",
"252 589 OFFCURVE",
"252 531 OFFCURVE",
"248 438 CURVE SMOOTH",
"246 395 OFFCURVE",
"233 383 OFFCURVE",
"181 383 CURVE SMOOTH",
"156 383 LINE",
"156 345 LINE"
);
}
);
width = 331;
},
{
layerId = "1DFA7D5B-2E97-4B89-827F-FB43F8066DC1";
paths = (
{
closed = 1;
nodes = (
"190 0 LINE",
"190 800 LINE",
"40 800 LINE",
"40 0 LINE"
);
},
{
closed = 1;
nodes = (
"257 254 LINE SMOOTH",
"406 254 OFFCURVE",
"467 310 OFFCURVE",
"472 449 CURVE SMOOTH",
"474 505 OFFCURVE",
"474 549 OFFCURVE",
"472 605 CURVE SMOOTH",
"467 744 OFFCURVE",
"406 800 OFFCURVE",
"257 800 CURVE SMOOTH",
"256 800 LINE",
"256 668 LINE",
"257 668 LINE SMOOTH",
"299 668 OFFCURVE",
"320 648 OFFCURVE",
"322 613 CURVE SMOOTH",
"325 564 OFFCURVE",
"325 490 OFFCURVE",
"322 441 CURVE SMOOTH",
"320 406 OFFCURVE",
"299 386 OFFCURVE",
"257 386 CURVE SMOOTH",
"256 386 LINE",
"256 254 LINE"
);
}
);
width = 493;
},
{
layerId = "5013C991-8699-46CB-BB1C-82E334DBD38B";
paths = (
{
closed = 1;
nodes = (
"190 0 LINE",
"190 800 LINE",
"40 800 LINE",
"40 0 LINE"
);
},
{
closed = 1;
nodes = (
"241 254 LINE SMOOTH",
"390 254 OFFCURVE",
"451 310 OFFCURVE",
"456 449 CURVE SMOOTH",
"458 505 OFFCURVE",
"458 549 OFFCURVE",
"456 605 CURVE SMOOTH",
"451 744 OFFCURVE",
"390 800 OFFCURVE",
"241 800 CURVE SMOOTH",
"240 800 LINE",
"240 668 LINE",
"241 668 LINE SMOOTH",
"283 668 OFFCURVE",
"304 648 OFFCURVE",
"306 613 CURVE SMOOTH",
"309 564 OFFCURVE",
"309 490 OFFCURVE",
"306 441 CURVE SMOOTH",
"304 406 OFFCURVE",
"283 386 OFFCURVE",
"241 386 CURVE SMOOTH",
"240 386 LINE",
"240 254 LINE"
);
}
);
width = 477;
},
{
layerId = "3D06B89B-468F-44E0-A3D7-A5BC6911123E";
paths = (
{
closed = 1;
nodes = (
"80 0 LINE",
"80 800 LINE",
"60 800 LINE",
"60 0 LINE"
);
},
{
closed = 1;
nodes = (
"141 345 LINE SMOOTH",
"200 345 OFFCURVE",
"225 372 OFFCURVE",
"228 438 CURVE SMOOTH",
"232 522 OFFCURVE",
"232 599 OFFCURVE",
"228 707 CURVE SMOOTH",
"225 773 OFFCURVE",
"200 800 OFFCURVE",
"142 800 CURVE SMOOTH",
"120 800 LINE",
"120 780 LINE",
"142 780 LINE SMOOTH",
"188 780 OFFCURVE",
"206 759 OFFCURVE",
"208 707 CURVE SMOOTH",
"211 611 OFFCURVE",
"211 534 OFFCURVE",
"208 438 CURVE SMOOTH",
"206 386 OFFCURVE",
"188 365 OFFCURVE",
"141 365 CURVE SMOOTH",
"120 365 LINE",
"120 345 LINE"
);
}
);
width = 261;
}
);
leftKerningGroup = H;
rightKerningGroup = P;
unicode = 0050;
},
{
glyphname = Thorn;
layers = (
{
layerId = "3B122060-26E0-4730-9241-82784E6CB359";
paths = (
{
closed = 1;
nodes = (
"161 185 LINE SMOOTH",
"234 185 OFFCURVE",
"265 212 OFFCURVE",
"268 278 CURVE SMOOTH",
"272 362 OFFCURVE",
"271 439 OFFCURVE",
"268 547 CURVE SMOOTH",
"266 613 OFFCURVE",
"235 640 OFFCURVE",
"162 640 CURVE SMOOTH",
"146 640 LINE",
"146 602 LINE",
"162 602 LINE SMOOTH",
"212 602 OFFCURVE",
"226 589 OFFCURVE",
"228 547 CURVE SMOOTH",
"233 441 OFFCURVE",
"231 384 OFFCURVE",
"228 278 CURVE SMOOTH",
"227 236 OFFCURVE",
"212 223 OFFCURVE",
"161 223 CURVE SMOOTH",
"146 223 LINE",
"146 185 LINE"
);
},
{
closed = 1;
nodes = (
"100 0 LINE",
"100 800 LINE",
"60 800 LINE",
"60 0 LINE"
);
}
);
width = 301;
},
{
layerId = "1DFA7D5B-2E97-4B89-827F-FB43F8066DC1";
paths = (
{
closed = 1;
nodes = (
"263 134 LINE SMOOTH",
"412 134 OFFCURVE",
"473 190 OFFCURVE",
"478 329 CURVE SMOOTH",
"480 385 OFFCURVE",
"480 429 OFFCURVE",
"478 485 CURVE SMOOTH",
"473 624 OFFCURVE",
"412 680 OFFCURVE",
"263 680 CURVE SMOOTH",
"256 680 LINE",
"256 548 LINE",
"263 548 LINE SMOOTH",
"305 548 OFFCURVE",
"326 528 OFFCURVE",
"328 493 CURVE SMOOTH",
"331 444 OFFCURVE",
"331 370 OFFCURVE",
"328 321 CURVE SMOOTH",
"326 286 OFFCURVE",
"305 266 OFFCURVE",
"263 266 CURVE SMOOTH",
"256 266 LINE",
"256 134 LINE"
);
},
{
closed = 1;
nodes = (
"190 0 LINE",
"190 800 LINE",
"40 800 LINE",
"40 0 LINE"
);
}
);
width = 500;
},
{
layerId = "5013C991-8699-46CB-BB1C-82E334DBD38B";
paths = (
{
closed = 1;
nodes = (
"243 134 LINE SMOOTH",
"392 134 OFFCURVE",
"453 190 OFFCURVE",
"458 329 CURVE SMOOTH",
"460 385 OFFCURVE",
"460 429 OFFCURVE",
"458 485 CURVE SMOOTH",
"453 624 OFFCURVE",
"392 680 OFFCURVE",
"243 680 CURVE SMOOTH",
"240 680 LINE",
"240 548 LINE",
"243 548 LINE SMOOTH",
"285 548 OFFCURVE",
"306 528 OFFCURVE",
"308 493 CURVE SMOOTH",
"311 444 OFFCURVE",
"311 370 OFFCURVE",
"308 321 CURVE SMOOTH",
"306 286 OFFCURVE",
"285 266 OFFCURVE",
"243 266 CURVE SMOOTH",
"240 266 LINE",
"240 134 LINE"
);
},
{
closed = 1;
nodes = (
"190 0 LINE",
"190 800 LINE",
"40 800 LINE",
"40 0 LINE"
);
}
);
width = 479;
},
{
layerId = "3D06B89B-468F-44E0-A3D7-A5BC6911123E";
paths = (
{
closed = 1;
nodes = (
"141 185 LINE SMOOTH",
"200 185 OFFCURVE",
"225 212 OFFCURVE",
"228 278 CURVE SMOOTH",
"232 362 OFFCURVE",
"231 439 OFFCURVE",
"228 547 CURVE SMOOTH",
"226 613 OFFCURVE",
"200 640 OFFCURVE",
"142 640 CURVE SMOOTH",
"120 640 LINE",
"120 620 LINE",
"142 620 LINE SMOOTH",
"188 620 OFFCURVE",
"206 599 OFFCURVE",
"208 547 CURVE SMOOTH",
"212 451 OFFCURVE",
"212 374 OFFCURVE",
"208 278 CURVE SMOOTH",
"206 226 OFFCURVE",
"188 205 OFFCURVE",
"141 205 CURVE SMOOTH",
"120 205 LINE",
"120 185 LINE"
);
},
{
closed = 1;
nodes = (
"80 0 LINE",
"80 800 LINE",
"60 800 LINE",
"60 0 LINE"
);
}
);
width = 261;
}
);
leftKerningGroup = H;
rightKerningGroup = P;
unicode = 00DE;
},
{
glyphname = Q;
layers = (
{
background = {
paths = (
{
closed = 1;
nodes = (
"204 -5 OFFCURVE",
"229 21 OFFCURVE",
"229 85 CURVE SMOOTH",
"231 310 OFFCURVE",
"231 489 OFFCURVE",
"229 714 CURVE SMOOTH",
"229 779 OFFCURVE",
"204 805 OFFCURVE",
"141 805 CURVE SMOOTH",
"78 805 OFFCURVE",
"53 779 OFFCURVE",
"53 714 CURVE SMOOTH",
"51 489 OFFCURVE",
"51 310 OFFCURVE",
"53 85 CURVE SMOOTH",
"53 21 OFFCURVE",
"78 -5 OFFCURVE",
"141 -5 CURVE SMOOTH"
);
},
{
closed = 1;
nodes = (
"94 15 OFFCURVE",
"74 35 OFFCURVE",
"73 85 CURVE SMOOTH",
"70 310 OFFCURVE",
"70 489 OFFCURVE",
"73 714 CURVE SMOOTH",
"74 765 OFFCURVE",
"94 785 OFFCURVE",
"141 785 CURVE SMOOTH",
"188 785 OFFCURVE",
"208 765 OFFCURVE",
"209 714 CURVE SMOOTH",
"212 489 OFFCURVE",
"212 310 OFFCURVE",
"209 85 CURVE SMOOTH",
"208 35 OFFCURVE",
"188 15 OFFCURVE",
"141 15 CURVE SMOOTH"
);
}
);
};
layerId = "3B122060-26E0-4730-9241-82784E6CB359";
paths = (
{
closed = 1;
nodes = (
"73.897 34.099 OFFCURVE",
"101.375 1.861 OFFCURVE",
"167 -4.004 CURVE",
"167 34.084 LINE",
"126.298 38.389 OFFCURVE",
"113.851 56.475 OFFCURVE",
"113 105 CURVE SMOOTH",
"109 351 OFFCURVE",
"109 461 OFFCURVE",
"113 694 CURVE SMOOTH",
"113.851 742.525 OFFCURVE",
"126.298 761.336 OFFCURVE",
"167 765.857 CURVE",
"167 803.975 LINE",
"101.375 797.945 OFFCURVE",
"73.897 764.901 OFFCURVE",
"73 694 CURVE SMOOTH",
"70 474 OFFCURVE",
"70 335 OFFCURVE",
"73 105 CURVE SMOOTH"
);
},
{
closed = 1;
nodes = (
"178 -72 OFFCURVE",
"199 -90 OFFCURVE",
"244 -87 CURVE",
"244 -51 LINE",
"224 -53 OFFCURVE",
"216 -47 OFFCURVE",
"212 -25 CURVE",
"172 -25 LINE"
);
},
{
closed = 1;
nodes = (
"281.183 2.524 OFFCURVE",
"308.112 34.824 OFFCURVE",
"309 105 CURVE SMOOTH",
"312 335 OFFCURVE",
"312 474 OFFCURVE",
"309 694 CURVE SMOOTH",
"308.112 764.176 OFFCURVE",
"281.183 797.265 OFFCURVE",
"217 803.781 CURVE",
"217 765.62 LINE",
"256.111 760.704 OFFCURVE",
"268.163 741.721 OFFCURVE",
"269 694 CURVE SMOOTH",
"273 454 OFFCURVE",
"273 344 OFFCURVE",
"269 105 CURVE SMOOTH",
"268.163 57.279 OFFCURVE",
"256.111 38.997 OFFCURVE",
"217 34.309 CURVE",
"217 -3.816 LINE"
);
}
);
width = 381;
},
{
background = {
paths = (
{
closed = 1;
nodes = (
"390 -10 OFFCURVE",
"450 47 OFFCURVE",
"453 191 CURVE SMOOTH",
"456 340 OFFCURVE",
"456 459 OFFCURVE",
"453 610 CURVE SMOOTH",
"450 753 OFFCURVE",
"390 810 OFFCURVE",
"243 810 CURVE SMOOTH",
"96 810 OFFCURVE",
"35 753 OFFCURVE",
"32 610 CURVE SMOOTH",
"29 460 OFFCURVE",
"29 341 OFFCURVE",
"32 191 CURVE SMOOTH",
"35 47 OFFCURVE",
"96 -10 OFFCURVE",
"243 -10 CURVE SMOOTH"
);
},
{
closed = 1;
nodes = (
"205 112 OFFCURVE",
"183 130 OFFCURVE",
"182 163 CURVE SMOOTH",
"176 299 OFFCURVE",
"176 502 OFFCURVE",
"182 638 CURVE SMOOTH",
"183 670 OFFCURVE",
"205 688 OFFCURVE",
"243 688 CURVE SMOOTH",
"282 688 OFFCURVE",
"302 670 OFFCURVE",
"303 638 CURVE SMOOTH",
"306 502 OFFCURVE",
"306 299 OFFCURVE",
"303 163 CURVE SMOOTH",
"302 130 OFFCURVE",
"282 112 OFFCURVE",
"243 112 CURVE SMOOTH"
);
}
);
};
layerId = "1DFA7D5B-2E97-4B89-827F-FB43F8066DC1";
paths = (
{
closed = 1;
nodes = (
"44.791 57.01 OFFCURVE",
"99.531 -1.655 OFFCURVE",
"232 -9.164 CURVE",
"232 116.351 LINE",
"206.336 124.666 OFFCURVE",
"194.737 145.415 OFFCURVE",
"194 183 CURVE SMOOTH",
"187 329 OFFCURVE",
"187 472 OFFCURVE",
"194 618 CURVE SMOOTH",
"194.737 654.848 OFFCURVE",
"206.336 675.403 OFFCURVE",
"232 683.667 CURVE",
"232 809.164 LINE",
"99.531 801.66 OFFCURVE",
"44.791 743.06 OFFCURVE",
"42 610 CURVE SMOOTH",
"39 460 OFFCURVE",
"39 341 OFFCURVE",
"42 191 CURVE SMOOTH"
);
},
{
closed = 1;
nodes = (
"212 -132 OFFCURVE",
"274 -174 OFFCURVE",
"402 -164 CURVE",
"402 -44 LINE",
"370 -48 OFFCURVE",
"349 -39 OFFCURVE",
"340 -19 CURVE",
"196 -19 LINE"
);
},
{
closed = 1;
nodes = (
"424.487 -0.566 OFFCURVE",
"478.391 58.246 OFFCURVE",
"483 191 CURVE SMOOTH",
"489 340 OFFCURVE",
"489 459 OFFCURVE",
"483 610 CURVE SMOOTH",
"478.391 741.832 OFFCURVE",
"424.487 800.572 OFFCURVE",
"297 808.943 CURVE",
"297 683.931 LINE",
"322.966 675.846 OFFCURVE",
"334.255 655.247 OFFCURVE",
"335 618 CURVE SMOOTH",
"342 472 OFFCURVE",
"342 329 OFFCURVE",
"335 183 CURVE SMOOTH",
"334.255 145.008 OFFCURVE",
"322.966 124.219 OFFCURVE",
"297 116.086 CURVE",
"297 -8.943 LINE"
);
}
);
width = 527;
},
{
background = {
paths = (
{
closed = 1;
nodes = (
"390 -10 OFFCURVE",
"450 47 OFFCURVE",
"453 191 CURVE SMOOTH",
"456 340 OFFCURVE",
"456 459 OFFCURVE",
"453 610 CURVE SMOOTH",
"450 753 OFFCURVE",
"390 810 OFFCURVE",
"243 810 CURVE SMOOTH",
"96 810 OFFCURVE",
"35 753 OFFCURVE",
"32 610 CURVE SMOOTH",
"29 460 OFFCURVE",
"29 341 OFFCURVE",
"32 191 CURVE SMOOTH",
"35 47 OFFCURVE",
"96 -10 OFFCURVE",
"243 -10 CURVE SMOOTH"
);
},
{
closed = 1;
nodes = (
"205 112 OFFCURVE",
"183 130 OFFCURVE",
"182 163 CURVE SMOOTH",
"176 299 OFFCURVE",
"176 502 OFFCURVE",
"182 638 CURVE SMOOTH",
"183 670 OFFCURVE",
"205 688 OFFCURVE",
"243 688 CURVE SMOOTH",
"282 688 OFFCURVE",
"302 670 OFFCURVE",
"303 638 CURVE SMOOTH",
"306 502 OFFCURVE",
"306 299 OFFCURVE",
"303 163 CURVE SMOOTH",
"302 130 OFFCURVE",
"282 112 OFFCURVE",
"243 112 CURVE SMOOTH"
);
}
);
};
layerId = "5013C991-8699-46CB-BB1C-82E334DBD38B";
paths = (
{
closed = 1;
nodes = (
"44.831 55.102 OFFCURVE",
"99.32 -3.311 OFFCURVE",
"229 -9.453 CURVE",
"229 115.204 LINE",
"206.471 121.732 OFFCURVE",
"193.755 138.094 OFFCURVE",
"193 163 CURVE SMOOTH",
"187 299 OFFCURVE",
"187 502 OFFCURVE",
"193 638 CURVE SMOOTH",
"193.755 662.151 OFFCURVE",
"206.471 678.328 OFFCURVE",
"229 684.81 CURVE",
"229 809.454 LINE",
"99.32 803.314 OFFCURVE",
"44.831 744.954 OFFCURVE",
"42 610 CURVE SMOOTH",
"39 479 OFFCURVE",
"39 322 OFFCURVE",
"42 191 CURVE SMOOTH"
);
},
{
closed = 1;
nodes = (
"209.102 -128.018 OFFCURVE",
"271.186 -168.415 OFFCURVE",
"397 -159 CURVE",
"397 -39 LINE",
"367.371 -42.841 OFFCURVE",
"347.376 -35.844 OFFCURVE",
"337.841 -19 CURVE",
"191.312 -19 LINE"
);
},
{
closed = 1;
nodes = (
"406.901 -2.697 OFFCURVE",
"458.306 55.814 OFFCURVE",
"463 191 CURVE SMOOTH",
"468 322 OFFCURVE",
"468 477 OFFCURVE",
"463 610 CURVE SMOOTH",
"458.306 744.247 OFFCURVE",
"406.901 802.7 OFFCURVE",
"279 809.353 CURVE",
"279 684.766 LINE",
"301.153 678.255 OFFCURVE",
"313.247 662.096 OFFCURVE",
"314 638 CURVE SMOOTH",
"320 502 OFFCURVE",
"320 299 OFFCURVE",
"314 163 CURVE SMOOTH",
"313.242 137.995 OFFCURVE",
"301.576 121.602 OFFCURVE",
"279 115.127 CURVE",
"279 -9.353 LINE"
);
}
);
width = 507;
},
{
background = {
paths = (
{
closed = 1;
nodes = (
"204 -5 OFFCURVE",
"229 21 OFFCURVE",
"229 85 CURVE SMOOTH",
"231 310 OFFCURVE",
"231 489 OFFCURVE",
"229 714 CURVE SMOOTH",
"229 779 OFFCURVE",
"204 805 OFFCURVE",
"141 805 CURVE SMOOTH",
"78 805 OFFCURVE",
"53 779 OFFCURVE",
"53 714 CURVE SMOOTH",
"51 489 OFFCURVE",
"51 310 OFFCURVE",
"53 85 CURVE SMOOTH",
"53 21 OFFCURVE",
"78 -5 OFFCURVE",
"141 -5 CURVE SMOOTH"
);
},
{
closed = 1;
nodes = (
"94 15 OFFCURVE",
"74 35 OFFCURVE",
"73 85 CURVE SMOOTH",
"70 310 OFFCURVE",
"70 489 OFFCURVE",
"73 714 CURVE SMOOTH",
"74 765 OFFCURVE",
"94 785 OFFCURVE",
"141 785 CURVE SMOOTH",
"188 785 OFFCURVE",
"208 765 OFFCURVE",
"209 714 CURVE SMOOTH",
"212 489 OFFCURVE",
"212 310 OFFCURVE",
"209 85 CURVE SMOOTH",
"208 35 OFFCURVE",
"188 15 OFFCURVE",
"141 15 CURVE SMOOTH"
);
}
);
};
layerId = "3D06B89B-468F-44E0-A3D7-A5BC6911123E";
paths = (
{
closed = 1;
nodes = (
"64.88 28.671 OFFCURVE",
"83.577 1.779 OFFCURVE",
"131 -3.859 CURVE",
"131 16.167 LINE",
"96.339 20.789 OFFCURVE",
"83.853 39.806 OFFCURVE",
"83 85 CURVE SMOOTH",
"79 314 OFFCURVE",
"78 494 OFFCURVE",
"83 714 CURVE SMOOTH",
"83.853 760.046 OFFCURVE",
"96.339 779.189 OFFCURVE",
"131 783.83 CURVE",
"131 803.857 LINE",
"83.577 798.207 OFFCURVE",
"64.88 771.209 OFFCURVE",
"64 714 CURVE SMOOTH",
"60 489 OFFCURVE",
"60 310 OFFCURVE",
"64 85 CURVE SMOOTH"
);
},
{
closed = 1;
nodes = (
"148 -64 OFFCURVE",
"170 -79 OFFCURVE",
"211 -77 CURVE",
"211 -59 LINE",
"183 -61 OFFCURVE",
"168 -51 OFFCURVE",
"161 -25 CURVE",
"141 -25 LINE"
);
},
{
closed = 1;
nodes = (
"220.082 1.023 OFFCURVE",
"240 27.874 OFFCURVE",
"240 85 CURVE SMOOTH",
"242 310 OFFCURVE",
"242 489 OFFCURVE",
"240 714 CURVE SMOOTH",
"240 772.019 OFFCURVE",
"220.082 798.965 OFFCURVE",
"171 804.084 CURVE",
"171 783.83 LINE",
"205.661 779.189 OFFCURVE",
"218.147 760.046 OFFCURVE",
"219 714 CURVE SMOOTH",
"222 494 OFFCURVE",
"224 314 OFFCURVE",
"219 85 CURVE SMOOTH",
"218.147 39.806 OFFCURVE",
"205.661 20.789 OFFCURVE",
"171 16.167 CURVE",
"171 -4.085 LINE"
);
}
);
width = 300;
}
);
leftKerningGroup = O;
rightKerningGroup = O;
unicode = 0051;
},
{
glyphname = R;
layers = (
{
anchors = (
{
name = bottom;
position = "{188, 0}";
},
{
name = top;
position = "{182, 800}";
}
);
background = {
paths = (
{
closed = 1;
nodes = (
"159 378 LINE SMOOTH",
"219 378 OFFCURVE",
"244 400 OFFCURVE",
"246 462 CURVE SMOOTH",
"249 533 OFFCURVE",
"249 603 OFFCURVE",
"246 707 CURVE SMOOTH",
"244 773 OFFCURVE",
"219 800 OFFCURVE",
"160 800 CURVE SMOOTH",
"91 800 LINE",
"91 780 LINE",
"160 780 LINE SMOOTH",
"205 780 OFFCURVE",
"224 759 OFFCURVE",
"226 707 CURVE SMOOTH",
"229 619 OFFCURVE",
"229 548 OFFCURVE",
"226 460 CURVE SMOOTH",
"224 408 OFFCURVE",
"205 387 OFFCURVE",
"159 387 CURVE SMOOTH",
"95 387 LINE",
"95 378 LINE"
);
},
{
closed = 1;
nodes = (
"249 0 LINE",
"250 69 OFFCURVE",
"249 153 OFFCURVE",
"248 294 CURVE SMOOTH",
"247 355 OFFCURVE",
"222 377 OFFCURVE",
"162 377 CURVE SMOOTH",
"91 377 LINE",
"91 367 LINE",
"162 367 LINE SMOOTH",
"208 367 OFFCURVE",
"227 346 OFFCURVE",
"228 294 CURVE SMOOTH",
"230 200 OFFCURVE",
"230 116 OFFCURVE",
"229 0 CURVE"
);
},
{
closed = 1;
nodes = (
"100 0 LINE",
"100 800 LINE",
"80 800 LINE",
"80 0 LINE"
);
},
{
closed = 1;
nodes = (
"205 370 LINE",
"205 387 LINE",
"95 387 LINE",
"95 370 LINE"
);
}
);
};
layerId = "3B122060-26E0-4730-9241-82784E6CB359";
paths = (
{
closed = 1;
nodes = (
"315 0 LINE",
"241 332 LINE",
"278 343 OFFCURVE",
"295 370 OFFCURVE",
"297 418 CURVE SMOOTH",
"301 508 OFFCURVE",
"301 591 OFFCURVE",
"297 707 CURVE SMOOTH",
"295 773 OFFCURVE",
"264 800 OFFCURVE",
"191 800 CURVE SMOOTH",
"156 800 LINE",
"156 762 LINE",
"191 762 LINE SMOOTH",
"241 762 OFFCURVE",
"255 750 OFFCURVE",
"257 707 CURVE SMOOTH",
"262 593 OFFCURVE",
"260 532 OFFCURVE",
"257 418 CURVE SMOOTH",
"256 376 OFFCURVE",
"241 364 OFFCURVE",
"190 364 CURVE SMOOTH",
"160 364 LINE",
"160 326 LINE",
"200 326 LINE",
"273 0 LINE"
);
},
{
closed = 1;
nodes = (
"110 0 LINE",
"110 800 LINE",
"70 800 LINE",
"70 0 LINE"
);
}
);
width = 355;
},
{
anchors = (
{
name = bottom;
position = "{250, 0}";
},
{
name = top;
position = "{236, 800}";
}
);
background = {
paths = (
{
closed = 1;
nodes = (
"233 368 LINE SMOOTH",
"383 370 OFFCURVE",
"444 412 OFFCURVE",
"448 522 CURVE SMOOTH",
"449 551 OFFCURVE",
"449 575 OFFCURVE",
"448 605 CURVE SMOOTH",
"443 744 OFFCURVE",
"382 800 OFFCURVE",
"233 800 CURVE SMOOTH",
"157 800 LINE",
"157 668 LINE",
"233 668 LINE SMOOTH",
"275 668 OFFCURVE",
"298 648 OFFCURVE",
"298 613 CURVE SMOOTH",
"298 581 OFFCURVE",
"298 537 OFFCURVE",
"298 505 CURVE SMOOTH",
"298 463 OFFCURVE",
"275 440 OFFCURVE",
"233 440 CURVE SMOOTH",
"153 440 LINE",
"153 367 LINE"
);
},
{
closed = 1;
nodes = (
"451 0 LINE",
"452 69 OFFCURVE",
"450 145 OFFCURVE",
"447 214 CURVE SMOOTH",
"442 327 OFFCURVE",
"383 367 OFFCURVE",
"237 367 CURVE SMOOTH",
"153 367 LINE",
"153 307 LINE",
"231 307 LINE SMOOTH",
"272 307 OFFCURVE",
"295 281 OFFCURVE",
"297 235 CURVE SMOOTH",
"300 161 OFFCURVE",
"302 74 OFFCURVE",
"301 0 CURVE"
);
},
{
closed = 1;
nodes = (
"190 0 LINE",
"190 800 LINE",
"40 800 LINE",
"40 0 LINE"
);
},
{
closed = 1;
nodes = (
"339 347 LINE",
"339 384 LINE",
"153 384 LINE",
"153 347 LINE"
);
}
);
};
layerId = "1DFA7D5B-2E97-4B89-827F-FB43F8066DC1";
paths = (
{
closed = 1;
nodes = (
"487 0 LINE",
"393 298 LINE",
"444 327 OFFCURVE",
"468 381 OFFCURVE",
"471 465 CURVE SMOOTH",
"473 521 OFFCURVE",
"473 549 OFFCURVE",
"471 605 CURVE SMOOTH",
"466 744 OFFCURVE",
"405 800 OFFCURVE",
"256 800 CURVE SMOOTH",
"255 800 LINE",
"255 668 LINE",
"256 668 LINE SMOOTH",
"298 668 OFFCURVE",
"319 648 OFFCURVE",
"321 613 CURVE SMOOTH",
"324 564 OFFCURVE",
"324 506 OFFCURVE",
"321 457 CURVE SMOOTH",
"319 422 OFFCURVE",
"298 402 OFFCURVE",
"256 402 CURVE SMOOTH",
"255 402 LINE",
"255 270 LINE",
"256 270 LINE",
"331 0 LINE"
);
},
{
closed = 1;
nodes = (
"190 0 LINE",
"190 800 LINE",
"40 800 LINE",
"40 0 LINE"
);
}
);
width = 507;
},
{
anchors = (
{
name = bottom;
position = "{250, 0}";
},
{
name = top;
position = "{236, 800}";
}
);
background = {
paths = (
{
closed = 1;
nodes = (
"233 368 LINE SMOOTH",
"383 370 OFFCURVE",
"444 412 OFFCURVE",
"448 522 CURVE SMOOTH",
"449 551 OFFCURVE",
"449 575 OFFCURVE",
"448 605 CURVE SMOOTH",
"443 744 OFFCURVE",
"382 800 OFFCURVE",
"233 800 CURVE SMOOTH",
"157 800 LINE",
"157 668 LINE",
"233 668 LINE SMOOTH",
"275 668 OFFCURVE",
"298 648 OFFCURVE",
"298 613 CURVE SMOOTH",
"298 581 OFFCURVE",
"298 537 OFFCURVE",
"298 505 CURVE SMOOTH",
"298 463 OFFCURVE",
"275 440 OFFCURVE",
"233 440 CURVE SMOOTH",
"153 440 LINE",
"153 367 LINE"
);
},
{
closed = 1;
nodes = (
"451 0 LINE",
"452 69 OFFCURVE",
"450 145 OFFCURVE",
"447 214 CURVE SMOOTH",
"442 327 OFFCURVE",
"383 367 OFFCURVE",
"237 367 CURVE SMOOTH",
"153 367 LINE",
"153 307 LINE",
"231 307 LINE SMOOTH",
"272 307 OFFCURVE",
"295 281 OFFCURVE",
"297 235 CURVE SMOOTH",
"300 161 OFFCURVE",
"302 74 OFFCURVE",
"301 0 CURVE"
);
},
{
closed = 1;
nodes = (
"190 0 LINE",
"190 800 LINE",
"40 800 LINE",
"40 0 LINE"
);
},
{
closed = 1;
nodes = (
"339 347 LINE",
"339 384 LINE",
"153 384 LINE",
"153 347 LINE"
);
}
);
};
layerId = "5013C991-8699-46CB-BB1C-82E334DBD38B";
paths = (
{
closed = 1;
nodes = (
"472 0 LINE",
"378 298 LINE",
"429 327 OFFCURVE",
"453 381 OFFCURVE",
"456 465 CURVE SMOOTH",
"458 521 OFFCURVE",
"458 549 OFFCURVE",
"456 605 CURVE SMOOTH",
"451 744 OFFCURVE",
"390 800 OFFCURVE",
"241 800 CURVE SMOOTH",
"240 800 LINE",
"240 668 LINE",
"241 668 LINE SMOOTH",
"283 668 OFFCURVE",
"304 648 OFFCURVE",
"306 613 CURVE SMOOTH",
"309 564 OFFCURVE",
"309 506 OFFCURVE",
"306 457 CURVE SMOOTH",
"304 422 OFFCURVE",
"283 402 OFFCURVE",
"241 402 CURVE SMOOTH",
"240 402 LINE",
"240 270 LINE",
"241 270 LINE",
"316 0 LINE"
);
},
{
closed = 1;
nodes = (
"190 0 LINE",
"190 800 LINE",
"40 800 LINE",
"40 0 LINE"
);
}
);
width = 492;
},
{
anchors = (
{
name = bottom;
position = "{147, 0}";
},
{
name = top;
position = "{132, 800}";
}
);
background = {
paths = (
{
closed = 1;
nodes = (
"139 378 LINE SMOOTH",
"199 378 OFFCURVE",
"224 400 OFFCURVE",
"226 462 CURVE SMOOTH",
"229 533 OFFCURVE",
"229 603 OFFCURVE",
"226 707 CURVE SMOOTH",
"224 773 OFFCURVE",
"199 800 OFFCURVE",
"140 800 CURVE SMOOTH",
"71 800 LINE",
"71 780 LINE",
"140 780 LINE SMOOTH",
"185 780 OFFCURVE",
"204 759 OFFCURVE",
"206 707 CURVE SMOOTH",
"209 619 OFFCURVE",
"209 548 OFFCURVE",
"206 460 CURVE SMOOTH",
"204 408 OFFCURVE",
"185 387 OFFCURVE",
"139 387 CURVE SMOOTH",
"75 387 LINE",
"75 378 LINE"
);
},
{
closed = 1;
nodes = (
"229 0 LINE",
"230 69 OFFCURVE",
"229 153 OFFCURVE",
"228 294 CURVE SMOOTH",
"227 355 OFFCURVE",
"202 377 OFFCURVE",
"142 377 CURVE SMOOTH",
"71 377 LINE",
"71 367 LINE",
"142 367 LINE SMOOTH",
"188 367 OFFCURVE",
"207 346 OFFCURVE",
"208 294 CURVE SMOOTH",
"210 200 OFFCURVE",
"210 116 OFFCURVE",
"209 0 CURVE"
);
},
{
closed = 1;
nodes = (
"80 0 LINE",
"80 800 LINE",
"60 800 LINE",
"60 0 LINE"
);
},
{
closed = 1;
nodes = (
"185 370 LINE",
"185 387 LINE",
"75 387 LINE",
"75 370 LINE"
);
}
);
};
layerId = "3D06B89B-468F-44E0-A3D7-A5BC6911123E";
paths = (
{
closed = 1;
nodes = (
"246 0 LINE",
"173 329 LINE",
"209 338 OFFCURVE",
"226 366 OFFCURVE",
"228 418 CURVE SMOOTH",
"232 502 OFFCURVE",
"232 599 OFFCURVE",
"228 707 CURVE SMOOTH",
"225 773 OFFCURVE",
"200 800 OFFCURVE",
"142 800 CURVE SMOOTH",
"120 800 LINE",
"120 780 LINE",
"142 780 LINE SMOOTH",
"188 780 OFFCURVE",
"206 759 OFFCURVE",
"208 707 CURVE SMOOTH",
"211 611 OFFCURVE",
"211 514 OFFCURVE",
"208 418 CURVE SMOOTH",
"206 366 OFFCURVE",
"188 345 OFFCURVE",
"141 345 CURVE SMOOTH",
"110 345 LINE",
"110 325 LINE",
"152 325 LINE",
"224 0 LINE"
);
},
{
closed = 1;
nodes = (
"80 0 LINE",
"80 800 LINE",
"60 800 LINE",
"60 0 LINE"
);
}
);
width = 276;
}
);
leftKerningGroup = H;
rightKerningGroup = R;
unicode = 0052;
},
{
glyphname = S;
layers = (
{
anchors = (
{
name = bottom;
position = "{189, 0}";
},
{
name = top;
position = "{189, 800}";
}
);
layerId = "3B122060-26E0-4730-9241-82784E6CB359";
paths = (
{
closed = 1;
nodes = (
"167 33.909 LINE",
"125.482 37.712 OFFCURVE",
"112.717 54.228 OFFCURVE",
"111 98 CURVE SMOOTH",
"108 163 OFFCURVE",
"109 218 OFFCURVE",
"111 283 CURVE",
"71 283 LINE",
"69 210 OFFCURVE",
"69 168 OFFCURVE",
"71 98 CURVE SMOOTH",
"72.797 31.494 OFFCURVE",
"100.442 1.335 OFFCURVE",
"167 -4.091 CURVE"
);
},
{
closed = 1;
nodes = (
"277.879 0.986 OFFCURVE",
"304.288 31.107 OFFCURVE",
"307 98 CURVE SMOOTH",
"309 149 OFFCURVE",
"309 213 OFFCURVE",
"307 266 CURVE SMOOTH",
"304 361 OFFCURVE",
"281 392 OFFCURVE",
"199 412 CURVE SMOOTH",
"162 421 LINE SMOOTH",
"124 431 OFFCURVE",
"113 454 OFFCURVE",
"112 529 CURVE SMOOTH",
"111 590 OFFCURVE",
"110 641 OFFCURVE",
"112 702 CURVE SMOOTH",
"113.72 745.867 OFFCURVE",
"126.538 762.36 OFFCURVE",
"167 766.116 CURVE",
"167 804.169 LINE",
"99.905 798.967 OFFCURVE",
"72.903 768.926 OFFCURVE",
"72 703 CURVE SMOOTH",
"71 642 OFFCURVE",
"70 580 OFFCURVE",
"71 529 CURVE SMOOTH",
"73 429 OFFCURVE",
"93 397 OFFCURVE",
"162 379 CURVE SMOOTH",
"198 370 LINE SMOOTH",
"251 356 OFFCURVE",
"266 334 OFFCURVE",
"267 266 CURVE SMOOTH",
"268 217 OFFCURVE",
"270 147 OFFCURVE",
"267 98 CURVE SMOOTH",
"264.442 54.516 OFFCURVE",
"252.434 37.93 OFFCURVE",
"213 33.986 CURVE",
"213 -4.183 LINE"
);
},
{
closed = 1;
nodes = (
"304 535 LINE",
"305 600 OFFCURVE",
"305 653 OFFCURVE",
"304 702 CURVE SMOOTH",
"302.206 768.365 OFFCURVE",
"275.48 798.537 OFFCURVE",
"213 804.056 CURVE",
"213 765.867 LINE",
"250.695 761.668 OFFCURVE",
"262.315 744.962 OFFCURVE",
"264 702 CURVE SMOOTH",
"266 653 OFFCURVE",
"266 604 OFFCURVE",
"264 535 CURVE"
);
}
);
width = 378;
},
{
anchors = (
{
name = bottom;
position = "{262, 0}";
},
{
name = top;
position = "{262, 800}";
}
);
background = {
paths = (
{
closed = 1;
nodes = (
"275 309 OFFCURVE",
"293 301 OFFCURVE",
"293 269 CURVE SMOOTH",
"293 191 LINE SMOOTH",
"293 158 OFFCURVE",
"275 140 OFFCURVE",
"242 140 CURVE SMOOTH",
"210 140 OFFCURVE",
"190 158 OFFCURVE",
"190 191 CURVE SMOOTH",
"190 300 LINE",
"40 300 LINE",
"39 268 OFFCURVE",
"39 228 OFFCURVE",
"40 196 CURVE SMOOTH",
"44 67 OFFCURVE",
"113 -5 OFFCURVE",
"242 -5 CURVE SMOOTH",
"371 -5 OFFCURVE",
"443 67 OFFCURVE",
"443 196 CURVE SMOOTH",
"444 219 OFFCURVE",
"444 242 OFFCURVE",
"444 265 CURVE SMOOTH",
"440 394 OFFCURVE",
"371 434 OFFCURVE",
"246 465 CURVE SMOOTH",
"242 466 LINE SMOOTH",
"211 474 OFFCURVE",
"191 484 OFFCURVE",
"191 517 CURVE SMOOTH",
"191 610 LINE SMOOTH",
"191 642 OFFCURVE",
"209 660 OFFCURVE",
"242 660 CURVE SMOOTH",
"274 660 OFFCURVE",
"290 642 OFFCURVE",
"290 610 CURVE SMOOTH",
"289 500 LINE",
"439 500 LINE",
"440 533 OFFCURVE",
"441 572 OFFCURVE",
"440 605 CURVE SMOOTH",
"436 734 OFFCURVE",
"371 805 OFFCURVE",
"242 805 CURVE SMOOTH",
"113 805 OFFCURVE",
"44 734 OFFCURVE",
"41 605 CURVE SMOOTH",
"41 580 OFFCURVE",
"40 546 OFFCURVE",
"40 521 CURVE SMOOTH",
"44 392 OFFCURVE",
"120 361 OFFCURVE",
"242 320 CURVE SMOOTH",
"245 319 LINE SMOOTH"
);
}
);
};
layerId = "1DFA7D5B-2E97-4B89-827F-FB43F8066DC1";
paths = (
{
closed = 1;
nodes = (
"230 116.281 LINE",
"206.094 123.426 OFFCURVE",
"192.149 139.366 OFFCURVE",
"190 163 CURVE SMOOTH",
"186 202 OFFCURVE",
"187 251 OFFCURVE",
"190 300 CURVE",
"49 300 LINE",
"44 268 OFFCURVE",
"44 223 OFFCURVE",
"45 191 CURVE SMOOTH",
"50.539 58.053 OFFCURVE",
"103.812 -0.737 OFFCURVE",
"230 -8.979 CURVE"
);
},
{
closed = 1;
nodes = (
"423.27 -0.808 OFFCURVE",
"477.457 57.973 OFFCURVE",
"483 191 CURVE SMOOTH",
"484 214 OFFCURVE",
"485 241 OFFCURVE",
"484 264 CURVE SMOOTH",
"480 367 OFFCURVE",
"436 435 OFFCURVE",
"323 459 CURVE SMOOTH",
"242 476 LINE SMOOTH",
"208 483 OFFCURVE",
"194 508 OFFCURVE",
"191 535 CURVE SMOOTH",
"187 569 OFFCURVE",
"187 604 OFFCURVE",
"191 638 CURVE SMOOTH",
"193.813 660.506 OFFCURVE",
"207.509 676.087 OFFCURVE",
"230 683.351 CURVE",
"230 809.021 LINE",
"100.848 800.942 OFFCURVE",
"46.549 742.248 OFFCURVE",
"41 610 CURVE SMOOTH",
"40 585 OFFCURVE",
"40 564 OFFCURVE",
"41 535 CURVE SMOOTH",
"44 435 OFFCURVE",
"78 370 OFFCURVE",
"183 346 CURVE SMOOTH",
"275 325 LINE SMOOTH",
"307 318 OFFCURVE",
"330 292 OFFCURVE",
"333 264 CURVE SMOOTH",
"337 230 OFFCURVE",
"337 197 OFFCURVE",
"333 163 CURVE SMOOTH",
"330.224 140.098 OFFCURVE",
"317.334 124.42 OFFCURVE",
"296 116.97 CURVE",
"296 -8.994 LINE"
);
},
{
closed = 1;
nodes = (
"478 500 LINE",
"480 535 OFFCURVE",
"481 581 OFFCURVE",
"480 610 CURVE SMOOTH",
"474.464 741.949 OFFCURVE",
"421.248 800.676 OFFCURVE",
"296 808.965 CURVE",
"296 683.911 LINE",
"320.525 676.908 OFFCURVE",
"334.278 661.103 OFFCURVE",
"335 638 CURVE SMOOTH",
"337 592 OFFCURVE",
"336 546 OFFCURVE",
"334 500 CURVE"
);
}
);
width = 524;
},
{
anchors = (
{
name = bottom;
position = "{252, 0}";
},
{
name = top;
position = "{252, 800}";
}
);
background = {
paths = (
{
closed = 1;
nodes = (
"265 309 OFFCURVE",
"283 301 OFFCURVE",
"283 269 CURVE SMOOTH",
"283 191 LINE SMOOTH",
"283 158 OFFCURVE",
"265 140 OFFCURVE",
"232 140 CURVE SMOOTH",
"200 140 OFFCURVE",
"180 158 OFFCURVE",
"180 191 CURVE SMOOTH",
"180 300 LINE",
"30 300 LINE",
"29 268 OFFCURVE",
"29 228 OFFCURVE",
"30 196 CURVE SMOOTH",
"34 67 OFFCURVE",
"103 -5 OFFCURVE",
"232 -5 CURVE SMOOTH",
"361 -5 OFFCURVE",
"433 67 OFFCURVE",
"433 196 CURVE SMOOTH",
"434 219 OFFCURVE",
"434 242 OFFCURVE",
"434 265 CURVE SMOOTH",
"430 394 OFFCURVE",
"361 434 OFFCURVE",
"236 465 CURVE SMOOTH",
"232 466 LINE SMOOTH",
"201 474 OFFCURVE",
"181 484 OFFCURVE",
"181 517 CURVE SMOOTH",
"181 610 LINE SMOOTH",
"181 642 OFFCURVE",
"199 660 OFFCURVE",
"232 660 CURVE SMOOTH",
"264 660 OFFCURVE",
"280 642 OFFCURVE",
"280 610 CURVE SMOOTH",
"279 500 LINE",
"429 500 LINE",
"430 533 OFFCURVE",
"431 572 OFFCURVE",
"430 605 CURVE SMOOTH",
"426 734 OFFCURVE",
"361 805 OFFCURVE",
"232 805 CURVE SMOOTH",
"103 805 OFFCURVE",
"34 734 OFFCURVE",
"31 605 CURVE SMOOTH",
"31 580 OFFCURVE",
"30 546 OFFCURVE",
"30 521 CURVE SMOOTH",
"34 392 OFFCURVE",
"110 361 OFFCURVE",
"232 320 CURVE SMOOTH",
"235 319 LINE SMOOTH"
);
}
);
};
layerId = "5013C991-8699-46CB-BB1C-82E334DBD38B";
paths = (
{
closed = 1;
nodes = (
"228 114.963 LINE",
"204.513 121.323 OFFCURVE",
"192.293 137.782 OFFCURVE",
"190 163 CURVE SMOOTH",
"186 202 OFFCURVE",
"187 251 OFFCURVE",
"190 300 CURVE",
"49 300 LINE",
"44 268 OFFCURVE",
"44 223 OFFCURVE",
"45 191 CURVE SMOOTH",
"50.647 55.472 OFFCURVE",
"99.698 -2.992 OFFCURVE",
"228 -9.402 CURVE"
);
},
{
closed = 1;
nodes = (
"407.371 -3.045 OFFCURVE",
"457.35 55.411 OFFCURVE",
"463 191 CURVE SMOOTH",
"464 214 OFFCURVE",
"465 241 OFFCURVE",
"464 264 CURVE SMOOTH",
"460 367 OFFCURVE",
"425 432 OFFCURVE",
"313 459 CURVE SMOOTH",
"242 476 LINE SMOOTH",
"208 484 OFFCURVE",
"194 508 OFFCURVE",
"191 535 CURVE SMOOTH",
"187 569 OFFCURVE",
"187 604 OFFCURVE",
"191 638 CURVE SMOOTH",
"194.045 662.359 OFFCURVE",
"205.202 678.605 OFFCURVE",
"228 684.975 CURVE",
"228 809.434 LINE",
"95.863 803.191 OFFCURVE",
"46.656 744.813 OFFCURVE",
"41 610 CURVE SMOOTH",
"40 585 OFFCURVE",
"40 564 OFFCURVE",
"41 535 CURVE SMOOTH",
"44 435 OFFCURVE",
"79 373 OFFCURVE",
"183 346 CURVE SMOOTH",
"265 325 LINE SMOOTH",
"297 317 OFFCURVE",
"310 292 OFFCURVE",
"313 264 CURVE SMOOTH",
"317 230 OFFCURVE",
"317 197 OFFCURVE",
"313 163 CURVE SMOOTH",
"309.988 138.148 OFFCURVE",
"299.602 121.803 OFFCURVE",
"278 115.247 CURVE",
"278 -9.411 LINE"
);
},
{
closed = 1;
nodes = (
"458 500 LINE",
"460 535 OFFCURVE",
"461 581 OFFCURVE",
"460 610 CURVE SMOOTH",
"454.365 744.301 OFFCURVE",
"401.982 802.747 OFFCURVE",
"278 809.361 CURVE",
"278 684.733 LINE",
"300.499 678.2 OFFCURVE",
"314.248 662.056 OFFCURVE",
"315 638 CURVE SMOOTH",
"317 592 OFFCURVE",
"316 546 OFFCURVE",
"314 500 CURVE"
);
}
);
width = 504;
},
{
anchors = (
{
name = bottom;
position = "{149, 0}";
},
{
name = top;
position = "{149, 800}";
}
);
layerId = "3D06B89B-468F-44E0-A3D7-A5BC6911123E";
paths = (
{
closed = 1;
nodes = (
"131 16.293 LINE",
"96.221 21.572 OFFCURVE",
"82.717 43.366 OFFCURVE",
"81 88 CURVE SMOOTH",
"79 153 OFFCURVE",
"79 218 OFFCURVE",
"81 283 CURVE",
"61 283 LINE",
"59 204 OFFCURVE",
"59 166 OFFCURVE",
"61 88 CURVE SMOOTH",
"62.77 29.598 OFFCURVE",
"83.332 1.734 OFFCURVE",
"131 -3.908 CURVE"
);
},
{
closed = 1;
nodes = (
"215.044 2.247 OFFCURVE",
"235.246 30.134 OFFCURVE",
"237 88 CURVE SMOOTH",
"239 159 OFFCURVE",
"239 183 OFFCURVE",
"237 266 CURVE SMOOTH",
"235 347 OFFCURVE",
"229 388 OFFCURVE",
"169 402 CURVE SMOOTH",
"132 411 LINE SMOOTH",
"88 422 OFFCURVE",
"83 451 OFFCURVE",
"82 529 CURVE SMOOTH",
"81 590 OFFCURVE",
"80 651 OFFCURVE",
"82 712 CURVE SMOOTH",
"83.71 756.448 OFFCURVE",
"96.379 778.247 OFFCURVE",
"130 783.641 CURVE",
"130 803.975 LINE",
"81.648 798.583 OFFCURVE",
"62 771.51 OFFCURVE",
"62 713 CURVE SMOOTH",
"62 652 OFFCURVE",
"60 580 OFFCURVE",
"61 529 CURVE SMOOTH",
"63 441 OFFCURVE",
"70 404 OFFCURVE",
"132 389 CURVE SMOOTH",
"168 380 LINE SMOOTH",
"210 369 OFFCURVE",
"216 328 OFFCURVE",
"217 266 CURVE SMOOTH",
"218 187 OFFCURVE",
"219 157 OFFCURVE",
"217 88 CURVE SMOOTH",
"215.325 44.444 OFFCURVE",
"203.126 22.638 OFFCURVE",
"171 16.704 CURVE",
"171 -3.747 LINE"
);
},
{
closed = 1;
nodes = (
"234 535 LINE",
"235 608 OFFCURVE",
"235 671 OFFCURVE",
"234 712 CURVE SMOOTH",
"232.248 769.829 OFFCURVE",
"213.605 797.717 OFFCURVE",
"170 803.736 CURVE",
"170 783.133 LINE",
"200.343 776.971 OFFCURVE",
"212.34 755.167 OFFCURVE",
"214 712 CURVE SMOOTH",
"216 653 OFFCURVE",
"216 594 OFFCURVE",
"214 535 CURVE"
);
}
);
width = 298;
}
);
leftKerningGroup = O;
rightKerningGroup = O;
unicode = 0053;
},
{
glyphname = Germandbls;
layers = (
{
layerId = "3B122060-26E0-4730-9241-82784E6CB359";
paths = (
{
closed = 1;
nodes = (
"80 0 LINE",
"80 710 LINE SMOOTH",
"80 751 OFFCURVE",
"95 763 OFFCURVE",
"148 763 CURVE",
"269 763 LINE",
"269 801 LINE",
"148 801 LINE SMOOTH",
"71 801 OFFCURVE",
"40 774 OFFCURVE",
"40 710 CURVE SMOOTH",
"40 0 LINE"
);
},
{
closed = 1;
nodes = (
"158 0 LINE SMOOTH",
"239 0 OFFCURVE",
"272 39 OFFCURVE",
"274 113 CURVE SMOOTH",
"276 191 OFFCURVE",
"276 221 OFFCURVE",
"274 291 CURVE SMOOTH",
"272 370 OFFCURVE",
"241 413 OFFCURVE",
"179 410 CURVE",
"261 726 LINE",
"218 726 LINE",
"137 409 LINE",
"137 372 LINE",
"167 372 LINE SMOOTH",
"218 372 OFFCURVE",
"232 355 OFFCURVE",
"234 291 CURVE SMOOTH",
"236 224 OFFCURVE",
"236 181 OFFCURVE",
"234 113 CURVE SMOOTH",
"232 62 OFFCURVE",
"216 38 OFFCURVE",
"158 38 CURVE SMOOTH",
"126 38 LINE",
"126 0 LINE"
);
}
);
width = 315;
},
{
layerId = "1DFA7D5B-2E97-4B89-827F-FB43F8066DC1";
paths = (
{
closed = 1;
nodes = (
"190 0 LINE",
"190 628 LINE SMOOTH",
"190 660 OFFCURVE",
"213 678 OFFCURVE",
"251 678 CURVE SMOOTH",
"490 678 LINE",
"490 800 LINE",
"251 800 LINE SMOOTH",
"104 800 OFFCURVE",
"40 743 OFFCURVE",
"40 600 CURVE SMOOTH",
"40 0 LINE"
);
},
{
closed = 1;
nodes = (
"293 0 LINE SMOOTH",
"441 0 OFFCURVE",
"497 57 OFFCURVE",
"503 201 CURVE SMOOTH",
"504 224 OFFCURVE",
"505 251 OFFCURVE",
"504 274 CURVE SMOOTH",
"500 367 OFFCURVE",
"472 429 OFFCURVE",
"385 460 CURVE",
"473 632 LINE",
"320 632 LINE",
"244 452 LINE",
"244 335 LINE",
"305 335 LINE SMOOTH",
"338 335 OFFCURVE",
"350 302 OFFCURVE",
"353 274 CURVE SMOOTH",
"357 240 OFFCURVE",
"357 207 OFFCURVE",
"353 173 CURVE SMOOTH",
"349 140 OFFCURVE",
"332 122 OFFCURVE",
"293 122 CURVE SMOOTH",
"257 122 LINE",
"257 0 LINE"
);
}
);
width = 544;
},
{
layerId = "5013C991-8699-46CB-BB1C-82E334DBD38B";
paths = (
{
closed = 1;
nodes = (
"190 0 LINE",
"190 628 LINE SMOOTH",
"190 660 OFFCURVE",
"213 678 OFFCURVE",
"251 678 CURVE SMOOTH",
"480 678 LINE",
"480 800 LINE",
"251 800 LINE SMOOTH",
"104 800 OFFCURVE",
"40 743 OFFCURVE",
"40 600 CURVE SMOOTH",
"40 0 LINE"
);
},
{
closed = 1;
nodes = (
"283 0 LINE SMOOTH",
"431 0 OFFCURVE",
"487 57 OFFCURVE",
"493 201 CURVE SMOOTH",
"494 224 OFFCURVE",
"495 251 OFFCURVE",
"494 274 CURVE SMOOTH",
"490 367 OFFCURVE",
"462 429 OFFCURVE",
"375 460 CURVE",
"468 635 LINE",
"327 635 LINE",
"238 452 LINE",
"240 335 LINE",
"295 335 LINE SMOOTH",
"328 335 OFFCURVE",
"340 302 OFFCURVE",
"343 274 CURVE SMOOTH",
"347 240 OFFCURVE",
"347 207 OFFCURVE",
"343 173 CURVE SMOOTH",
"339 140 OFFCURVE",
"322 122 OFFCURVE",
"283 122 CURVE SMOOTH",
"239 122 LINE",
"239 0 LINE"
);
}
);
width = 534;
},
{
background = {
paths = (
{
closed = 0;
nodes = (
"155 410 LINE"
);
}
);
};
layerId = "3D06B89B-468F-44E0-A3D7-A5BC6911123E";
paths = (
{
closed = 1;
nodes = (
"80 0 LINE",
"80 709 LINE SMOOTH",
"80 763 OFFCURVE",
"98 780 OFFCURVE",
"148 780 CURVE SMOOTH",
"239 780 LINE",
"239 800 LINE",
"148 800 LINE SMOOTH",
"85 800 OFFCURVE",
"60 774 OFFCURVE",
"60 709 CURVE SMOOTH",
"60 0 LINE"
);
},
{
closed = 1;
nodes = (
"148 0 LINE SMOOTH",
"214 0 OFFCURVE",
"242 29 OFFCURVE",
"244 103 CURVE SMOOTH",
"246 181 OFFCURVE",
"246 221 OFFCURVE",
"244 291 CURVE SMOOTH",
"242 377 OFFCURVE",
"218 410 OFFCURVE",
"156 410 CURVE",
"233 750 LINE",
"212 750 LINE",
"133 409 LINE",
"133 390 LINE",
"157 390 LINE SMOOTH",
"203 390 OFFCURVE",
"222 362 OFFCURVE",
"224 291 CURVE SMOOTH",
"226 224 OFFCURVE",
"226 171 OFFCURVE",
"224 103 CURVE SMOOTH",
"222 44 OFFCURVE",
"200 20 OFFCURVE",
"148 20 CURVE SMOOTH",
"120 20 LINE",
"120 0 LINE"
);
}
);
width = 309;
}
);
leftKerningGroup = H;
rightKerningGroup = B;
unicode = 1E9E;
},
{
glyphname = Schwa;
layers = (
{
layerId = "3B122060-26E0-4730-9241-82784E6CB359";
paths = (
{
closed = 1;
nodes = (
"73 32 OFFCURVE",
"99 2 OFFCURVE",
"162 -4 CURVE",
"162 34 LINE",
"124 38 OFFCURVE",
"113 55 OFFCURVE",
"112 97 CURVE SMOOTH",
"109 212 OFFCURVE",
"111 274 OFFCURVE",
"112 370 CURVE",
"212 370 LINE",
"212 408 LINE",
"72 408 LINE",
"71 307 OFFCURVE",
"70 208 OFFCURVE",
"72 97 CURVE SMOOTH"
);
},
{
closed = 1;
nodes = (
"268 1 OFFCURVE",
"293 31 OFFCURVE",
"294 97 CURVE SMOOTH",
"297 319 OFFCURVE",
"297 478 OFFCURVE",
"294 701 CURVE SMOOTH",
"293 767 OFFCURVE",
"268 797 OFFCURVE",
"207 802 CURVE",
"207 763 LINE",
"242 759 OFFCURVE",
"253 743 OFFCURVE",
"254 701 CURVE SMOOTH",
"259 455 OFFCURVE",
"259 342 OFFCURVE",
"254 97 CURVE SMOOTH",
"253 55 OFFCURVE",
"242 38 OFFCURVE",
"207 34 CURVE",
"207 -4 LINE"
);
},
{
closed = 1;
nodes = (
"113 516 LINE",
"112 581 OFFCURVE",
"111 636 OFFCURVE",
"112 701 CURVE SMOOTH",
"112.856 743.783 OFFCURVE",
"125.426 759.477 OFFCURVE",
"166 763.115 CURVE",
"166 802.107 LINE",
"101.493 796.731 OFFCURVE",
"73.799 766.668 OFFCURVE",
"72 701 CURVE SMOOTH",
"70 631 OFFCURVE",
"71 586 OFFCURVE",
"73 516 CURVE"
);
}
);
width = 365;
},
{
layerId = "1DFA7D5B-2E97-4B89-827F-FB43F8066DC1";
paths = (
{
closed = 1;
nodes = (
"43 58 OFFCURVE",
"96 -1 OFFCURVE",
"226 -9 CURVE",
"226 117 LINE",
"204 124 OFFCURVE",
"192 139 OFFCURVE",
"191 162 CURVE SMOOTH",
"189 219 OFFCURVE",
"188 277 OFFCURVE",
"188 341 CURVE",
"267 341 LINE",
"267 444 LINE",
"41 444 LINE",
"40 341 OFFCURVE",
"40 273 OFFCURVE",
"41 190 CURVE SMOOTH"
);
},
{
closed = 1;
nodes = (
"424 -1 OFFCURVE",
"478 57 OFFCURVE",
"480 189 CURVE SMOOTH",
"483 340 OFFCURVE",
"483 460 OFFCURVE",
"480 609 CURVE SMOOTH",
"477 742 OFFCURVE",
"423 801 OFFCURVE",
"292 809 CURVE",
"292 684 LINE",
"316 677 OFFCURVE",
"329 661 OFFCURVE",
"330 637 CURVE SMOOTH",
"335 485 OFFCURVE",
"335 315 OFFCURVE",
"330 162 CURVE SMOOTH",
"329 139 OFFCURVE",
"316 123 OFFCURVE",
"292 116 CURVE",
"292 -9 LINE"
);
},
{
closed = 1;
nodes = (
"191 500 LINE",
"190 536 OFFCURVE",
"190 601 OFFCURVE",
"191 637 CURVE SMOOTH",
"191.722 660.825 OFFCURVE",
"205.475 676.831 OFFCURVE",
"230 683.89 CURVE",
"230 809.046 LINE",
"98.975 801.061 OFFCURVE",
"44.703 742.314 OFFCURVE",
"41 609 CURVE SMOOTH",
"40 570 OFFCURVE",
"40 539 OFFCURVE",
"41 500 CURVE"
);
}
);
width = 522;
},
{
layerId = "5013C991-8699-46CB-BB1C-82E334DBD38B";
paths = (
{
closed = 1;
nodes = (
"43 56 OFFCURVE",
"98 -3 OFFCURVE",
"224 -9 CURVE",
"224 116 LINE",
"203 122 OFFCURVE",
"192 138 OFFCURVE",
"191 162 CURVE SMOOTH",
"189 219 OFFCURVE",
"188 277 OFFCURVE",
"188 341 CURVE",
"263 341 LINE",
"263 444 LINE",
"41 444 LINE",
"40 341 OFFCURVE",
"40 273 OFFCURVE",
"41 190 CURVE SMOOTH"
);
},
{
closed = 1;
nodes = (
"403 -1 OFFCURVE",
"458 74 OFFCURVE",
"460 189 CURVE SMOOTH",
"462 302 OFFCURVE",
"462 498 OFFCURVE",
"460 609 CURVE SMOOTH",
"457 745 OFFCURVE",
"406 803 OFFCURVE",
"274 809 CURVE",
"274 685 LINE",
"297 678 OFFCURVE",
"309 662 OFFCURVE",
"310 637 CURVE SMOOTH",
"315 498 OFFCURVE",
"315 302 OFFCURVE",
"310 162 CURVE SMOOTH",
"309 138 OFFCURVE",
"297 122 OFFCURVE",
"274 115 CURVE",
"274 -9 LINE"
);
},
{
closed = 1;
nodes = (
"191 500 LINE",
"190 536 OFFCURVE",
"190 601 OFFCURVE",
"191 637 CURVE SMOOTH",
"191.761 662.111 OFFCURVE",
"204.682 678.537 OFFCURVE",
"228 684.955 CURVE",
"228 809.405 LINE",
"99.036 803.01 OFFCURVE",
"44.765 744.548 OFFCURVE",
"41 609 CURVE SMOOTH",
"40 577 OFFCURVE",
"40 532 OFFCURVE",
"41 500 CURVE"
);
}
);
width = 501;
},
{
layerId = "3D06B89B-468F-44E0-A3D7-A5BC6911123E";
paths = (
{
closed = 1;
nodes = (
"63 28 OFFCURVE",
"84 1 OFFCURVE",
"135 -5 CURVE",
"135 15 LINE",
"98 21 OFFCURVE",
"83 43 OFFCURVE",
"82 87 CURVE SMOOTH",
"81 199 OFFCURVE",
"81 287 OFFCURVE",
"82 388 CURVE",
"187 388 LINE",
"187 408 LINE",
"62 408 LINE",
"61 299 OFFCURVE",
"61 207 OFFCURVE",
"62 87 CURVE SMOOTH"
);
},
{
closed = 1;
nodes = (
"223 0 OFFCURVE",
"243 28 OFFCURVE",
"244 87 CURVE SMOOTH",
"248 309 OFFCURVE",
"248 488 OFFCURVE",
"244 711 CURVE SMOOTH",
"243 770 OFFCURVE",
"223 797 OFFCURVE",
"175 803 CURVE",
"175 783 LINE",
"209 777 OFFCURVE",
"223 755 OFFCURVE",
"224 711 CURVE SMOOTH",
"228 488 OFFCURVE",
"228 309 OFFCURVE",
"224 87 CURVE SMOOTH",
"223 43 OFFCURVE",
"209 21 OFFCURVE",
"175 15 CURVE",
"175 -5 LINE"
);
},
{
closed = 1;
nodes = (
"83 516 LINE",
"82 609 OFFCURVE",
"81 665 OFFCURVE",
"82 711 CURVE SMOOTH",
"82.866 756.036 OFFCURVE",
"99.484 777.819 OFFCURVE",
"139 782.846 CURVE",
"139 803.076 LINE",
"86.358 797.84 OFFCURVE",
"63.788 770.007 OFFCURVE",
"62 711 CURVE SMOOTH",
"60 654 OFFCURVE",
"61 598 OFFCURVE",
"63 516 CURVE"
);
}
);
width = 306;
}
);
leftKerningGroup = O;
leftMetricsKey = O;
rightKerningGroup = O;
rightMetricsKey = O;
unicode = 018F;
},
{
glyphname = T;
layers = (
{
anchors = (
{
name = bottom;
position = "{172, 0}";
},
{
name = center;
position = "{172, 400}";
},
{
name = top;
position = "{172, 800}";
}
);
layerId = "3B122060-26E0-4730-9241-82784E6CB359";
paths = (
{
closed = 1;
nodes = (
"192 0 LINE",
"192 731 LINE",
"152 731 LINE",
"152 0 LINE"
);
},
{
closed = 1;
nodes = (
"304 762 LINE",
"304 800 LINE",
"40 800 LINE",
"40 762 LINE"
);
}
);
width = 344;
},
{
anchors = (
{
name = bottom;
position = "{234, 0}";
},
{
name = center;
position = "{234, 400}";
},
{
name = top;
position = "{234, 800}";
}
);
layerId = "1DFA7D5B-2E97-4B89-827F-FB43F8066DC1";
paths = (
{
closed = 1;
nodes = (
"309 0 LINE",
"309 622 LINE",
"159 622 LINE",
"159 0 LINE"
);
},
{
closed = 1;
nodes = (
"447 668 LINE",
"447 800 LINE",
"20 800 LINE",
"20 668 LINE"
);
}
);
width = 467;
},
{
anchors = (
{
name = bottom;
position = "{224, 0}";
},
{
name = center;
position = "{224, 400}";
},
{
name = top;
position = "{224, 800}";
}
);
layerId = "5013C991-8699-46CB-BB1C-82E334DBD38B";
paths = (
{
closed = 1;
nodes = (
"299 0 LINE",
"299 618 LINE",
"149 618 LINE",
"149 0 LINE"
);
},
{
closed = 1;
nodes = (
"427 668 LINE",
"427 800 LINE",
"20 800 LINE",
"20 668 LINE"
);
}
);
width = 447;
},
{
anchors = (
{
name = bottom;
position = "{127, 0}";
},
{
name = center;
position = "{127, 400}";
},
{
name = top;
position = "{127, 800}";
}
);
layerId = "3D06B89B-468F-44E0-A3D7-A5BC6911123E";
paths = (
{
closed = 1;
nodes = (
"137 0 LINE",
"137 760 LINE",
"117 760 LINE",
"117 0 LINE"
);
},
{
closed = 1;
nodes = (
"224 780 LINE",
"224 800 LINE",
"30 800 LINE",
"30 780 LINE"
);
}
);
width = 254;
}
);
leftKerningGroup = V;
rightKerningGroup = V;
unicode = 0054;
},
{
glyphname = Tbar;
layers = (
{
components = (
{
name = T;
}
);
layerId = "3B122060-26E0-4730-9241-82784E6CB359";
paths = (
{
closed = 1;
nodes = (
"170 339 LINE",
"170 373 LINE",
"112 373 LINE",
"112 339 LINE"
);
},
{
closed = 1;
nodes = (
"252 339 LINE",
"252 373 LINE",
"219 373 LINE",
"219 339 LINE"
);
}
);
width = 344;
},
{
components = (
{
name = T;
}
);
layerId = "1DFA7D5B-2E97-4B89-827F-FB43F8066DC1";
paths = (
{
closed = 1;
nodes = (
"211 264 LINE",
"211 377 LINE",
"94 377 LINE",
"94 264 LINE"
);
},
{
closed = 1;
nodes = (
"416 264 LINE",
"416 377 LINE",
"349 377 LINE",
"349 264 LINE"
);
}
);
width = 467;
},
{
components = (
{
name = T;
}
);
layerId = "5013C991-8699-46CB-BB1C-82E334DBD38B";
paths = (
{
closed = 1;
nodes = (
"206 264 LINE",
"206 377 LINE",
"94 377 LINE",
"94 264 LINE"
);
},
{
closed = 1;
nodes = (
"403 264 LINE",
"403 377 LINE",
"341 377 LINE",
"341 264 LINE"
);
}
);
width = 447;
},
{
components = (
{
name = T;
}
);
layerId = "3D06B89B-468F-44E0-A3D7-A5BC6911123E";
paths = (
{
closed = 1;
nodes = (
"131 344 LINE",
"131 364 LINE",
"71 364 LINE",
"71 344 LINE"
);
},
{
closed = 1;
nodes = (
"201 344 LINE",
"201 364 LINE",
"171 364 LINE",
"171 344 LINE"
);
}
);
width = 254;
}
);
leftKerningGroup = V;
leftMetricsKey = T;
rightKerningGroup = V;
rightMetricsKey = T;
unicode = 0166;
},
{
glyphname = U;
layers = (
{
anchors = (
{
name = bottom;
position = "{187, 0}";
},
{
name = ogonek;
position = "{154, 0}";
},
{
name = top;
position = "{187, 800}";
},
{
name = topright;
position = "{324, 800}";
}
);
layerId = "3B122060-26E0-4730-9241-82784E6CB359";
paths = (
{
closed = 1;
nodes = (
"71.901 31.052 OFFCURVE",
"98.76 1.175 OFFCURVE",
"164 -4.129 CURVE",
"164 35.844 LINE",
"122.521 39.369 OFFCURVE",
"110 54.663 OFFCURVE",
"110 95 CURVE SMOOTH",
"110 334 OFFCURVE",
"109 561 OFFCURVE",
"111 800 CURVE",
"71 800 LINE",
"69 561 OFFCURVE",
"68 334 OFFCURVE",
"71 95 CURVE SMOOTH"
);
},
{
closed = 1;
nodes = (
"275.24 1.175 OFFCURVE",
"302.099 31.052 OFFCURVE",
"303 95 CURVE SMOOTH",
"306 334 OFFCURVE",
"305 561 OFFCURVE",
"303 800 CURVE",
"263 800 LINE",
"265 561 OFFCURVE",
"263 334 OFFCURVE",
"263 95 CURVE SMOOTH",
"263 54.681 OFFCURVE",
"251.225 39.383 OFFCURVE",
"210 35.848 CURVE",
"210 -4.129 LINE"
);
}
);
width = 374;
},
{
anchors = (
{
name = bottom;
position = "{263, 0}";
},
{
name = ogonek;
position = "{205.25, 0}";
},
{
name = top;
position = "{263, 800}";
},
{
name = topright;
position = "{494, 800}";
}
);
layerId = "1DFA7D5B-2E97-4B89-827F-FB43F8066DC1";
paths = (
{
closed = 1;
nodes = (
"43.853 57.617 OFFCURVE",
"98.042 -1.122 OFFCURVE",
"230 -9.059 CURVE",
"230 116.852 LINE",
"205.177 125.332 OFFCURVE",
"192 144.686 OFFCURVE",
"192 173 CURVE SMOOTH",
"190 374 OFFCURVE",
"188 599 OFFCURVE",
"192 800 CURVE",
"42 800 LINE",
"39 599 OFFCURVE",
"39 392 OFFCURVE",
"42 191 CURVE SMOOTH"
);
},
{
closed = 1;
nodes = (
"427.014 -1.061 OFFCURVE",
"481.148 57.686 OFFCURVE",
"483 191 CURVE SMOOTH",
"486 392 OFFCURVE",
"486 599 OFFCURVE",
"483 800 CURVE",
"333 800 LINE",
"337 599 OFFCURVE",
"335 374 OFFCURVE",
"333 173 CURVE SMOOTH",
"333 144.925 OFFCURVE",
"320.045 125.66 OFFCURVE",
"296 117.07 CURVE",
"296 -9.046 LINE"
);
}
);
width = 525;
},
{
anchors = (
{
name = bottom;
position = "{253, 0}";
},
{
name = ogonek;
position = "{186.499, 0}";
},
{
name = top;
position = "{253, 800}";
},
{
name = topright;
position = "{484, 800}";
}
);
layerId = "5013C991-8699-46CB-BB1C-82E334DBD38B";
paths = (
{
closed = 1;
nodes = (
"43.885 55.287 OFFCURVE",
"96.398 -3.151 OFFCURVE",
"228 -9.428 CURVE",
"228 115.049 LINE",
"204.734 121.469 OFFCURVE",
"192 137.894 OFFCURVE",
"192 163 CURVE SMOOTH",
"190 364 OFFCURVE",
"188 599 OFFCURVE",
"192 800 CURVE",
"42 800 LINE",
"39 599 OFFCURVE",
"39 392 OFFCURVE",
"42 191 CURVE SMOOTH"
);
},
{
closed = 1;
nodes = (
"408.646 -3.103 OFFCURVE",
"461.116 55.344 OFFCURVE",
"463 191 CURVE SMOOTH",
"466 392 OFFCURVE",
"466 599 OFFCURVE",
"463 800 CURVE",
"313 800 LINE",
"317 599 OFFCURVE",
"315 364 OFFCURVE",
"313 163 CURVE SMOOTH",
"313 137.946 OFFCURVE",
"300.896 121.538 OFFCURVE",
"278 115.089 CURVE",
"278 -9.42 LINE"
);
}
);
width = 505;
},
{
anchors = (
{
name = bottom;
position = "{147, 0}";
},
{
name = ogonek;
position = "{105, -5}";
},
{
name = top;
position = "{147, 800}";
},
{
name = topright;
position = "{254, 800}";
}
);
layerId = "3D06B89B-468F-44E0-A3D7-A5BC6911123E";
paths = (
{
closed = 1;
nodes = (
"61.881 28.636 OFFCURVE",
"81.376 1.745 OFFCURVE",
"127 -3.869 CURVE",
"127 16.49 LINE",
"94.262 21.948 OFFCURVE",
"80 42.778 OFFCURVE",
"80 85 CURVE SMOOTH",
"78 324 OFFCURVE",
"79 561 OFFCURVE",
"81 800 CURVE",
"61 800 LINE",
"59 561 OFFCURVE",
"59 324 OFFCURVE",
"61 85 CURVE SMOOTH"
);
},
{
closed = 1;
nodes = (
"212.624 1.745 OFFCURVE",
"232.119 28.636 OFFCURVE",
"233 85 CURVE SMOOTH",
"235 324 OFFCURVE",
"235 561 OFFCURVE",
"233 800 CURVE",
"213 800 LINE",
"215 561 OFFCURVE",
"215 324 OFFCURVE",
"213 85 CURVE SMOOTH",
"213 42.806 OFFCURVE",
"199.47 21.976 OFFCURVE",
"167 16.5 CURVE",
"167 -3.869 LINE"
);
}
);
width = 294;
}
);
leftKerningGroup = H;
rightKerningGroup = H;
unicode = 0055;
},
{
glyphname = V;
layers = (
{
layerId = "3B122060-26E0-4730-9241-82784E6CB359";
paths = (
{
closed = 1;
nodes = (
"108 69 LINE",
"148 69 LINE",
"124 330 LINE",
"82 800 LINE",
"40 800 LINE"
);
},
{
closed = 1;
nodes = (
"114 0 LINE",
"220 0 LINE",
"294 800 LINE",
"252 800 LINE",
"210 330 LINE",
"184 38 LINE",
"110.485 38 LINE"
);
}
);
width = 334;
},
{
layerId = "1DFA7D5B-2E97-4B89-827F-FB43F8066DC1";
paths = (
{
closed = 1;
nodes = (
"114 178 LINE",
"241 178 LINE",
"234 399 LINE",
"175 800 LINE",
"20 800 LINE"
);
},
{
closed = 1;
nodes = (
"141 0 LINE",
"403 0 LINE",
"519 800 LINE",
"364 800 LINE",
"305 399 LINE",
"296 132 LINE",
"122 132 LINE"
);
}
);
width = 539;
},
{
associatedMasterId = "3B122060-26E0-4730-9241-82784E6CB359";
layerId = "1685AC11-CCD5-467B-A827-BAAD4C3A9A21";
name = "{300, 10}";
paths = (
{
closed = 1;
nodes = (
"109 98 LINE",
"173 98 LINE",
"147 347 LINE",
"105 800 LINE",
"35 800 LINE"
);
},
{
closed = 1;
nodes = (
"120 0 LINE",
"265 0 LINE",
"349 800 LINE",
"279 800 LINE",
"240 347 LINE",
"211 62 LINE",
"112 62 LINE"
);
}
);
width = 384;
},
{
layerId = "5013C991-8699-46CB-BB1C-82E334DBD38B";
paths = (
{
closed = 1;
nodes = (
"114 167 LINE",
"245 167 LINE",
"234 399 LINE",
"175 800 LINE",
"20 800 LINE"
);
},
{
closed = 1;
nodes = (
"141 0 LINE",
"383 0 LINE",
"499 800 LINE",
"344 800 LINE",
"285 399 LINE",
"276 132 LINE",
"122 132 LINE"
);
}
);
width = 519;
},
{
layerId = "3D06B89B-468F-44E0-A3D7-A5BC6911123E";
paths = (
{
closed = 1;
nodes = (
"100 40 LINE",
"120 40 LINE",
"94 330 LINE",
"52 800 LINE",
"30 800 LINE"
);
},
{
closed = 1;
nodes = (
"104 0 LINE",
"150 0 LINE",
"224 800 LINE",
"202 800 LINE",
"160 330 LINE",
"133 20 LINE",
"102.15 20 LINE"
);
}
);
width = 254;
},
{
associatedMasterId = "3D06B89B-468F-44E0-A3D7-A5BC6911123E";
layerId = "2353EB8C-F90C-4458-B489-3419EAD1F543";
name = "{300, 72}";
paths = (
{
closed = 1;
nodes = (
"101 81 LINE",
"148 81 LINE",
"123 347 LINE",
"83 800 LINE",
"28 800 LINE"
);
},
{
closed = 1;
nodes = (
"112 0 LINE",
"207 0 LINE",
"292 800 LINE",
"236 800 LINE",
"197 347 LINE",
"168 48 LINE",
"106 48 LINE"
);
}
);
width = 319;
}
);
leftKerningGroup = V;
rightKerningGroup = V;
unicode = 0056;
},
{
glyphname = W;
layers = (
{
anchors = (
{
name = bottom;
position = "{269, 0}";
},
{
name = top;
position = "{269, 800}";
}
);
layerId = "3B122060-26E0-4730-9241-82784E6CB359";
paths = (
{
closed = 1;
nodes = (
"447 0 LINE",
"449.09 38 LINE",
"377 38 LINE",
"341 535 LINE",
"323 795 LINE",
"216 795 LINE",
"197 535 LINE",
"166 69 LINE",
"204 69 LINE",
"218 284 LINE",
"253 757 LINE",
"287 757 LINE",
"321 284 LINE",
"341 0 LINE"
);
},
{
closed = 1;
nodes = (
"198 0 LINE",
"200.676 38 LINE",
"128 38 LINE",
"103 535 LINE",
"90 800 LINE",
"50 800 LINE",
"92 0 LINE"
);
},
{
closed = 1;
nodes = (
"450 69 LINE",
"491 800 LINE",
"451 800 LINE",
"438 535 LINE",
"412 69 LINE"
);
}
);
width = 541;
},
{
anchors = (
{
name = bottom;
position = "{403, 0}";
},
{
name = top;
position = "{403, 800}";
}
);
background = {
paths = (
{
closed = 1;
nodes = (
"356 0 LINE",
"392 281 LINE",
"401 646 LINE",
"426 646 LINE",
"435 281 LINE",
"471 0 LINE",
"732 0 LINE",
"790 800 LINE",
"627 800 LINE",
"614 572 LINE",
"611 132 LINE",
"581 132 LINE",
"571 572 LINE",
"541 795 LINE",
"286 795 LINE",
"256 572 LINE",
"250 132 LINE",
"220 132 LINE",
"213 572 LINE",
"200 800 LINE",
"37 800 LINE",
"95 0 LINE"
);
}
);
};
layerId = "1DFA7D5B-2E97-4B89-827F-FB43F8066DC1";
paths = (
{
closed = 1;
nodes = (
"775 0 LINE",
"788 132 LINE",
"612 132 LINE",
"614 434 LINE",
"544 795 LINE",
"332 795 LINE",
"262 434 LINE",
"264 178 LINE",
"395 178 LINE",
"403 223 LINE",
"415 668 LINE",
"461 668 LINE",
"473 223 LINE",
"510 0 LINE"
);
},
{
closed = 1;
nodes = (
"361 0 LINE",
"382.901 132 LINE",
"212 132 LINE",
"197 434 LINE",
"171 800 LINE",
"20 800 LINE",
"96 0 LINE"
);
},
{
closed = 1;
nodes = (
"792 178 LINE",
"856 800 LINE",
"705 800 LINE",
"679 434 LINE",
"663 178 LINE"
);
}
);
width = 876;
},
{
anchors = (
{
name = bottom;
position = "{303, 0}";
},
{
name = top;
position = "{303, 800}";
}
);
associatedMasterId = "3B122060-26E0-4730-9241-82784E6CB359";
layerId = "9CB21A66-2ACA-4E40-9FBB-B11F48D564E9";
name = "{300, 10}";
paths = (
{
closed = 1;
nodes = (
"528 0 LINE",
"532 62 LINE",
"439 62 LINE",
"406 510 LINE",
"385 795 LINE",
"234 795 LINE",
"215 510 LINE",
"188 98 LINE",
"248 98 LINE",
"263 269 LINE",
"292 735 LINE",
"329 735 LINE",
"362 269 LINE",
"382 0 LINE"
);
},
{
closed = 1;
nodes = (
"240 0 LINE",
"246 62 LINE",
"149 62 LINE",
"127 510 LINE",
"110 800 LINE",
"43 800 LINE",
"93 0 LINE"
);
},
{
closed = 1;
nodes = (
"535 98 LINE",
"580 800 LINE",
"512 800 LINE",
"496 510 LINE",
"475 98 LINE"
);
}
);
width = 622;
},
{
anchors = (
{
name = bottom;
position = "{403, 0}";
},
{
name = top;
position = "{403, 800}";
}
);
background = {
paths = (
{
closed = 1;
nodes = (
"356 0 LINE",
"392 281 LINE",
"401 646 LINE",
"426 646 LINE",
"435 281 LINE",
"471 0 LINE",
"732 0 LINE",
"790 800 LINE",
"627 800 LINE",
"614 572 LINE",
"611 132 LINE",
"581 132 LINE",
"571 572 LINE",
"541 795 LINE",
"286 795 LINE",
"256 572 LINE",
"250 132 LINE",
"220 132 LINE",
"213 572 LINE",
"200 800 LINE",
"37 800 LINE",
"95 0 LINE"
);
}
);
};
layerId = "5013C991-8699-46CB-BB1C-82E334DBD38B";
paths = (
{
closed = 1;
nodes = (
"716 0 LINE",
"729 132 LINE",
"573 132 LINE",
"575 434 LINE",
"505 795 LINE",
"313 795 LINE",
"243 434 LINE",
"239 167 LINE",
"375 167 LINE",
"384 223 LINE",
"396 668 LINE",
"422 668 LINE",
"434 223 LINE",
"471 0 LINE"
);
},
{
closed = 1;
nodes = (
"341 0 LINE",
"362.901 132 LINE",
"212 132 LINE",
"197 434 LINE",
"171 800 LINE",
"20 800 LINE",
"96 0 LINE"
);
},
{
closed = 1;
nodes = (
"733 167 LINE",
"796 800 LINE",
"645 800 LINE",
"619 434 LINE",
"602 167 LINE"
);
}
);
width = 816;
},
{
anchors = (
{
name = bottom;
position = "{191, 0}";
},
{
name = top;
position = "{191, 800}";
}
);
layerId = "3D06B89B-468F-44E0-A3D7-A5BC6911123E";
paths = (
{
closed = 1;
nodes = (
"297 0 LINE",
"298.1 20 LINE",
"268 20 LINE",
"231 535 LINE",
"213 795 LINE",
"166 795 LINE",
"147 535 LINE",
"113 40 LINE",
"131 40 LINE",
"148 284 LINE",
"184 775 LINE",
"196 775 LINE",
"231 284 LINE",
"251 0 LINE"
);
},
{
closed = 1;
nodes = (
"128 0 LINE",
"129.408 20 LINE",
"99 20 LINE",
"73 535 LINE",
"60 800 LINE",
"40 800 LINE",
"82 0 LINE"
);
},
{
closed = 1;
nodes = (
"299 40 LINE",
"341 800 LINE",
"321 800 LINE",
"308 535 LINE",
"281 40 LINE"
);
}
);
width = 381;
},
{
anchors = (
{
name = bottom;
position = "{253, 0}";
},
{
name = top;
position = "{253, 800}";
}
);
associatedMasterId = "3D06B89B-468F-44E0-A3D7-A5BC6911123E";
layerId = "83319608-F78A-40CD-B0C1-09C88DDB2C5C";
name = "{300, 72}";
paths = (
{
closed = 1;
nodes = (
"417 0 LINE",
"421 48 LINE",
"360 48 LINE",
"326 510 LINE",
"309 795 LINE",
"201 795 LINE",
"183 510 LINE",
"153 84 LINE",
"202 84 LINE",
"217 269 LINE",
"247 748 LINE",
"262 748 LINE",
"292 269 LINE",
"309 0 LINE"
);
},
{
closed = 1;
nodes = (
"195 0 LINE",
"199 48 LINE",
"127 48 LINE",
"104 510 LINE",
"88 800 LINE",
"35 800 LINE",
"86 0 LINE"
);
},
{
closed = 1;
nodes = (
"427 84 LINE",
"471 800 LINE",
"419 800 LINE",
"404 510 LINE",
"382 84 LINE"
);
}
);
width = 504;
}
);
leftKerningGroup = W;
rightKerningGroup = W;
unicode = 0057;
},
{
glyphname = X;
layers = (
{
background = {
paths = (
{
closed = 1;
nodes = (
"82 0 LINE",
"113 193 LINE",
"145 400 LINE",
"157 400 LINE",
"191 198 LINE",
"222 0 LINE",
"244 0 LINE",
"173 424 LINE",
"173 399 LINE",
"239 800 LINE",
"217 800 LINE",
"192 636 LINE",
"157 423 LINE",
"145 423 LINE",
"112 633 LINE",
"87 800 LINE",
"65 800 LINE",
"129 399 LINE",
"129 424 LINE",
"60 0 LINE"
);
}
);
};
layerId = "3B122060-26E0-4730-9241-82784E6CB359";
paths = (
{
closed = 1;
nodes = (
"79 0 LINE",
"119 198 LINE",
"152 352 LINE",
"116 352 LINE",
"40 0 LINE"
);
},
{
closed = 1;
nodes = (
"121 383 LINE",
"180 383 LINE",
"216 198 LINE",
"253 0 LINE",
"292 0 LINE",
"212 421 LINE",
"152 421 LINE",
"118 610 LINE",
"84 800 LINE",
"45 800 LINE"
);
},
{
closed = 1;
nodes = (
"219 452 LINE",
"287 800 LINE",
"248 800 LINE",
"211 610 LINE",
"181 452 LINE"
);
}
);
width = 332;
},
{
background = {
paths = (
{
closed = 1;
nodes = (
"173 0 LINE",
"220 197 LINE",
"234 351 LINE",
"261 351 LINE",
"277 197 LINE",
"325 0 LINE",
"476 0 LINE",
"357 448 LINE",
"354 363 LINE",
"472 800 LINE",
"316 800 LINE",
"278 614 LINE",
"264 463 LINE",
"236 463 LINE",
"221 614 LINE",
"183 800 LINE",
"27 800 LINE",
"145 393 LINE",
"140 466 LINE",
"20 0 LINE"
);
}
);
};
guideLines = (
{
position = "{178, 405}";
},
{
angle = 90;
position = "{178, 405}";
}
);
layerId = "1DFA7D5B-2E97-4B89-827F-FB43F8066DC1";
paths = (
{
closed = 1;
nodes = (
"167 0 LINE",
"222 197 LINE",
"229 298 LINE",
"119 298 LINE",
"20 0 LINE"
);
},
{
closed = 1;
nodes = (
"169 344 LINE",
"275 344 LINE",
"288 197 LINE",
"341 0 LINE",
"488 0 LINE",
"349 476 LINE",
"235 476 LINE",
"222 613 LINE",
"170 800 LINE",
"23 800 LINE"
);
},
{
closed = 1;
nodes = (
"397 522 LINE",
"485 800 LINE",
"338 800 LINE",
"288 613 LINE",
"281 522 LINE"
);
}
);
width = 508;
},
{
background = {
paths = (
{
closed = 1;
nodes = (
"163 0 LINE",
"210 197 LINE",
"224 351 LINE",
"251 351 LINE",
"267 197 LINE",
"315 0 LINE",
"466 0 LINE",
"347 448 LINE",
"344 363 LINE",
"462 800 LINE",
"306 800 LINE",
"268 614 LINE",
"254 463 LINE",
"226 463 LINE",
"211 614 LINE",
"173 800 LINE",
"17 800 LINE",
"135 393 LINE",
"130 466 LINE",
"10 0 LINE"
);
}
);
};
guideLines = (
{
position = "{168, 405}";
},
{
angle = 90;
position = "{168, 405}";
}
);
layerId = "5013C991-8699-46CB-BB1C-82E334DBD38B";
paths = (
{
closed = 1;
nodes = (
"167 0 LINE",
"222 197 LINE",
"231 309 LINE",
"116 309 LINE",
"20 0 LINE"
);
},
{
closed = 1;
nodes = (
"178 344 LINE",
"265 344 LINE",
"278 197 LINE",
"331 0 LINE",
"478 0 LINE",
"340 476 LINE",
"245 476 LINE",
"232 613 LINE",
"180 800 LINE",
"33 800 LINE"
);
},
{
closed = 1;
nodes = (
"401 511 LINE",
"485 800 LINE",
"338 800 LINE",
"288 613 LINE",
"280 511 LINE"
);
}
);
width = 505;
},
{
background = {
paths = (
{
closed = 1;
nodes = (
"42 0 LINE",
"73 193 LINE",
"105 400 LINE",
"117 400 LINE",
"151 198 LINE",
"182 0 LINE",
"204 0 LINE",
"133 424 LINE",
"133 399 LINE",
"199 800 LINE",
"177 800 LINE",
"152 636 LINE",
"117 423 LINE",
"105 423 LINE",
"72 633 LINE",
"47 800 LINE",
"25 800 LINE",
"89 399 LINE",
"89 424 LINE",
"20 0 LINE"
);
}
);
};
layerId = "3D06B89B-468F-44E0-A3D7-A5BC6911123E";
paths = (
{
closed = 1;
nodes = (
"49 0 LINE",
"86 198 LINE",
"118 372 LINE",
"102 372 LINE",
"30 0 LINE"
);
},
{
closed = 1;
nodes = (
"109 392 LINE",
"129 392 LINE",
"166 198 LINE",
"203 0 LINE",
"222 0 LINE",
"143 412 LINE",
"123 412 LINE",
"88 610 LINE",
"54 800 LINE",
"35 800 LINE"
);
},
{
closed = 1;
nodes = (
"151 432 LINE",
"217 800 LINE",
"198 800 LINE",
"164 610 LINE",
"134 432 LINE"
);
}
);
width = 252;
}
);
leftKerningGroup = X;
rightKerningGroup = X;
unicode = 0058;
},
{
glyphname = Y;
layers = (
{
anchors = (
{
name = bottom;
position = "{167, 0}";
},
{
name = top;
position = "{167, 800}";
},
{
name = topleft;
position = "{50, 800}";
}
);
layerId = "3B122060-26E0-4730-9241-82784E6CB359";
paths = (
{
closed = 1;
nodes = (
"187 0 LINE",
"187 290 LINE",
"218 290 LINE",
"224.11 331 LINE",
"151 331 LINE",
"118 556 LINE",
"82 800 LINE",
"40 800 LINE",
"116 290 LINE",
"147 290 LINE",
"147 0 LINE"
);
},
{
closed = 1;
nodes = (
"230 362 LINE",
"296 800 LINE",
"254 800 LINE",
"218 556 LINE",
"189 362 LINE"
);
}
);
width = 334;
},
{
anchors = (
{
name = bottom;
position = "{246, 0}";
},
{
name = top;
position = "{246, 800}";
},
{
name = topleft;
position = "{20, 800}";
}
);
layerId = "1DFA7D5B-2E97-4B89-827F-FB43F8066DC1";
paths = (
{
closed = 1;
nodes = (
"320 0 LINE",
"320 255 LINE",
"335 255 LINE",
"363.734 371 LINE",
"231 371 LINE",
"216 606 LINE",
"173 800 LINE",
"20 800 LINE",
"154 255 LINE",
"170 255 LINE",
"170 0 LINE"
);
},
{
closed = 1;
nodes = (
"383 417 LINE",
"490 800 LINE",
"337 800 LINE",
"294 606 LINE",
"283 417 LINE"
);
}
);
width = 510;
},
{
anchors = (
{
name = bottom;
position = "{187, 0}";
},
{
name = top;
position = "{187, 800}";
},
{
name = topleft;
position = "{43, 800}";
}
);
associatedMasterId = "3B122060-26E0-4730-9241-82784E6CB359";
layerId = "7B67555E-40E1-4850-827E-BDB90D284124";
name = "{300, 10}";
paths = (
{
closed = 1;
nodes = (
"220 0 LINE",
"220 281 LINE",
"247 281 LINE",
"259 341 LINE",
"175 341 LINE",
"139 569 LINE",
"105 800 LINE",
"35 800 LINE",
"126 281 LINE",
"153 281 LINE",
"153 0 LINE"
);
},
{
closed = 1;
nodes = (
"266 377 LINE",
"338 800 LINE",
"268 800 LINE",
"235 569 LINE",
"206 377 LINE"
);
}
);
width = 373;
},
{
anchors = (
{
name = bottom;
position = "{246, 0}";
},
{
name = top;
position = "{240, 800}";
},
{
name = topleft;
position = "{20, 800}";
}
);
layerId = "5013C991-8699-46CB-BB1C-82E334DBD38B";
paths = (
{
closed = 1;
nodes = (
"320 0 LINE",
"320 191 LINE",
"320 192 LINE",
"364.161 371 LINE",
"231 371 LINE",
"216 606 LINE",
"173 800 LINE",
"20 800 LINE",
"170 192 LINE",
"170 191 LINE",
"170 0 LINE"
);
},
{
closed = 1;
nodes = (
"376 406 LINE",
"476 800 LINE",
"323 800 LINE",
"280 606 LINE",
"262 406 LINE"
);
}
);
width = 510;
},
{
anchors = (
{
name = bottom;
position = "{127, 0}";
},
{
name = top;
position = "{127, 800}";
},
{
name = topleft;
position = "{30, 800}";
}
);
layerId = "3D06B89B-468F-44E0-A3D7-A5BC6911123E";
paths = (
{
closed = 1;
nodes = (
"137 0 LINE",
"137 219 LINE",
"137 220 LINE",
"153.65 331 LINE",
"120 331 LINE",
"87 556 LINE",
"51 800 LINE",
"30 800 LINE",
"117 220 LINE",
"117 219 LINE",
"117 0 LINE"
);
},
{
closed = 1;
nodes = (
"159 351 LINE",
"226 800 LINE",
"206 800 LINE",
"170 556 LINE",
"140 351 LINE"
);
}
);
width = 254;
},
{
anchors = (
{
name = bottom;
position = "{157, 0}";
},
{
name = top;
position = "{155, 800}";
},
{
name = topleft;
position = "{28, 800}";
}
);
associatedMasterId = "3D06B89B-468F-44E0-A3D7-A5BC6911123E";
layerId = "1629DE3B-57E4-41F1-8BA1-320E984A4F43";
name = "{300, 72}";
paths = (
{
closed = 1;
nodes = (
"183 0 LINE",
"183 212 LINE",
"183 213 LINE",
"206 341 LINE",
"154 341 LINE",
"117 569 LINE",
"82 800 LINE",
"28 800 LINE",
"130 213 LINE",
"130 212 LINE",
"130 0 LINE"
);
},
{
closed = 1;
nodes = (
"220 373 LINE",
"296 800 LINE",
"241 800 LINE",
"206 569 LINE",
"176 374 LINE"
);
}
);
width = 313;
}
);
leftKerningGroup = V;
rightKerningGroup = V;
unicode = 0059;
},
{
glyphname = Z;
layers = (
{
anchors = (
{
name = bottom;
position = "{140, 0}";
},
{
name = center;
position = "{140, 400}";
},
{
name = top;
position = "{153, 800}";
}
);
layerId = "3B122060-26E0-4730-9241-82784E6CB359";
paths = (
{
closed = 1;
nodes = (
"239 0 LINE",
"239 38 LINE",
"40 38 LINE",
"40 0 LINE"
);
},
{
closed = 1;
nodes = (
"259 762 LINE",
"259 800 LINE",
"51 800 LINE",
"51 762 LINE"
);
},
{
closed = 1;
nodes = (
"91 69 LINE",
"249 731 LINE",
"208 731 LINE",
"50 69 LINE"
);
}
);
width = 299;
},
{
anchors = (
{
name = bottom;
position = "{209, 0}";
},
{
name = center;
position = "{209, 400}";
},
{
name = top;
position = "{225, 800}";
}
);
layerId = "1DFA7D5B-2E97-4B89-827F-FB43F8066DC1";
paths = (
{
closed = 1;
nodes = (
"408 0 LINE",
"408 132 LINE",
"20 132 LINE",
"20 0 LINE"
);
},
{
closed = 1;
nodes = (
"423 668 LINE",
"423 800 LINE",
"32 800 LINE",
"32 668 LINE"
);
},
{
closed = 1;
nodes = (
"193 178 LINE",
"400 622 LINE",
"243 622 LINE",
"43 178 LINE"
);
}
);
width = 443;
},
{
anchors = (
{
name = bottom;
position = "{209, 0}";
},
{
name = center;
position = "{209, 400}";
},
{
name = top;
position = "{209, 800}";
}
);
layerId = "5013C991-8699-46CB-BB1C-82E334DBD38B";
paths = (
{
closed = 1;
nodes = (
"388 0 LINE",
"388 132 LINE",
"20 132 LINE",
"20 0 LINE"
);
},
{
closed = 1;
nodes = (
"403 668 LINE",
"403 800 LINE",
"32 800 LINE",
"32 668 LINE"
);
},
{
closed = 1;
nodes = (
"187 167 LINE",
"385 633 LINE",
"227 633 LINE",
"38 167 LINE"
);
}
);
width = 423;
},
{
anchors = (
{
name = bottom;
position = "{130, 0}";
},
{
name = center;
position = "{130, 400}";
},
{
name = top;
position = "{130, 800}";
}
);
layerId = "3D06B89B-468F-44E0-A3D7-A5BC6911123E";
paths = (
{
closed = 1;
nodes = (
"209 0 LINE",
"209 20 LINE",
"30 20 LINE",
"30 0 LINE"
);
},
{
closed = 1;
nodes = (
"229 780 LINE",
"229 800 LINE",
"41 800 LINE",
"41 780 LINE"
);
},
{
closed = 1;
nodes = (
"59 40 LINE",
"221 760 LINE",
"199 760 LINE",
"38 40 LINE"
);
}
);
width = 259;
}
);
leftKerningGroup = Z;
rightKerningGroup = Z;
unicode = 005A;
},
{
glyphname = R.ss01;
layers = (
{
anchors = (
{
name = bottom;
position = "{175, 0}";
},
{
name = top;
position = "{165, 800}";
}
);
layerId = "3B122060-26E0-4730-9241-82784E6CB359";
paths = (
{
closed = 1;
nodes = (
"110 0 LINE",
"110 800 LINE",
"70 800 LINE",
"70 0 LINE"
);
},
{
closed = 1;
nodes = (
"279 0 LINE",
"280 115 OFFCURVE",
"279 199 OFFCURVE",
"278 294 CURVE SMOOTH",
"277 345 OFFCURVE",
"258 370 OFFCURVE",
"215 376 CURVE",
"215 380 LINE",
"256 387 OFFCURVE",
"274 412 OFFCURVE",
"276 462 CURVE SMOOTH",
"279 533 OFFCURVE",
"279 603 OFFCURVE",
"276 707 CURVE SMOOTH",
"274 773 OFFCURVE",
"241 800 OFFCURVE",
"160 800 CURVE SMOOTH",
"156 800 LINE",
"156 760 LINE",
"160 760 LINE SMOOTH",
"218 760 OFFCURVE",
"234 749 OFFCURVE",
"236 707 CURVE SMOOTH",
"239 619 OFFCURVE",
"239 548 OFFCURVE",
"236 460 CURVE SMOOTH",
"234 410 OFFCURVE",
"219 396 OFFCURVE",
"169 396 CURVE SMOOTH",
"156 396 LINE",
"156 358 LINE",
"172 358 LINE SMOOTH",
"223 358 OFFCURVE",
"237 344 OFFCURVE",
"238 294 CURVE SMOOTH",
"240 200 OFFCURVE",
"240 116 OFFCURVE",
"239 0 CURVE"
);
}
);
width = 349;
},
{
anchors = (
{
name = bottom;
position = "{254, 0}";
},
{
name = top;
position = "{246, 800}";
}
);
background = {
paths = (
{
closed = 1;
nodes = (
"265 655 OFFCURVE",
"288 635 OFFCURVE",
"288 600 CURVE SMOOTH",
"288 505 LINE SMOOTH",
"288 463 OFFCURVE",
"265 440 OFFCURVE",
"223 440 CURVE SMOOTH",
"133 440 LINE",
"133 363 LINE",
"223 364 LINE SMOOTH",
"373 366 OFFCURVE",
"434 411 OFFCURVE",
"438 533 CURVE SMOOTH",
"439 562 OFFCURVE",
"439 575 OFFCURVE",
"438 605 CURVE SMOOTH",
"433 744 OFFCURVE",
"371 800 OFFCURVE",
"223 800 CURVE SMOOTH",
"137 800 LINE",
"137 655 LINE",
"223 655 LINE SMOOTH"
);
},
{
closed = 1;
nodes = (
"180 0 LINE",
"180 800 LINE",
"30 800 LINE",
"30 0 LINE"
);
},
{
closed = 1;
nodes = (
"462 9 LINE",
"449 27 OFFCURVE",
"438 65 OFFCURVE",
"437 88 CURVE SMOOTH",
"434 215 LINE SMOOTH",
"431 343 OFFCURVE",
"372 394 OFFCURVE",
"227 394 CURVE SMOOTH",
"133 394 LINE",
"133 310 LINE",
"221 310 LINE SMOOTH",
"262 310 OFFCURVE",
"283 284 OFFCURVE",
"284 238 CURVE SMOOTH",
"287 88 LINE SMOOTH",
"288 53 OFFCURVE",
"301 22 OFFCURVE",
"323 0 CURVE",
"462 0 LINE"
);
},
{
closed = 1;
nodes = (
"307 367 LINE",
"339 367 LINE",
"339 391 LINE",
"307 391 LINE"
);
}
);
};
layerId = "1DFA7D5B-2E97-4B89-827F-FB43F8066DC1";
paths = (
{
closed = 1;
nodes = (
"190 0 LINE",
"190 800 LINE",
"40 800 LINE",
"40 0 LINE"
);
},
{
closed = 1;
nodes = (
"475 0 LINE",
"476 69 OFFCURVE",
"474 145 OFFCURVE",
"471 214 CURVE SMOOTH",
"467 296 OFFCURVE",
"436 339 OFFCURVE",
"363 357 CURVE",
"363 380 LINE",
"437 399 OFFCURVE",
"469 443 OFFCURVE",
"472 522 CURVE SMOOTH",
"473 551 OFFCURVE",
"473 575 OFFCURVE",
"472 605 CURVE SMOOTH",
"467 744 OFFCURVE",
"406 800 OFFCURVE",
"257 800 CURVE SMOOTH",
"256 800 LINE",
"256 668 LINE",
"257 668 LINE SMOOTH",
"299 668 OFFCURVE",
"322 648 OFFCURVE",
"322 613 CURVE SMOOTH",
"322 577 OFFCURVE",
"322 541 OFFCURVE",
"322 505 CURVE SMOOTH",
"322 463 OFFCURVE",
"299 440 OFFCURVE",
"257 440 CURVE SMOOTH",
"256 440 LINE",
"256 307 LINE",
"257 307 LINE SMOOTH",
"298 307 OFFCURVE",
"319 281 OFFCURVE",
"321 235 CURVE SMOOTH",
"324 161 OFFCURVE",
"326 74 OFFCURVE",
"325 0 CURVE"
);
}
);
width = 515;
},
{
anchors = (
{
name = bottom;
position = "{256, 0}";
},
{
name = top;
position = "{236, 800}";
}
);
background = {
paths = (
{
closed = 1;
nodes = (
"265 655 OFFCURVE",
"288 635 OFFCURVE",
"288 600 CURVE SMOOTH",
"288 505 LINE SMOOTH",
"288 463 OFFCURVE",
"265 440 OFFCURVE",
"223 440 CURVE SMOOTH",
"133 440 LINE",
"133 363 LINE",
"223 364 LINE SMOOTH",
"373 366 OFFCURVE",
"434 411 OFFCURVE",
"438 533 CURVE SMOOTH",
"439 562 OFFCURVE",
"439 575 OFFCURVE",
"438 605 CURVE SMOOTH",
"433 744 OFFCURVE",
"371 800 OFFCURVE",
"223 800 CURVE SMOOTH",
"137 800 LINE",
"137 655 LINE",
"223 655 LINE SMOOTH"
);
},
{
closed = 1;
nodes = (
"180 0 LINE",
"180 800 LINE",
"30 800 LINE",
"30 0 LINE"
);
},
{
closed = 1;
nodes = (
"462 9 LINE",
"449 27 OFFCURVE",
"438 65 OFFCURVE",
"437 88 CURVE SMOOTH",
"434 215 LINE SMOOTH",
"431 343 OFFCURVE",
"372 394 OFFCURVE",
"227 394 CURVE SMOOTH",
"133 394 LINE",
"133 310 LINE",
"221 310 LINE SMOOTH",
"262 310 OFFCURVE",
"283 284 OFFCURVE",
"284 238 CURVE SMOOTH",
"287 88 LINE SMOOTH",
"288 53 OFFCURVE",
"301 22 OFFCURVE",
"323 0 CURVE",
"462 0 LINE"
);
},
{
closed = 1;
nodes = (
"307 367 LINE",
"339 367 LINE",
"339 391 LINE",
"307 391 LINE"
);
}
);
};
layerId = "5013C991-8699-46CB-BB1C-82E334DBD38B";
paths = (
{
closed = 1;
nodes = (
"190 0 LINE",
"190 800 LINE",
"40 800 LINE",
"40 0 LINE"
);
},
{
closed = 1;
nodes = (
"461 0 LINE",
"462 69 OFFCURVE",
"460 145 OFFCURVE",
"457 214 CURVE SMOOTH",
"453 296 OFFCURVE",
"422 339 OFFCURVE",
"349 357 CURVE",
"349 380 LINE",
"423 399 OFFCURVE",
"455 443 OFFCURVE",
"458 522 CURVE SMOOTH",
"459 551 OFFCURVE",
"459 575 OFFCURVE",
"458 605 CURVE SMOOTH",
"453 744 OFFCURVE",
"392 800 OFFCURVE",
"243 800 CURVE SMOOTH",
"240 800 LINE",
"240 668 LINE",
"243 668 LINE SMOOTH",
"285 668 OFFCURVE",
"308 648 OFFCURVE",
"308 613 CURVE SMOOTH",
"308 577 OFFCURVE",
"308 541 OFFCURVE",
"308 505 CURVE SMOOTH",
"308 463 OFFCURVE",
"285 440 OFFCURVE",
"243 440 CURVE SMOOTH",
"240 440 LINE",
"240 307 LINE",
"241 307 LINE SMOOTH",
"282 307 OFFCURVE",
"305 281 OFFCURVE",
"307 235 CURVE SMOOTH",
"310 161 OFFCURVE",
"312 74 OFFCURVE",
"311 0 CURVE"
);
}
);
width = 501;
},
{
anchors = (
{
name = bottom;
position = "{147, 0}";
},
{
name = top;
position = "{140, 800}";
}
);
layerId = "3D06B89B-468F-44E0-A3D7-A5BC6911123E";
paths = (
{
closed = 1;
nodes = (
"80 0 LINE",
"80 800 LINE",
"60 800 LINE",
"60 0 LINE"
);
},
{
closed = 1;
nodes = (
"229 0 LINE",
"230 69 OFFCURVE",
"229 153 OFFCURVE",
"228 294 CURVE SMOOTH",
"227 338 OFFCURVE",
"214 361 OFFCURVE",
"185 371 CURVE",
"185 385 LINE",
"212 395 OFFCURVE",
"225 419 OFFCURVE",
"226 462 CURVE SMOOTH",
"229 533 OFFCURVE",
"229 603 OFFCURVE",
"226 707 CURVE SMOOTH",
"224 773 OFFCURVE",
"199 800 OFFCURVE",
"140 800 CURVE SMOOTH",
"120 800 LINE",
"120 780 LINE",
"140 780 LINE SMOOTH",
"185 780 OFFCURVE",
"204 759 OFFCURVE",
"206 707 CURVE SMOOTH",
"209 619 OFFCURVE",
"209 548 OFFCURVE",
"206 460 CURVE SMOOTH",
"204 408 OFFCURVE",
"185 387 OFFCURVE",
"139 387 CURVE SMOOTH",
"120 387 LINE",
"120 367 LINE",
"142 367 LINE SMOOTH",
"188 367 OFFCURVE",
"207 346 OFFCURVE",
"208 294 CURVE SMOOTH",
"210 200 OFFCURVE",
"210 116 OFFCURVE",
"209 0 CURVE"
);
}
);
width = 289;
}
);
leftKerningGroup = H;
rightKerningGroup = R;
},
{
glyphname = a;
layers = (
{
anchors = (
{
name = bottom;
position = "{175, 0}";
},
{
name = ogonek;
position = "{247, 0}";
},
{
name = top;
position = "{163, 600}";
}
);
background = {
paths = (
{
closed = 1;
nodes = (
"183 -5 LINE",
"229 4 LINE",
"229 126 LINE",
"183 126 LINE"
);
}
);
};
layerId = "3B122060-26E0-4730-9241-82784E6CB359";
paths = (
{
closed = 1;
nodes = (
"45 32 OFFCURVE",
"79 -5 OFFCURVE",
"142 -5 CURVE SMOOTH",
"159 -5 OFFCURVE",
"172 -2 OFFCURVE",
"183 3 CURVE",
"183 35 LINE",
"172 30 OFFCURVE",
"160 28 OFFCURVE",
"146 28 CURVE SMOOTH",
"108 28 OFFCURVE",
"84 56 OFFCURVE",
"81 99 CURVE SMOOTH",
"80 112 OFFCURVE",
"80 131 OFFCURVE",
"80 150 CURVE SMOOTH",
"80 197 OFFCURVE",
"92 244 OFFCURVE",
"136 275 CURVE SMOOTH",
"154 288 OFFCURVE",
"169 298 OFFCURVE",
"183 305 CURVE",
"183 339 LINE",
"165 330 OFFCURVE",
"147 320 OFFCURVE",
"133 311 CURVE SMOOTH",
"61 267 OFFCURVE",
"43 217 OFFCURVE",
"40 151 CURVE SMOOTH",
"39 130 OFFCURVE",
"40 117 OFFCURVE",
"41 97 CURVE SMOOTH"
);
},
{
closed = 1;
nodes = (
"88 404 LINE",
"87 430 OFFCURVE",
"86 469 OFFCURVE",
"88 509 CURVE SMOOTH",
"89.664 548.936 OFFCURVE",
"110.018 566.029 OFFCURVE",
"141 570.645 CURVE",
"141 605.035 LINE",
"75.354 599.133 OFFCURVE",
"50.705 566.009 OFFCURVE",
"48 502 CURVE SMOOTH",
"47 474 OFFCURVE",
"47 443 OFFCURVE",
"49 404 CURVE"
);
},
{
closed = 1;
nodes = (
"269 0 LINE",
"269 499 LINE SMOOTH",
"269 566 OFFCURVE",
"249 599 OFFCURVE",
"187 605 CURVE",
"187 570 LINE",
"218 563 OFFCURVE",
"229 543 OFFCURVE",
"229 504 CURVE SMOOTH",
"229 0 LINE"
);
}
);
width = 330;
},
{
anchors = (
{
name = bottom;
position = "{237, 0}";
},
{
name = ogonek;
position = "{354.605, 0}";
},
{
name = top;
position = "{248, 600}";
}
);
background = {
paths = (
{
closed = 1;
nodes = (
"419 0 LINE",
"420 131 OFFCURVE",
"422 333 OFFCURVE",
"417 412 CURVE SMOOTH",
"409 555 OFFCURVE",
"362 610 OFFCURVE",
"211 610 CURVE SMOOTH",
"157 610 OFFCURVE",
"62 603 OFFCURVE",
"46 600 CURVE",
"46 487 LINE",
"84 487 OFFCURVE",
"175 487 OFFCURVE",
"213 487 CURVE SMOOTH",
"252 487 OFFCURVE",
"267 469 OFFCURVE",
"268 437 CURVE SMOOTH",
"273 281 OFFCURVE",
"270 146 OFFCURVE",
"269 0 CURVE"
);
},
{
closed = 1;
nodes = (
"197 -8 OFFCURVE",
"219 11 OFFCURVE",
"250 65 CURVE",
"280 65 LINE",
"280 142 LINE",
"270 142 LINE",
"258 116 OFFCURVE",
"232 99 OFFCURVE",
"205 99 CURVE SMOOTH",
"174 99 OFFCURVE",
"159 116 OFFCURVE",
"159 148 CURVE SMOOTH",
"159 164 OFFCURVE",
"159 221 OFFCURVE",
"159 232 CURVE SMOOTH",
"159 259 OFFCURVE",
"162 282 OFFCURVE",
"200 292 CURVE SMOOTH",
"231 300 OFFCURVE",
"283 301 OFFCURVE",
"295 301 CURVE",
"291 396 LINE",
"246 394 OFFCURVE",
"204 390 OFFCURVE",
"161 382 CURVE SMOOTH",
"46 360 OFFCURVE",
"9 310 OFFCURVE",
"9 210 CURVE SMOOTH",
"9 196 OFFCURVE",
"9 173 OFFCURVE",
"9 159 CURVE SMOOTH",
"9 48 OFFCURVE",
"63 -8 OFFCURVE",
"147 -8 CURVE SMOOTH"
);
}
);
};
layerId = "1DFA7D5B-2E97-4B89-827F-FB43F8066DC1";
paths = (
{
closed = 1;
nodes = (
"30 30 OFFCURVE",
"72 -8 OFFCURVE",
"166 -8 CURVE SMOOTH",
"197.088 -8 OFFCURVE",
"219.292 -1.892 OFFCURVE",
"237 11.349 CURVE",
"237 99.381 LINE",
"234.362 99.129 OFFCURVE",
"231.693 99 OFFCURVE",
"229 99 CURVE SMOOTH",
"194 99 OFFCURVE",
"175 116 OFFCURVE",
"172 148 CURVE SMOOTH",
"171 162 OFFCURVE",
"171 163 OFFCURVE",
"172 180 CURVE SMOOTH",
"174 210 OFFCURVE",
"181 239 OFFCURVE",
"223 255 CURVE SMOOTH",
"227.46 256.745 OFFCURVE",
"232.147 258.416 OFFCURVE",
"237 260.018 CURVE",
"237 356.125 LINE",
"219.947 351.705 OFFCURVE",
"203.429 346.989 OFFCURVE",
"185 341 CURVE SMOOTH",
"69 302 OFFCURVE",
"28 262 OFFCURVE",
"21 180 CURVE SMOOTH",
"20 170 OFFCURVE",
"20 148 OFFCURVE",
"21 137 CURVE SMOOTH"
);
},
{
closed = 1;
nodes = (
"187 369 LINE",
"186 375 OFFCURVE",
"186 442 OFFCURVE",
"187 453 CURVE SMOOTH",
"188.383 475.133 OFFCURVE",
"196.942 488.176 OFFCURVE",
"214 494.116 CURVE",
"214 609.069 LINE",
"87.783 601.522 OFFCURVE",
"45.619 547.774 OFFCURVE",
"41 436 CURVE SMOOTH",
"40 409 OFFCURVE",
"41 377 OFFCURVE",
"42 369 CURVE"
);
},
{
closed = 1;
nodes = (
"449 0 LINE",
"450 412 LINE SMOOTH",
"450 542 OFFCURVE",
"408.91 600.868 OFFCURVE",
"280 609.017 CURVE",
"280 490.695 LINE",
"295.411 482.762 OFFCURVE",
"303 468.175 OFFCURVE",
"303 446 CURVE SMOOTH",
"303 0 LINE"
);
}
);
width = 491;
},
{
anchors = (
{
name = bottom;
position = "{225, 0}";
},
{
name = ogonek;
position = "{332.541, 0}";
},
{
name = top;
position = "{235, 600}";
}
);
background = {
paths = (
{
closed = 1;
nodes = (
"419 0 LINE",
"420 131 OFFCURVE",
"422 333 OFFCURVE",
"417 412 CURVE SMOOTH",
"409 555 OFFCURVE",
"362 610 OFFCURVE",
"211 610 CURVE SMOOTH",
"157 610 OFFCURVE",
"62 603 OFFCURVE",
"46 600 CURVE",
"46 487 LINE",
"84 487 OFFCURVE",
"175 487 OFFCURVE",
"213 487 CURVE SMOOTH",
"252 487 OFFCURVE",
"267 469 OFFCURVE",
"268 437 CURVE SMOOTH",
"273 281 OFFCURVE",
"270 146 OFFCURVE",
"269 0 CURVE"
);
},
{
closed = 1;
nodes = (
"197 -8 OFFCURVE",
"219 11 OFFCURVE",
"250 65 CURVE",
"280 65 LINE",
"280 142 LINE",
"270 142 LINE",
"258 116 OFFCURVE",
"232 99 OFFCURVE",
"205 99 CURVE SMOOTH",
"174 99 OFFCURVE",
"159 116 OFFCURVE",
"159 148 CURVE SMOOTH",
"159 164 OFFCURVE",
"159 221 OFFCURVE",
"159 232 CURVE SMOOTH",
"159 259 OFFCURVE",
"162 282 OFFCURVE",
"200 292 CURVE SMOOTH",
"231 300 OFFCURVE",
"283 301 OFFCURVE",
"295 301 CURVE",
"291 396 LINE",
"246 394 OFFCURVE",
"204 390 OFFCURVE",
"161 382 CURVE SMOOTH",
"46 360 OFFCURVE",
"9 310 OFFCURVE",
"9 210 CURVE SMOOTH",
"9 196 OFFCURVE",
"9 173 OFFCURVE",
"9 159 CURVE SMOOTH",
"9 48 OFFCURVE",
"63 -8 OFFCURVE",
"147 -8 CURVE SMOOTH"
);
}
);
};
layerId = "5013C991-8699-46CB-BB1C-82E334DBD38B";
paths = (
{
closed = 1;
nodes = (
"30 30 OFFCURVE",
"68 -8 OFFCURVE",
"157 -8 CURVE SMOOTH",
"190.224 -8 OFFCURVE",
"212.838 0.645 OFFCURVE",
"231 19.66 CURVE",
"231 99.987 LINE",
"227.445 99.337 OFFCURVE",
"223.775 99 OFFCURVE",
"220 99 CURVE SMOOTH",
"189 99 OFFCURVE",
"172 116 OFFCURVE",
"169 148 CURVE SMOOTH",
"168 158 OFFCURVE",
"168 167 OFFCURVE",
"169 180 CURVE SMOOTH",
"171 212 OFFCURVE",
"180 239 OFFCURVE",
"215 255 CURVE SMOOTH",
"219.979 257.213 OFFCURVE",
"225.341 259.349 OFFCURVE",
"231 261.388 CURVE",
"231 358.293 LINE",
"212.899 353.333 OFFCURVE",
"195.007 347.864 OFFCURVE",
"176 341 CURVE SMOOTH",
"68 302 OFFCURVE",
"28 262 OFFCURVE",
"21 180 CURVE SMOOTH",
"20 168 OFFCURVE",
"20 148 OFFCURVE",
"21 136 CURVE SMOOTH"
);
},
{
closed = 1;
nodes = (
"187 369 LINE",
"186 387 OFFCURVE",
"186 439 OFFCURVE",
"187 453 CURVE SMOOTH",
"188.49 476.843 OFFCURVE",
"194.422 490.138 OFFCURVE",
"211 495.367 CURVE",
"211 609.411 LINE",
"87.332 603.316 OFFCURVE",
"44.697 549.656 OFFCURVE",
"40 436 CURVE SMOOTH",
"39 414 OFFCURVE",
"40 376 OFFCURVE",
"41 369 CURVE"
);
},
{
closed = 1;
nodes = (
"429 0 LINE",
"430 412 LINE SMOOTH",
"430 544 OFFCURVE",
"389.552 602.947 OFFCURVE",
"261 609.402 CURVE",
"261 492.574 LINE",
"275.952 485.009 OFFCURVE",
"281 470 OFFCURVE",
"281 448 CURVE SMOOTH",
"281 0 LINE"
);
}
);
width = 471;
},
{
anchors = (
{
name = bottom;
position = "{132, 0}";
},
{
name = ogonek;
position = "{201.689, 0.009}";
},
{
name = top;
position = "{132, 600}";
}
);
background = {
paths = (
{
closed = 0;
nodes = (
"28 179 LINE SMOOTH",
"28 259 OFFCURVE",
"48 293 OFFCURVE",
"96 311 CURVE SMOOTH"
);
},
{
closed = 0;
nodes = (
"98 289 LINE SMOOTH",
"54 272 OFFCURVE",
"51 221 OFFCURVE",
"49 179 CURVE SMOOTH"
);
},
{
closed = 0;
nodes = (
"30 85 LINE SMOOTH",
"31 21 OFFCURVE",
"55 -5 OFFCURVE",
"118 -5 CURVE SMOOTH"
);
},
{
closed = 0;
nodes = (
"118 15 LINE SMOOTH",
"70 15 OFFCURVE",
"51 30 OFFCURVE",
"50 85 CURVE SMOOTH"
);
}
);
};
layerId = "3D06B89B-468F-44E0-A3D7-A5BC6911123E";
paths = (
{
closed = 1;
nodes = (
"44 32 OFFCURVE",
"68 -5 OFFCURVE",
"119 -5 CURVE SMOOTH",
"132.615 -5 OFFCURVE",
"143.792 -2.319 OFFCURVE",
"153 2.448 CURVE",
"153 22.8 LINE",
"143.296 17.587 OFFCURVE",
"132.03 15 OFFCURVE",
"119 15 CURVE SMOOTH",
"86 15 OFFCURVE",
"64 42 OFFCURVE",
"61 90 CURVE SMOOTH",
"60 111 OFFCURVE",
"60 134 OFFCURVE",
"60 145 CURVE SMOOTH",
"62 198 OFFCURVE",
"70 245 OFFCURVE",
"111 280 CURVE SMOOTH",
"127.363 293.71 OFFCURVE",
"140.989 304.095 OFFCURVE",
"153 312.452 CURVE",
"153 334.81 LINE",
"138.081 324.811 OFFCURVE",
"123.826 314.62 OFFCURVE",
"111 305 CURVE SMOOTH",
"55 261 OFFCURVE",
"42 209 OFFCURVE",
"40 145 CURVE SMOOTH",
"39 126 OFFCURVE",
"40 110 OFFCURVE",
"41 90 CURVE SMOOTH"
);
},
{
closed = 1;
nodes = (
"65 410 LINE",
"64 446 OFFCURVE",
"64 485 OFFCURVE",
"65 514 CURVE SMOOTH",
"67 561 OFFCURVE",
"83 579 OFFCURVE",
"112 584 CURVE",
"112 604 LINE",
"68 598 OFFCURVE",
"47 571 OFFCURVE",
"45 514 CURVE SMOOTH",
"44 485 OFFCURVE",
"45 446 OFFCURVE",
"46 410 CURVE"
);
},
{
closed = 1;
nodes = (
"213 0 LINE",
"213 514 LINE SMOOTH",
"213 570 OFFCURVE",
"197 598 OFFCURVE",
"152 604 CURVE",
"152 583 LINE",
"182 577 OFFCURVE",
"193 556 OFFCURVE",
"193 514 CURVE SMOOTH",
"193 0 LINE"
);
}
);
width = 274;
}
);
leftKerningGroup = a;
rightKerningGroup = n;
unicode = 0061;
},
{
glyphname = ae;
layers = (
{
anchors = (
{
name = top;
position = "{241, 600}";
}
);
background = {
paths = (
{
closed = 1;
nodes = (
"151 -5 OFFCURVE",
"170 17 OFFCURVE",
"180 47 CURVE",
"193 47 LINE",
"193 86 LINE",
"188 86 LINE",
"175 38 OFFCURVE",
"151 15 OFFCURVE",
"112 15 CURVE SMOOTH",
"79 15 OFFCURVE",
"57 42 OFFCURVE",
"54 90 CURVE SMOOTH",
"53 111 OFFCURVE",
"53 134 OFFCURVE",
"53 145 CURVE SMOOTH",
"55 198 OFFCURVE",
"63 245 OFFCURVE",
"104 280 CURVE SMOOTH",
"148 317 OFFCURVE",
"172 330 OFFCURVE",
"198 343 CURVE",
"198 367 LINE",
"166 349 OFFCURVE",
"131 326 OFFCURVE",
"104 305 CURVE SMOOTH",
"48 261 OFFCURVE",
"35 209 OFFCURVE",
"33 145 CURVE SMOOTH",
"32 126 OFFCURVE",
"33 110 OFFCURVE",
"34 90 CURVE SMOOTH",
"37 32 OFFCURVE",
"61 -5 OFFCURVE",
"112 -5 CURVE SMOOTH"
);
}
);
};
layerId = "3B122060-26E0-4730-9241-82784E6CB359";
paths = (
{
closed = 1;
nodes = (
"80 404 LINE",
"78 434 OFFCURVE",
"79 486 OFFCURVE",
"80 505 CURVE SMOOTH",
"82 547 OFFCURVE",
"98 565 OFFCURVE",
"126 570 CURVE",
"126 605 LINE",
"68 599 OFFCURVE",
"43 567 OFFCURVE",
"41 506 CURVE SMOOTH",
"40 466 OFFCURVE",
"40 443 OFFCURVE",
"41 404 CURVE"
);
},
{
closed = 1;
nodes = (
"304 29 LINE",
"270 34 OFFCURVE",
"254 51 OFFCURVE",
"254 95 CURVE SMOOTH",
"254 505 LINE SMOOTH",
"254 545 OFFCURVE",
"270 565 OFFCURVE",
"304 570 CURVE",
"304 605 LINE",
"272 602 OFFCURVE",
"249 592 OFFCURVE",
"235 575 CURVE",
"223 591 OFFCURVE",
"203 602 OFFCURVE",
"172 605 CURVE",
"172 570 LINE",
"204 562 OFFCURVE",
"213 539 OFFCURVE",
"213 504 CURVE SMOOTH",
"214 122 LINE SMOOTH",
"211 59 OFFCURVE",
"182 34 OFFCURVE",
"148 29 CURVE",
"148 -3 LINE",
"180 3 OFFCURVE",
"204 22 OFFCURVE",
"215 50 CURVE",
"221 50 LINE",
"231 17 OFFCURVE",
"257 -1 OFFCURVE",
"304 -5 CURVE"
);
},
{
closed = 1;
nodes = (
"434 300 LINE",
"438 399 OFFCURVE",
"436 480 OFFCURVE",
"435 502 CURVE SMOOTH",
"432 569 OFFCURVE",
"405 599 OFFCURVE",
"350 605 CURVE",
"350 570 LINE",
"380 564 OFFCURVE",
"393 544 OFFCURVE",
"395 504 CURVE SMOOTH",
"397 473 OFFCURVE",
"397 406 OFFCURVE",
"395 333 CURVE",
"300 333 LINE",
"300 300 LINE"
);
},
{
closed = 1;
nodes = (
"109 37.699 LINE",
"92.933 48.927 OFFCURVE",
"82.911 69.705 OFFCURVE",
"81 99 CURVE SMOOTH",
"79 124 OFFCURVE",
"80 139 OFFCURVE",
"80 150 CURVE SMOOTH",
"81 206 OFFCURVE",
"119 241 OFFCURVE",
"174 273.953 CURVE",
"174 308.267 LINE",
"102 269 OFFCURVE",
"43 225 OFFCURVE",
"40 151 CURVE SMOOTH",
"39 130 OFFCURVE",
"40 118 OFFCURVE",
"41 96 CURVE SMOOTH",
"44.439 40.97 OFFCURVE",
"66 6 OFFCURVE",
"109 -3 CURVE"
);
},
{
closed = 1;
nodes = (
"409 1 OFFCURVE",
"432 31 OFFCURVE",
"435 98 CURVE SMOOTH",
"436 119 OFFCURVE",
"436 168 OFFCURVE",
"434 197 CURVE",
"394 197 LINE",
"396 158 OFFCURVE",
"396 123 OFFCURVE",
"395 95 CURVE SMOOTH",
"393 53 OFFCURVE",
"381 35 OFFCURVE",
"350 30 CURVE",
"350 -5 LINE"
);
}
);
width = 486;
},
{
anchors = (
{
name = top;
position = "{349, 600}";
}
);
background = {
paths = (
{
closed = 1;
nodes = (
"190 -8 OFFCURVE",
"219 14 OFFCURVE",
"243 65 CURVE",
"273 65 LINE",
"273 142 LINE",
"264 142 LINE",
"252 116 OFFCURVE",
"227 99 OFFCURVE",
"200 99 CURVE SMOOTH",
"169 99 OFFCURVE",
"152 116 OFFCURVE",
"149 148 CURVE SMOOTH",
"148 158 OFFCURVE",
"148 167 OFFCURVE",
"149 180 CURVE SMOOTH",
"151 212 OFFCURVE",
"160 239 OFFCURVE",
"195 255 CURVE SMOOTH",
"219 266 OFFCURVE",
"252 274 OFFCURVE",
"285 281 CURVE",
"281 376 LINE",
"236 365 OFFCURVE",
"199 356 OFFCURVE",
"156 341 CURVE SMOOTH",
"48 302 OFFCURVE",
"8 262 OFFCURVE",
"1 180 CURVE SMOOTH",
"0 168 OFFCURVE",
"0 148 OFFCURVE",
"1 136 CURVE SMOOTH",
"10 30 OFFCURVE",
"48 -8 OFFCURVE",
"137 -8 CURVE SMOOTH"
);
}
);
};
layerId = "1DFA7D5B-2E97-4B89-827F-FB43F8066DC1";
paths = (
{
closed = 1;
nodes = (
"169 369 LINE",
"168 387 OFFCURVE",
"168 432 OFFCURVE",
"169 453 CURVE SMOOTH",
"170 474 OFFCURVE",
"175 487 OFFCURVE",
"189 493 CURVE",
"189 609 LINE",
"68 601 OFFCURVE",
"25 547 OFFCURVE",
"20 436 CURVE SMOOTH",
"19 418 OFFCURVE",
"20 375 OFFCURVE",
"21 369 CURVE"
);
},
{
closed = 1;
nodes = (
"445 107 LINE",
"428 114 OFFCURVE",
"419 128 OFFCURVE",
"419 152 CURVE SMOOTH",
"419 453 LINE SMOOTH",
"419 474 OFFCURVE",
"427 487 OFFCURVE",
"443 493 CURVE",
"443 609 LINE",
"405 606 OFFCURVE",
"374 599 OFFCURVE",
"348 586 CURVE",
"325 599 OFFCURVE",
"295 606 OFFCURVE",
"255 609 CURVE",
"255 489 LINE",
"267 479 OFFCURVE",
"270 464 OFFCURVE",
"270 448 CURVE SMOOTH",
"270 201 LINE SMOOTH",
"267 139 OFFCURVE",
"250 114 OFFCURVE",
"232 105 CURVE",
"232 6 LINE",
"253 17 OFFCURVE",
"268 36 OFFCURVE",
"282 65 CURVE",
"294 65 LINE",
"321 19 OFFCURVE",
"371 -4 OFFCURVE",
"445 -9 CURVE"
);
},
{
closed = 1;
nodes = (
"676 275 LINE",
"679 331 OFFCURVE",
"678 412 OFFCURVE",
"677 436 CURVE SMOOTH",
"672 550 OFFCURVE",
"622 601 OFFCURVE",
"509 609 CURVE",
"509 492 LINE",
"521 485 OFFCURVE",
"527 473 OFFCURVE",
"528 454 CURVE SMOOTH",
"528 445 OFFCURVE",
"529 413 OFFCURVE",
"529 378 CURVE",
"485 378 LINE",
"485 275 LINE"
);
},
{
closed = 1;
nodes = (
"186 112.887 LINE",
"178.404 120.96 OFFCURVE",
"173.819 132.435 OFFCURVE",
"171 147 CURVE SMOOTH",
"169 158 OFFCURVE",
"169 168 OFFCURVE",
"170 180 CURVE SMOOTH",
"174 218 OFFCURVE",
"189 244 OFFCURVE",
"223 256.552 CURVE",
"223 354.27 LINE",
"104 321 OFFCURVE",
"30 280 OFFCURVE",
"21 180 CURVE SMOOTH",
"20 168 OFFCURVE",
"20 151 OFFCURVE",
"21 136 CURVE SMOOTH",
"27.972 30.431 OFFCURVE",
"104.375 -7.69 OFFCURVE",
"186 -7.998 CURVE"
);
},
{
closed = 1;
nodes = (
"623 -1 OFFCURVE",
"672 52 OFFCURVE",
"677 168 CURVE SMOOTH",
"678 190 OFFCURVE",
"677 226 OFFCURVE",
"676 233 CURVE",
"529 233 LINE",
"530 206 OFFCURVE",
"530 191 OFFCURVE",
"528 151 CURVE SMOOTH",
"527 133 OFFCURVE",
"524 118 OFFCURVE",
"511 109 CURVE",
"511 -9 LINE"
);
}
);
width = 708;
},
{
anchors = (
{
name = top;
position = "{339, 600}";
}
);
background = {
paths = (
{
closed = 1;
nodes = (
"190 -8 OFFCURVE",
"219 14 OFFCURVE",
"243 65 CURVE",
"273 65 LINE",
"273 142 LINE",
"264 142 LINE",
"252 116 OFFCURVE",
"227 99 OFFCURVE",
"200 99 CURVE SMOOTH",
"169 99 OFFCURVE",
"152 116 OFFCURVE",
"149 148 CURVE SMOOTH",
"148 158 OFFCURVE",
"148 167 OFFCURVE",
"149 180 CURVE SMOOTH",
"151 212 OFFCURVE",
"160 239 OFFCURVE",
"195 255 CURVE SMOOTH",
"219 266 OFFCURVE",
"252 274 OFFCURVE",
"285 281 CURVE",
"281 376 LINE",
"236 365 OFFCURVE",
"199 356 OFFCURVE",
"156 341 CURVE SMOOTH",
"48 302 OFFCURVE",
"8 262 OFFCURVE",
"1 180 CURVE SMOOTH",
"0 168 OFFCURVE",
"0 148 OFFCURVE",
"1 136 CURVE SMOOTH",
"10 30 OFFCURVE",
"48 -8 OFFCURVE",
"137 -8 CURVE SMOOTH"
);
}
);
};
layerId = "5013C991-8699-46CB-BB1C-82E334DBD38B";
paths = (
{
closed = 1;
nodes = (
"167 369 LINE",
"166 387 OFFCURVE",
"166 439 OFFCURVE",
"167 453 CURVE SMOOTH",
"168 475 OFFCURVE",
"173 488 OFFCURVE",
"187 494 CURVE",
"187 609 LINE",
"66 602 OFFCURVE",
"25 548 OFFCURVE",
"20 436 CURVE SMOOTH",
"19 414 OFFCURVE",
"24 378 OFFCURVE",
"25 371 CURVE"
);
},
{
closed = 1;
nodes = (
"438 105 LINE",
"418 111 OFFCURVE",
"408 126 OFFCURVE",
"408 152 CURVE SMOOTH",
"408 453 LINE SMOOTH",
"408 476 OFFCURVE",
"417 489 OFFCURVE",
"436 495 CURVE",
"436 609 LINE",
"396 607 OFFCURVE",
"364 600 OFFCURVE",
"338 586 CURVE",
"313 601 OFFCURVE",
"280 608 OFFCURVE",
"237 610 CURVE",
"237 494 LINE",
"255 488 OFFCURVE",
"260 472 OFFCURVE",
"260 448 CURVE",
"261 201 LINE SMOOTH",
"258 133 OFFCURVE",
"240 110 OFFCURVE",
"220 102 CURVE",
"220 3 LINE",
"240 14 OFFCURVE",
"258 34 OFFCURVE",
"273 65 CURVE",
"284 65 LINE",
"311 18 OFFCURVE",
"361 -5 OFFCURVE",
"438 -9 CURVE"
);
},
{
closed = 1;
nodes = (
"656 275 LINE",
"659 331 OFFCURVE",
"658 414 OFFCURVE",
"657 436 CURVE SMOOTH",
"651 552 OFFCURVE",
"602 603 OFFCURVE",
"486 609 CURVE",
"486 494 LINE",
"501 488 OFFCURVE",
"509 475 OFFCURVE",
"510 453 CURVE SMOOTH",
"510 447 OFFCURVE",
"511 414 OFFCURVE",
"511 378 CURVE",
"458 378 LINE",
"458 275 LINE"
);
},
{
closed = 1;
nodes = (
"190 106.715 LINE",
"177.824 114.631 OFFCURVE",
"170.824 128.543 OFFCURVE",
"169 148 CURVE SMOOTH",
"168 158 OFFCURVE",
"168 168 OFFCURVE",
"169 180 CURVE SMOOTH",
"173 226 OFFCURVE",
"187 246 OFFCURVE",
"230 261.141 CURVE",
"230 358.057 LINE",
"106 324 OFFCURVE",
"30 284 OFFCURVE",
"21 180 CURVE SMOOTH",
"20 168 OFFCURVE",
"20 148 OFFCURVE",
"21 136 CURVE SMOOTH",
"27.853 32.231 OFFCURVE",
"112.331 -6.37 OFFCURVE",
"190 -7.949 CURVE"
);
},
{
closed = 1;
nodes = (
"602 -3 OFFCURVE",
"651 49 OFFCURVE",
"657 168 CURVE SMOOTH",
"658 190 OFFCURVE",
"657 226 OFFCURVE",
"656 233 CURVE",
"510 233 LINE",
"511 198 OFFCURVE",
"511 168 OFFCURVE",
"510 152 CURVE SMOOTH",
"509 127 OFFCURVE",
"502 113 OFFCURVE",
"488 106 CURVE",
"488 -9 LINE"
);
}
);
width = 688;
},
{
anchors = (
{
name = top;
position = "{207, 600}";
}
);
background = {
paths = (
{
closed = 1;
nodes = (
"153 -5 OFFCURVE",
"172 17 OFFCURVE",
"182 47 CURVE",
"195 47 LINE",
"195 86 LINE",
"190 86 LINE",
"177 38 OFFCURVE",
"153 15 OFFCURVE",
"114 15 CURVE SMOOTH",
"81 15 OFFCURVE",
"59 42 OFFCURVE",
"56 90 CURVE SMOOTH",
"55 111 OFFCURVE",
"55 134 OFFCURVE",
"55 145 CURVE SMOOTH",
"57 198 OFFCURVE",
"65 245 OFFCURVE",
"106 280 CURVE SMOOTH",
"150 317 OFFCURVE",
"174 330 OFFCURVE",
"200 343 CURVE",
"200 367 LINE",
"168 349 OFFCURVE",
"133 326 OFFCURVE",
"106 305 CURVE SMOOTH",
"50 261 OFFCURVE",
"37 209 OFFCURVE",
"35 145 CURVE SMOOTH",
"34 126 OFFCURVE",
"35 110 OFFCURVE",
"36 90 CURVE SMOOTH",
"39 32 OFFCURVE",
"63 -5 OFFCURVE",
"114 -5 CURVE SMOOTH"
);
}
);
};
layerId = "3D06B89B-468F-44E0-A3D7-A5BC6911123E";
paths = (
{
closed = 1;
nodes = (
"60 410 LINE",
"59 446 OFFCURVE",
"59 485 OFFCURVE",
"60 514 CURVE SMOOTH",
"62 561 OFFCURVE",
"78 579 OFFCURVE",
"107 584 CURVE",
"107 604 LINE",
"63 598 OFFCURVE",
"42 571 OFFCURVE",
"40 514 CURVE SMOOTH",
"39 485 OFFCURVE",
"40 446 OFFCURVE",
"41 410 CURVE"
);
},
{
closed = 1;
nodes = (
"261 16 LINE",
"226 20 OFFCURVE",
"210 37 OFFCURVE",
"210 85 CURVE SMOOTH",
"210 514 LINE SMOOTH",
"210 557 OFFCURVE",
"226 578 OFFCURVE",
"261 584 CURVE",
"261 604 LINE",
"231 601 OFFCURVE",
"212 590 OFFCURVE",
"201 569 CURVE",
"191 589 OFFCURVE",
"174 600 OFFCURVE",
"147 604 CURVE",
"147 583 LINE",
"177 577 OFFCURVE",
"190 556 OFFCURVE",
"190 514 CURVE SMOOTH",
"190 106 LINE SMOOTH",
"188 52 OFFCURVE",
"164 25 OFFCURVE",
"134 18 CURVE",
"134 -3 LINE",
"162 3 OFFCURVE",
"181 22 OFFCURVE",
"189 47 CURVE",
"194 47 LINE",
"203 15 OFFCURVE",
"224 0 OFFCURVE",
"261 -4 CURVE"
);
},
{
closed = 1;
nodes = (
"366 305 LINE",
"370 415 OFFCURVE",
"368 478 OFFCURVE",
"367 514 CURVE SMOOTH",
"364 571 OFFCURVE",
"346 598 OFFCURVE",
"301 604 CURVE",
"301 583 LINE",
"331 578 OFFCURVE",
"344 557 OFFCURVE",
"347 514 CURVE SMOOTH",
"349 476 OFFCURVE",
"349 413 OFFCURVE",
"347 325 CURVE",
"249 325 LINE",
"249 305 LINE"
);
},
{
closed = 1;
nodes = (
"99 18.816 LINE",
"77.281 27.822 OFFCURVE",
"63.344 52.504 OFFCURVE",
"61 90 CURVE SMOOTH",
"60 111 OFFCURVE",
"60 134 OFFCURVE",
"60 145 CURVE SMOOTH",
"62 203 OFFCURVE",
"99 241 OFFCURVE",
"154 277.983 CURVE",
"154 300.448 LINE",
"92 260 OFFCURVE",
"42 214 OFFCURVE",
"40 145 CURVE SMOOTH",
"39 126 OFFCURVE",
"40 110 OFFCURVE",
"41 90 CURVE SMOOTH",
"43.577 40.187 OFFCURVE",
"61.643 5.864 OFFCURVE",
"99 -2.833 CURVE"
);
},
{
closed = 1;
nodes = (
"349 1 OFFCURVE",
"364 28 OFFCURVE",
"367 85 CURVE SMOOTH",
"368 114 OFFCURVE",
"368 148 OFFCURVE",
"366 191 CURVE",
"346 191 LINE",
"348 148 OFFCURVE",
"348 115 OFFCURVE",
"347 85 CURVE SMOOTH",
"345 39 OFFCURVE",
"333 21 OFFCURVE",
"301 16 CURVE",
"301 -4 LINE"
);
}
);
width = 418;
}
);
leftKerningGroup = a;
leftMetricsKey = a;
rightKerningGroup = e;
rightMetricsKey = e;
unicode = 00E6;
},
{
glyphname = b;
layers = (
{
background = {
paths = (
{
closed = 0;
nodes = (
"59 85 LINE SMOOTH",
"60 21 OFFCURVE",
"79 -5 OFFCURVE",
"142 -5 CURVE SMOOTH",
"205 -5 OFFCURVE",
"224 21 OFFCURVE",
"225 85 CURVE SMOOTH"
);
},
{
closed = 0;
nodes = (
"205 85 LINE SMOOTH",
"204 30 OFFCURVE",
"190 15 OFFCURVE",
"142 15 CURVE SMOOTH",
"94 15 OFFCURVE",
"80 30 OFFCURVE",
"79 85 CURVE SMOOTH"
);
}
);
};
layerId = "3B122060-26E0-4730-9241-82784E6CB359";
paths = (
{
closed = 1;
nodes = (
"101 0 LINE",
"101 800 LINE",
"60 800 LINE",
"60 0 LINE"
);
},
{
closed = 1;
nodes = (
"160.683 -2.094 OFFCURVE",
"177.429 -6 OFFCURVE",
"199 -6 CURVE SMOOTH",
"263 -6 OFFCURVE",
"291 24 OFFCURVE",
"293 97 CURVE SMOOTH",
"296 226 OFFCURVE",
"295 389 OFFCURVE",
"293 503 CURVE SMOOTH",
"292 578 OFFCURVE",
"261 606 OFFCURVE",
"201 606 CURVE SMOOTH",
"178.338 606 OFFCURVE",
"161.016 601.874 OFFCURVE",
"147 593.024 CURVE",
"147 563.773 LINE",
"159.331 569.319 OFFCURVE",
"174.133 572 OFFCURVE",
"192 572 CURVE SMOOTH",
"235 572 OFFCURVE",
"251 553 OFFCURVE",
"252 505 CURVE SMOOTH",
"256 330 OFFCURVE",
"256 248 OFFCURVE",
"252 95 CURVE SMOOTH",
"251 47 OFFCURVE",
"235 28 OFFCURVE",
"192 28 CURVE SMOOTH",
"174.836 28 OFFCURVE",
"159.855 30.473 OFFCURVE",
"147 36.307 CURVE",
"147 6.27 LINE"
);
}
);
width = 344;
},
{
layerId = "1DFA7D5B-2E97-4B89-827F-FB43F8066DC1";
paths = (
{
closed = 1;
nodes = (
"193 0 LINE",
"193 800 LINE",
"40 800 LINE",
"40 0 LINE"
);
},
{
closed = 1;
nodes = (
"277.885 -4.117 OFFCURVE",
"300.258 -10 OFFCURVE",
"332 -10 CURVE SMOOTH",
"420 -10 OFFCURVE",
"475 38 OFFCURVE",
"481 159 CURVE SMOOTH",
"484 224 OFFCURVE",
"484 371 OFFCURVE",
"481 441 CURVE SMOOTH",
"475 562 OFFCURVE",
"430 610 OFFCURVE",
"342 610 CURVE SMOOTH",
"304.41 610 OFFCURVE",
"279.726 601.501 OFFCURVE",
"260 585.563 CURVE",
"260 499.622 LINE",
"265.451 500.528 OFFCURVE",
"270.836 501 OFFCURVE",
"276 501 CURVE SMOOTH",
"314 501 OFFCURVE",
"327 483 OFFCURVE",
"329 452 CURVE SMOOTH",
"334 367 OFFCURVE",
"333 225 OFFCURVE",
"328 146 CURVE SMOOTH",
"326 114 OFFCURVE",
"313 99 OFFCURVE",
"276 99 CURVE SMOOTH",
"270.895 99 OFFCURVE",
"265.501 99.492 OFFCURVE",
"260 100.437 CURVE",
"260 7.04 LINE"
);
}
);
width = 513;
},
{
layerId = "5013C991-8699-46CB-BB1C-82E334DBD38B";
paths = (
{
closed = 1;
nodes = (
"190 0 LINE",
"190 800 LINE",
"40 800 LINE",
"40 0 LINE"
);
},
{
closed = 1;
nodes = (
"258.733 -0.252 OFFCURVE",
"282.146 -10 OFFCURVE",
"320 -10 CURVE SMOOTH",
"403 -10 OFFCURVE",
"455 38 OFFCURVE",
"461 159 CURVE SMOOTH",
"464 222 OFFCURVE",
"464 378 OFFCURVE",
"461 441 CURVE SMOOTH",
"455 562 OFFCURVE",
"413 610 OFFCURVE",
"330 610 CURVE SMOOTH",
"285.127 610 OFFCURVE",
"260.548 596.302 OFFCURVE",
"240 571.075 CURVE",
"240 496.892 LINE",
"248.554 499.565 OFFCURVE",
"257.157 501 OFFCURVE",
"265 501 CURVE SMOOTH",
"296 501 OFFCURVE",
"309 486 OFFCURVE",
"311 454 CURVE SMOOTH",
"316 367 OFFCURVE",
"316 224 OFFCURVE",
"311 146 CURVE SMOOTH",
"309 114 OFFCURVE",
"296 99 OFFCURVE",
"265 99 CURVE SMOOTH",
"257.157 99 OFFCURVE",
"248.554 100.435 OFFCURVE",
"240 103.108 CURVE",
"240 17.942 LINE"
);
}
);
width = 493;
},
{
background = {
paths = (
{
closed = 0;
nodes = (
"59 85 LINE SMOOTH",
"60 21 OFFCURVE",
"79 -5 OFFCURVE",
"142 -5 CURVE SMOOTH",
"205 -5 OFFCURVE",
"224 21 OFFCURVE",
"225 85 CURVE SMOOTH"
);
},
{
closed = 0;
nodes = (
"205 85 LINE SMOOTH",
"204 30 OFFCURVE",
"190 15 OFFCURVE",
"142 15 CURVE SMOOTH",
"94 15 OFFCURVE",
"80 30 OFFCURVE",
"79 85 CURVE SMOOTH"
);
}
);
};
layerId = "3D06B89B-468F-44E0-A3D7-A5BC6911123E";
paths = (
{
closed = 1;
nodes = (
"80 0 LINE",
"80 800 LINE",
"60 800 LINE",
"60 0 LINE"
);
},
{
closed = 1;
nodes = (
"131.054 -1.988 OFFCURVE",
"144.421 -5 OFFCURVE",
"161 -5 CURVE SMOOTH",
"213 -5 OFFCURVE",
"234 21 OFFCURVE",
"235 86 CURVE SMOOTH",
"237 229 OFFCURVE",
"237 352 OFFCURVE",
"235 514 CURVE SMOOTH",
"234 579 OFFCURVE",
"213 605 OFFCURVE",
"161 605 CURVE SMOOTH",
"144.421 605 OFFCURVE",
"131.054 601.988 OFFCURVE",
"120 595.335 CURVE",
"120 576.133 LINE",
"131.173 582.233 OFFCURVE",
"144.634 585 OFFCURVE",
"161 585 CURVE SMOOTH",
"199 585 OFFCURVE",
"214 565 OFFCURVE",
"215 514 CURVE SMOOTH",
"218 349 OFFCURVE",
"218 227 OFFCURVE",
"215 86 CURVE SMOOTH",
"214 35 OFFCURVE",
"199 15 OFFCURVE",
"161 15 CURVE SMOOTH",
"144.634 15 OFFCURVE",
"131.173 17.767 OFFCURVE",
"120 23.867 CURVE",
"120 4.665 LINE"
);
}
);
width = 286;
}
);
leftKerningGroup = h;
rightKerningGroup = o;
unicode = 0062;
},
{
glyphname = c;
layers = (
{
anchors = (
{
name = bottom;
position = "{176, 0}";
},
{
name = top;
position = "{177, 600}";
}
);
layerId = "3B122060-26E0-4730-9241-82784E6CB359";
paths = (
{
closed = 1;
nodes = (
"63.799 31.452 OFFCURVE",
"89.859 0.489 OFFCURVE",
"154 -5.073 CURVE",
"154 29.394 LINE",
"119.004 34.238 OFFCURVE",
"102.835 52.421 OFFCURVE",
"102 95 CURVE SMOOTH",
"99 234 OFFCURVE",
"99 380 OFFCURVE",
"102 504 CURVE SMOOTH",
"102.84 546.852 OFFCURVE",
"117.801 565.701 OFFCURVE",
"154 570.629 CURVE",
"154 605.072 LINE",
"89.859 599.501 OFFCURVE",
"63.799 568.447 OFFCURVE",
"62 501 CURVE SMOOTH",
"58 365 OFFCURVE",
"59 212 OFFCURVE",
"62 98 CURVE SMOOTH"
);
},
{
closed = 1;
nodes = (
"263.967 0.497 OFFCURVE",
"289.303 31.462 OFFCURVE",
"292 98 CURVE SMOOTH",
"293 122 OFFCURVE",
"293 164 OFFCURVE",
"291 197 CURVE",
"251 197 LINE",
"253 157 OFFCURVE",
"252 127 OFFCURVE",
"252 95 CURVE SMOOTH",
"252 51.418 OFFCURVE",
"235.844 33.826 OFFCURVE",
"200 29.273 CURVE",
"200 -5.071 LINE"
);
},
{
closed = 1;
nodes = (
"291 404 LINE",
"293 441 OFFCURVE",
"292 472 OFFCURVE",
"292 502 CURVE SMOOTH",
"292 568.567 OFFCURVE",
"264.488 599.529 OFFCURVE",
"200 605.078 CURVE",
"200 570.727 LINE",
"235.844 566.174 OFFCURVE",
"252 548.582 OFFCURVE",
"252 505 CURVE SMOOTH",
"252 474 OFFCURVE",
"253 442 OFFCURVE",
"251 404 CURVE"
);
}
);
width = 343;
},
{
anchors = (
{
name = bottom;
position = "{244, 0}";
},
{
name = top;
position = "{252, 600}";
}
);
layerId = "1DFA7D5B-2E97-4B89-827F-FB43F8066DC1";
paths = (
{
closed = 1;
nodes = (
"49.336 53.383 OFFCURVE",
"97.028 -0.699 OFFCURVE",
"219 -8.892 CURVE",
"219 107.438 LINE",
"202.642 114.363 OFFCURVE",
"195.65 128.242 OFFCURVE",
"195 151 CURVE SMOOTH",
"191 261 OFFCURVE",
"191 331 OFFCURVE",
"195 453 CURVE SMOOTH",
"195.67 474.428 OFFCURVE",
"202.168 487.336 OFFCURVE",
"219 493.527 CURVE",
"219 608.947 LINE",
"102.304 601.07 OFFCURVE",
"50.259 548.375 OFFCURVE",
"42 430 CURVE SMOOTH",
"39 386 OFFCURVE",
"38 230 OFFCURVE",
"42 168 CURVE SMOOTH"
);
},
{
closed = 1;
nodes = (
"401.859 -1.605 OFFCURVE",
"452.467 50.88 OFFCURVE",
"458 168 CURVE SMOOTH",
"459 190 OFFCURVE",
"458 225 OFFCURVE",
"457 233 CURVE",
"308 233 LINE",
"309 194 OFFCURVE",
"309 172 OFFCURVE",
"308 152 CURVE SMOOTH",
"306.632 129.434 OFFCURVE",
"301.524 114.35 OFFCURVE",
"285 107.067 CURVE",
"285 -9.062 LINE"
);
},
{
closed = 1;
nodes = (
"457 369 LINE",
"458 374 OFFCURVE",
"459 414 OFFCURVE",
"458 436 CURVE SMOOTH",
"452.491 549.847 OFFCURVE",
"402.306 601.316 OFFCURVE",
"285 608.981 CURVE",
"285 492.856 LINE",
"301.293 485.992 OFFCURVE",
"306.662 472.407 OFFCURVE",
"308 453 CURVE SMOOTH",
"309 433 OFFCURVE",
"309 389 OFFCURVE",
"308 369 CURVE"
);
}
);
width = 488;
},
{
anchors = (
{
name = bottom;
position = "{234, 0}";
},
{
name = top;
position = "{242, 600}";
}
);
layerId = "5013C991-8699-46CB-BB1C-82E334DBD38B";
paths = (
{
closed = 1;
nodes = (
"48.521 49.683 OFFCURVE",
"99.308 -2.671 OFFCURVE",
"217 -9.277 CURVE",
"217 106.027 LINE",
"200.236 112.426 OFFCURVE",
"192.699 126.84 OFFCURVE",
"192 152 CURVE SMOOTH",
"189 245 OFFCURVE",
"189 358 OFFCURVE",
"192 453 CURVE SMOOTH",
"192.715 475.877 OFFCURVE",
"200.074 489.043 OFFCURVE",
"217 494.691 CURVE",
"217 609.355 LINE",
"100.84 603.089 OFFCURVE",
"50.419 550.671 OFFCURVE",
"42 430 CURVE SMOOTH",
"39 380 OFFCURVE",
"39 213 OFFCURVE",
"42 168 CURVE SMOOTH"
);
},
{
closed = 1;
nodes = (
"382.556 -3.59 OFFCURVE",
"432.361 48.639 OFFCURVE",
"438 168 CURVE SMOOTH",
"439 190 OFFCURVE",
"438 226 OFFCURVE",
"437 233 CURVE",
"291 233 LINE",
"292 198 OFFCURVE",
"292 168 OFFCURVE",
"291 152 CURVE SMOOTH",
"289.573 126.307 OFFCURVE",
"282.542 111.819 OFFCURVE",
"267 105.63 CURVE",
"267 -9.441 LINE"
);
},
{
closed = 1;
nodes = (
"437 369 LINE",
"438 376 OFFCURVE",
"439 414 OFFCURVE",
"438 436 CURVE SMOOTH",
"432.388 551.99 OFFCURVE",
"383.026 603.231 OFFCURVE",
"267 609.368 CURVE",
"267 494.237 LINE",
"282.395 488.354 OFFCURVE",
"289.607 475.284 OFFCURVE",
"291 453 CURVE SMOOTH",
"292 439 OFFCURVE",
"292 387 OFFCURVE",
"291 369 CURVE"
);
}
);
width = 468;
},
{
anchors = (
{
name = bottom;
position = "{150, 0}";
},
{
name = top;
position = "{150, 600}";
}
);
layerId = "3D06B89B-468F-44E0-A3D7-A5BC6911123E";
paths = (
{
closed = 1;
nodes = (
"62.886 28.277 OFFCURVE",
"81.84 1.404 OFFCURVE",
"130 -3.974 CURVE",
"130 16.138 LINE",
"96.617 20.514 OFFCURVE",
"82.847 38.399 OFFCURVE",
"82 85 CURVE SMOOTH",
"79 254 OFFCURVE",
"79 345 OFFCURVE",
"82 514 CURVE SMOOTH",
"82.847 561.448 OFFCURVE",
"96.617 579.463 OFFCURVE",
"130 583.858 CURVE",
"130 603.973 LINE",
"81.84 598.584 OFFCURVE",
"62.886 571.61 OFFCURVE",
"62 514 CURVE SMOOTH",
"59 371 OFFCURVE",
"59 228 OFFCURVE",
"62 85 CURVE SMOOTH"
);
},
{
closed = 1;
nodes = (
"217.967 1.416 OFFCURVE",
"236.228 28.29 OFFCURVE",
"238 85 CURVE SMOOTH",
"239 114 OFFCURVE",
"239 148 OFFCURVE",
"237 191 CURVE",
"217 191 LINE",
"219 149 OFFCURVE",
"218 116 OFFCURVE",
"218 85 CURVE SMOOTH",
"218 38.371 OFFCURVE",
"203.625 20.493 OFFCURVE",
"170 16.131 CURVE",
"170 -3.97 LINE"
);
},
{
closed = 1;
nodes = (
"237 410 LINE",
"239 453 OFFCURVE",
"238 486 OFFCURVE",
"238 514 CURVE SMOOTH",
"238 571.623 OFFCURVE",
"218.352 598.596 OFFCURVE",
"170 603.976 CURVE",
"170 583.866 LINE",
"203.625 579.484 OFFCURVE",
"218 561.476 OFFCURVE",
"218 514 CURVE SMOOTH",
"218 484 OFFCURVE",
"219 452 OFFCURVE",
"217 410 CURVE"
);
}
);
width = 289;
}
);
leftKerningGroup = o;
rightKerningGroup = c;
unicode = 0063;
},
{
glyphname = d;
layers = (
{
anchors = (
{
name = bottom;
position = "{167, 0}";
},
{
name = center;
position = "{167, 300}";
},
{
name = top;
position = "{165, 800}";
},
{
name = topright;
position = "{287, 650}";
}
);
background = {
paths = (
{
closed = 1;
nodes = (
"198 -42 LINE",
"243 -42 LINE",
"243 662 LINE",
"198 662 LINE"
);
}
);
};
layerId = "3B122060-26E0-4730-9241-82784E6CB359";
paths = (
{
closed = 1;
nodes = (
"53 24 OFFCURVE",
"79 -6 OFFCURVE",
"143 -6 CURVE SMOOTH",
"166 -6 OFFCURVE",
"183 -1 OFFCURVE",
"198 8 CURVE",
"198 37 LINE",
"185 31 OFFCURVE",
"170 28 OFFCURVE",
"152 28 CURVE SMOOTH",
"113 28 OFFCURVE",
"92 44 OFFCURVE",
"91 99 CURVE SMOOTH",
"89 203 OFFCURVE",
"89 368 OFFCURVE",
"92 505 CURVE SMOOTH",
"93 553 OFFCURVE",
"109 572 OFFCURVE",
"153 572 CURVE SMOOTH",
"170 572 OFFCURVE",
"185 569 OFFCURVE",
"198 563 CURVE",
"198 593 LINE",
"184 602 OFFCURVE",
"167 606 OFFCURVE",
"145 606 CURVE SMOOTH",
"85 606 OFFCURVE",
"52 579 OFFCURVE",
"51 503 CURVE SMOOTH",
"49 380 OFFCURVE",
"48 229 OFFCURVE",
"51 97 CURVE SMOOTH"
);
},
{
closed = 1;
nodes = (
"284 0 LINE",
"284 800 LINE",
"243 800 LINE",
"243 0 LINE"
);
}
);
width = 344;
},
{
anchors = (
{
name = bottom;
position = "{252, 0}";
},
{
name = center;
position = "{252, 300}";
},
{
name = top;
position = "{251, 800}";
},
{
name = topright;
position = "{495, 620}";
}
);
layerId = "1DFA7D5B-2E97-4B89-827F-FB43F8066DC1";
paths = (
{
closed = 1;
nodes = (
"38 38 OFFCURVE",
"85 -10 OFFCURVE",
"174 -10 CURVE SMOOTH",
"210.615 -10 OFFCURVE",
"235.843 -1.69 OFFCURVE",
"256 13.905 CURVE",
"256 100.995 LINE",
"249.463 99.687 OFFCURVE",
"243.03 99 OFFCURVE",
"237 99 CURVE SMOOTH",
"200 99 OFFCURVE",
"187 114 OFFCURVE",
"185 146 CURVE SMOOTH",
"179 242 OFFCURVE",
"179 357 OFFCURVE",
"185 458 CURVE SMOOTH",
"187 486 OFFCURVE",
"203 501 OFFCURVE",
"237 501 CURVE SMOOTH",
"243.03 501 OFFCURVE",
"249.463 500.313 OFFCURVE",
"256 499.005 CURVE",
"256 587.14 LINE",
"236.605 602.061 OFFCURVE",
"212.33 610 OFFCURVE",
"176 610 CURVE SMOOTH",
"88 610 OFFCURVE",
"38 562 OFFCURVE",
"32 441 CURVE SMOOTH",
"29 378 OFFCURVE",
"28 227 OFFCURVE",
"32 159 CURVE SMOOTH"
);
},
{
closed = 1;
nodes = (
"473 0 LINE",
"473 800 LINE",
"320 800 LINE",
"320 0 LINE"
);
}
);
width = 513;
},
{
anchors = (
{
name = bottom;
position = "{242, 0}";
},
{
name = center;
position = "{242, 300}";
},
{
name = top;
position = "{253, 800}";
},
{
name = topright;
position = "{453, 620}";
}
);
layerId = "5013C991-8699-46CB-BB1C-82E334DBD38B";
paths = (
{
closed = 1;
nodes = (
"38 38 OFFCURVE",
"83 -10 OFFCURVE",
"166 -10 CURVE SMOOTH",
"207.67 -10 OFFCURVE",
"232.715 1.812 OFFCURVE",
"253 23.7 CURVE",
"253 103.108 LINE",
"244.446 100.435 OFFCURVE",
"235.843 99 OFFCURVE",
"228 99 CURVE SMOOTH",
"197 99 OFFCURVE",
"184 114 OFFCURVE",
"182 146 CURVE SMOOTH",
"177 224 OFFCURVE",
"177 367 OFFCURVE",
"182 454 CURVE SMOOTH",
"184 486 OFFCURVE",
"197 501 OFFCURVE",
"228 501 CURVE SMOOTH",
"235.843 501 OFFCURVE",
"244.446 499.565 OFFCURVE",
"253 496.892 CURVE",
"253 576.888 LINE",
"233.404 598.4 OFFCURVE",
"209.295 610 OFFCURVE",
"168 610 CURVE SMOOTH",
"85 610 OFFCURVE",
"38 562 OFFCURVE",
"32 441 CURVE SMOOTH",
"29 378 OFFCURVE",
"29 222 OFFCURVE",
"32 159 CURVE SMOOTH"
);
},
{
closed = 1;
nodes = (
"453 0 LINE",
"453 800 LINE",
"303 800 LINE",
"303 0 LINE"
);
}
);
width = 493;
},
{
anchors = (
{
name = bottom;
position = "{138, 0}";
},
{
name = center;
position = "{138, 300}";
},
{
name = top;
position = "{133, 800}";
},
{
name = topright;
position = "{236, 660}";
}
);
layerId = "3D06B89B-468F-44E0-A3D7-A5BC6911123E";
paths = (
{
closed = 1;
nodes = (
"52 21 OFFCURVE",
"73 -5 OFFCURVE",
"125 -5 CURVE SMOOTH",
"141.579 -5 OFFCURVE",
"154.946 -1.386 OFFCURVE",
"166 5.662 CURVE",
"166 23.867 LINE",
"154.827 17.767 OFFCURVE",
"141.366 15 OFFCURVE",
"125 15 CURVE SMOOTH",
"87 15 OFFCURVE",
"72 35 OFFCURVE",
"71 86 CURVE SMOOTH",
"69 227 OFFCURVE",
"69 349 OFFCURVE",
"71 514 CURVE SMOOTH",
"72 565 OFFCURVE",
"88 585 OFFCURVE",
"126 585 CURVE SMOOTH",
"141.875 585 OFFCURVE",
"155.024 582.274 OFFCURVE",
"166 576.269 CURVE",
"166 595.923 LINE",
"155.142 602.166 OFFCURVE",
"142.082 605 OFFCURVE",
"126 605 CURVE SMOOTH",
"74 605 OFFCURVE",
"52 579 OFFCURVE",
"51 514 CURVE SMOOTH",
"49 352 OFFCURVE",
"49 229 OFFCURVE",
"51 86 CURVE SMOOTH"
);
},
{
closed = 1;
nodes = (
"226 0 LINE",
"226 800 LINE",
"206 800 LINE",
"206 0 LINE"
);
}
);
width = 286;
}
);
leftKerningGroup = o;
rightKerningGroup = l;
unicode = 0064;
},
{
glyphname = eth;
layers = (
{
layerId = "3B122060-26E0-4730-9241-82784E6CB359";
paths = (
{
closed = 1;
nodes = (
"251 -7 OFFCURVE",
"285 25 OFFCURVE",
"285 101 CURVE SMOOTH",
"285 205 OFFCURVE",
"285 283 OFFCURVE",
"285 406 CURVE SMOOTH",
"285 636 OFFCURVE",
"219 721 OFFCURVE",
"103 805 CURVE",
"82 770 LINE",
"180 700 OFFCURVE",
"245 617 OFFCURVE",
"245 421 CURVE SMOOTH",
"245 320 OFFCURVE",
"245 212 OFFCURVE",
"245 98 CURVE SMOOTH",
"245 50 OFFCURVE",
"221 29 OFFCURVE",
"171 29 CURVE SMOOTH",
"121 29 OFFCURVE",
"94 45 OFFCURVE",
"93 99 CURVE SMOOTH",
"91 184 OFFCURVE",
"90 314 OFFCURVE",
"92 445 CURVE SMOOTH",
"93 494 OFFCURVE",
"112 517 OFFCURVE",
"159 517 CURVE SMOOTH",
"207 517 OFFCURVE",
"244 492 OFFCURVE",
"245 447 CURVE",
"259 454 LINE",
"259 471 OFFCURVE",
"245 486 OFFCURVE",
"235 499 CURVE",
"234 528 OFFCURVE",
"194 552 OFFCURVE",
"150 552 CURVE SMOOTH",
"86 552 OFFCURVE",
"53 519 OFFCURVE",
"52 448 CURVE SMOOTH",
"49 299 OFFCURVE",
"49 186 OFFCURVE",
"52 103 CURVE SMOOTH",
"55 25 OFFCURVE",
"89 -7 OFFCURVE",
"171 -7 CURVE SMOOTH"
);
},
{
closed = 1;
nodes = (
"252 491 LINE",
"252 516 LINE",
"229 516 LINE",
"235 490 LINE"
);
},
{
closed = 1;
nodes = (
"223 640 LINE",
"207 671 LINE",
"112 629 LINE",
"128 598 LINE"
);
},
{
closed = 1;
nodes = (
"322 685 LINE",
"306 716 LINE",
"211 674 LINE",
"227 643 LINE"
);
}
);
width = 341;
},
{
layerId = "1DFA7D5B-2E97-4B89-827F-FB43F8066DC1";
paths = (
{
closed = 1;
nodes = (
"420 -10 OFFCURVE",
"478 47 OFFCURVE",
"485 192 CURVE SMOOTH",
"487 230 OFFCURVE",
"487 312 OFFCURVE",
"485 348 CURVE SMOOTH",
"475 552 OFFCURVE",
"404 705 OFFCURVE",
"215 810 CURVE",
"133 683 LINE",
"263 617 OFFCURVE",
"330 502 OFFCURVE",
"332 376 CURVE SMOOTH",
"333 318 OFFCURVE",
"336 240 OFFCURVE",
"332 162 CURVE SMOOTH",
"330 130 OFFCURVE",
"307 112 OFFCURVE",
"264 112 CURVE SMOOTH",
"219 112 OFFCURVE",
"196 130 OFFCURVE",
"195 163 CURVE SMOOTH",
"193 224 OFFCURVE",
"192 314 OFFCURVE",
"193 357 CURVE SMOOTH",
"194 389 OFFCURVE",
"216 410 OFFCURVE",
"261 410 CURVE SMOOTH",
"307 410 OFFCURVE",
"329 392 OFFCURVE",
"333 360 CURVE",
"344 420 LINE",
"346 431 OFFCURVE",
"323 452 OFFCURVE",
"312 452 CURVE",
"303 497 OFFCURVE",
"259 531 OFFCURVE",
"191 531 CURVE SMOOTH",
"107 531 OFFCURVE",
"43 464 OFFCURVE",
"41 362 CURVE SMOOTH",
"40 308 OFFCURVE",
"39 245 OFFCURVE",
"42 191 CURVE SMOOTH",
"49 47 OFFCURVE",
"112 -10 OFFCURVE",
"265 -10 CURVE SMOOTH"
);
},
{
closed = 1;
nodes = (
"348 443 LINE",
"348 476 LINE",
"299 476 LINE",
"300 443 LINE"
);
},
{
closed = 1;
nodes = (
"308 599 LINE",
"270 659 LINE",
"165 611 LINE",
"197 548 LINE"
);
},
{
closed = 1;
nodes = (
"457 680 LINE",
"425 743 LINE",
"319 695 LINE",
"356 634 LINE"
);
}
);
width = 516;
},
{
layerId = "5013C991-8699-46CB-BB1C-82E334DBD38B";
paths = (
{
closed = 1;
nodes = (
"404 -10 OFFCURVE",
"458 47 OFFCURVE",
"465 191 CURVE SMOOTH",
"467 230 OFFCURVE",
"467 308 OFFCURVE",
"465 348 CURVE SMOOTH",
"455 552 OFFCURVE",
"390 705 OFFCURVE",
"212 810 CURVE",
"131 683 LINE",
"252 617 OFFCURVE",
"313 499 OFFCURVE",
"315 376 CURVE SMOOTH",
"316 314 OFFCURVE",
"318 226 OFFCURVE",
"315 163 CURVE SMOOTH",
"313 130 OFFCURVE",
"292 112 OFFCURVE",
"254 112 CURVE SMOOTH",
"215 112 OFFCURVE",
"193 130 OFFCURVE",
"192 163 CURVE SMOOTH",
"190 226 OFFCURVE",
"190 314 OFFCURVE",
"191 359 CURVE SMOOTH",
"192 392 OFFCURVE",
"215 410 OFFCURVE",
"252 410 CURVE SMOOTH",
"293 410 OFFCURVE",
"312 392 OFFCURVE",
"316 360 CURVE",
"325 420 LINE",
"327 431 OFFCURVE",
"306 452 OFFCURVE",
"295 452 CURVE",
"286 497 OFFCURVE",
"247 531 OFFCURVE",
"182 531 CURVE SMOOTH",
"104 531 OFFCURVE",
"43 464 OFFCURVE",
"41 362 CURVE SMOOTH",
"40 308 OFFCURVE",
"40 231 OFFCURVE",
"42 191 CURVE SMOOTH",
"49 47 OFFCURVE",
"108 -10 OFFCURVE",
"255 -10 CURVE SMOOTH"
);
},
{
closed = 1;
nodes = (
"330 443 LINE",
"330 476 LINE",
"283 476 LINE",
"283 443 LINE"
);
},
{
closed = 1;
nodes = (
"288 614 LINE",
"258 659 LINE",
"162 611 LINE",
"186 563 LINE"
);
},
{
closed = 1;
nodes = (
"428 695 LINE",
"404 743 LINE",
"307 695 LINE",
"336 649 LINE"
);
}
);
width = 496;
},
{
layerId = "3D06B89B-468F-44E0-A3D7-A5BC6911123E";
paths = (
{
closed = 1;
nodes = (
"203 -6 OFFCURVE",
"231 21 OFFCURVE",
"231 87 CURVE SMOOTH",
"231 182 OFFCURVE",
"231 292 OFFCURVE",
"231 416 CURVE SMOOTH",
"231 651 OFFCURVE",
"172 726 OFFCURVE",
"80 804 CURVE",
"70 786 LINE",
"153 715 OFFCURVE",
"211 638 OFFCURVE",
"211 429 CURVE SMOOTH",
"211 307 OFFCURVE",
"211 186 OFFCURVE",
"211 87 CURVE SMOOTH",
"211 35 OFFCURVE",
"189 14 OFFCURVE",
"144 14 CURVE SMOOTH",
"94 14 OFFCURVE",
"74 35 OFFCURVE",
"72 87 CURVE SMOOTH",
"69 189 OFFCURVE",
"69 301 OFFCURVE",
"72 463 CURVE SMOOTH",
"73 515 OFFCURVE",
"90 536 OFFCURVE",
"132 536 CURVE SMOOTH",
"176 536 OFFCURVE",
"210 510 OFFCURVE",
"211 463 CURVE",
"224 460 LINE",
"224 479 OFFCURVE",
"211 494 OFFCURVE",
"204 508 CURVE",
"204 534 OFFCURVE",
"168 556 OFFCURVE",
"132 556 CURVE SMOOTH",
"77 556 OFFCURVE",
"53 529 OFFCURVE",
"52 463 CURVE SMOOTH",
"49 301 OFFCURVE",
"49 189 OFFCURVE",
"52 87 CURVE SMOOTH",
"54 21 OFFCURVE",
"80 -6 OFFCURVE",
"144 -6 CURVE SMOOTH"
);
},
{
closed = 1;
nodes = (
"216 500 LINE",
"216 523 LINE",
"199 523 LINE",
"205 498 LINE"
);
},
{
closed = 1;
nodes = (
"183 657 LINE",
"175 675 LINE",
"76 627 LINE",
"85 609 LINE"
);
},
{
closed = 1;
nodes = (
"252 691 LINE",
"243 709 LINE",
"175 675 LINE",
"183 657 LINE"
);
}
);
width = 292;
}
);
leftKerningGroup = d;
rightKerningGroup = d;
unicode = 00F0;
},
{
glyphname = dcroat;
layers = (
{
components = (
{
name = d;
}
);
layerId = "3B122060-26E0-4730-9241-82784E6CB359";
rightMetricsKey = "=20";
paths = (
{
closed = 1;
nodes = (
"204 683 LINE",
"324 683 LINE",
"324 703 LINE",
"204 703 LINE"
);
}
);
width = 344;
},
{
components = (
{
name = d;
}
);
layerId = "1DFA7D5B-2E97-4B89-827F-FB43F8066DC1";
paths = (
{
closed = 1;
nodes = (
"224 667 LINE",
"502 667 LINE",
"502 739 LINE",
"224 739 LINE"
);
}
);
width = 513;
},
{
components = (
{
name = d;
}
);
layerId = "5013C991-8699-46CB-BB1C-82E334DBD38B";
paths = (
{
closed = 1;
nodes = (
"224 667 LINE",
"502 667 LINE",
"502 739 LINE",
"224 739 LINE"
);
}
);
width = 507;
},
{
components = (
{
name = d;
}
);
layerId = "3D06B89B-468F-44E0-A3D7-A5BC6911123E";
paths = (
{
closed = 1;
nodes = (
"134 683 LINE",
"254 683 LINE",
"254 703 LINE",
"134 703 LINE"
);
}
);
width = 259;
}
);
leftKerningGroup = o;
leftMetricsKey = d;
rightKerningGroup = l;
unicode = 0111;
},
{
glyphname = e;
layers = (
{
anchors = (
{
name = bottom;
position = "{177, 0}";
},
{
name = ogonek;
position = "{244, 0}";
},
{
name = top;
position = "{177, 600}";
}
);
layerId = "3B122060-26E0-4730-9241-82784E6CB359";
paths = (
{
closed = 1;
nodes = (
"63.804 31.268 OFFCURVE",
"90.004 0.317 OFFCURVE",
"156 -5.119 CURVE",
"156 29.134 LINE",
"119.62 33.561 OFFCURVE",
"102.851 51.618 OFFCURVE",
"102 95 CURVE SMOOTH",
"99 235 OFFCURVE",
"99 381 OFFCURVE",
"102 504 CURVE SMOOTH",
"102.849 542.193 OFFCURVE",
"117.384 564.539 OFFCURVE",
"156 570.425 CURVE",
"156 605.077 LINE",
"91.493 599.52 OFFCURVE",
"63.799 568.467 OFFCURVE",
"62 501 CURVE SMOOTH",
"58 365 OFFCURVE",
"59 212 OFFCURVE",
"62 98 CURVE SMOOTH"
);
},
{
closed = 1;
nodes = (
"266.174 0.446 OFFCURVE",
"288.4 31.406 OFFCURVE",
"292 98 CURVE SMOOTH",
"293 119 OFFCURVE",
"293 166 OFFCURVE",
"291 197 CURVE",
"251 197 LINE",
"253 160 OFFCURVE",
"253 115 OFFCURVE",
"252 95 CURVE SMOOTH",
"250.358 53.124 OFFCURVE",
"235.906 34.845 OFFCURVE",
"202 29.645 CURVE",
"202 -5.084 LINE"
);
},
{
closed = 1;
nodes = (
"291 289 LINE",
"295 373 OFFCURVE",
"293 480 OFFCURVE",
"292 502 CURVE SMOOTH",
"289 565 OFFCURVE",
"265 599 OFFCURVE",
"202 605 CURVE",
"202 570 LINE",
"233 565 OFFCURVE",
"250 546 OFFCURVE",
"252 504 CURVE SMOOTH",
"254 479 OFFCURVE",
"254 393 OFFCURVE",
"252 322 CURVE",
"146 322 LINE",
"146 289 LINE"
);
}
);
width = 343;
},
{
anchors = (
{
name = bottom;
position = "{250, 0}";
},
{
name = ogonek;
position = "{355, 0}";
},
{
name = top;
position = "{250, 600}";
}
);
layerId = "1DFA7D5B-2E97-4B89-827F-FB43F8066DC1";
paths = (
{
closed = 1;
nodes = (
"49.336 53.383 OFFCURVE",
"97.028 -0.699 OFFCURVE",
"219 -8.892 CURVE",
"219 107.438 LINE",
"202.642 114.363 OFFCURVE",
"195.65 128.242 OFFCURVE",
"195 151 CURVE SMOOTH",
"191 261 OFFCURVE",
"191 331 OFFCURVE",
"195 453 CURVE SMOOTH",
"195.67 474.428 OFFCURVE",
"202.168 487.336 OFFCURVE",
"219 493.527 CURVE",
"219 608.947 LINE",
"102.304 601.07 OFFCURVE",
"50.259 548.375 OFFCURVE",
"42 430 CURVE SMOOTH",
"39 386 OFFCURVE",
"38 230 OFFCURVE",
"42 168 CURVE SMOOTH"
);
},
{
closed = 1;
nodes = (
"401.859 -1.605 OFFCURVE",
"452.467 50.88 OFFCURVE",
"458 168 CURVE SMOOTH",
"459 190 OFFCURVE",
"458 225 OFFCURVE",
"457 233 CURVE",
"308 233 LINE",
"310 194 OFFCURVE",
"309 172 OFFCURVE",
"308 152 CURVE SMOOTH",
"306.67 128.057 OFFCURVE",
"300.474 113.846 OFFCURVE",
"285 107.012 CURVE",
"285 -9.062 LINE"
);
},
{
closed = 1;
nodes = (
"457 275 LINE",
"460 331 OFFCURVE",
"459 412 OFFCURVE",
"458 436 CURVE SMOOTH",
"452 550 OFFCURVE",
"402 601 OFFCURVE",
"285 609 CURVE",
"285 493 LINE",
"300 486 OFFCURVE",
"307 474 OFFCURVE",
"308 453 CURVE SMOOTH",
"309 444 OFFCURVE",
"309 412 OFFCURVE",
"309 378 CURVE",
"241 378 LINE",
"241 275 LINE"
);
}
);
width = 489;
},
{
anchors = (
{
name = bottom;
position = "{240, 0}";
},
{
name = ogonek;
position = "{326, 0}";
},
{
name = top;
position = "{240, 600}";
}
);
layerId = "5013C991-8699-46CB-BB1C-82E334DBD38B";
paths = (
{
closed = 1;
nodes = (
"48.521 49.683 OFFCURVE",
"99.308 -2.671 OFFCURVE",
"217 -9.277 CURVE",
"217 106.027 LINE",
"200.236 112.426 OFFCURVE",
"192.699 126.84 OFFCURVE",
"192 152 CURVE SMOOTH",
"189 245 OFFCURVE",
"189 358 OFFCURVE",
"192 453 CURVE SMOOTH",
"192.715 475.877 OFFCURVE",
"200.074 489.043 OFFCURVE",
"217 494.691 CURVE",
"217 609.355 LINE",
"100.84 603.089 OFFCURVE",
"50.419 550.671 OFFCURVE",
"42 430 CURVE SMOOTH",
"39 380 OFFCURVE",
"39 213 OFFCURVE",
"42 168 CURVE SMOOTH"
);
},
{
closed = 1;
nodes = (
"382.556 -3.59 OFFCURVE",
"432.361 48.639 OFFCURVE",
"438 168 CURVE SMOOTH",
"439 190 OFFCURVE",
"438 226 OFFCURVE",
"437 233 CURVE",
"291 233 LINE",
"292 198 OFFCURVE",
"292 168 OFFCURVE",
"291 152 CURVE SMOOTH",
"289.573 126.307 OFFCURVE",
"282.542 111.819 OFFCURVE",
"267 105.63 CURVE",
"267 -9.441 LINE"
);
},
{
closed = 1;
nodes = (
"437 275 LINE",
"440 331 OFFCURVE",
"439 414 OFFCURVE",
"438 436 CURVE SMOOTH",
"432 552 OFFCURVE",
"383 603 OFFCURVE",
"267 609 CURVE",
"267 494 LINE",
"282 488 OFFCURVE",
"290 475 OFFCURVE",
"291 453 CURVE SMOOTH",
"291 447 OFFCURVE",
"292 414 OFFCURVE",
"292 378 CURVE",
"240 378 LINE",
"240 275 LINE"
);
}
);
width = 469;
},
{
anchors = (
{
name = bottom;
position = "{150, 0}";
},
{
name = ogonek;
position = "{211, 0}";
},
{
name = top;
position = "{150, 600}";
}
);
layerId = "3D06B89B-468F-44E0-A3D7-A5BC6911123E";
paths = (
{
closed = 1;
nodes = (
"62.884 28.427 OFFCURVE",
"81.74 1.546 OFFCURVE",
"131 -3.931 CURVE",
"131 16.012 LINE",
"96.892 20.162 OFFCURVE",
"82.856 37.936 OFFCURVE",
"82 85 CURVE SMOOTH",
"79 256 OFFCURVE",
"79 345 OFFCURVE",
"82 514 CURVE SMOOTH",
"82.843 556.982 OFFCURVE",
"97.181 577.945 OFFCURVE",
"131 583.474 CURVE",
"131 603.866 LINE",
"83.149 598.237 OFFCURVE",
"62.881 571.241 OFFCURVE",
"62 514 CURVE SMOOTH",
"59 371 OFFCURVE",
"59 228 OFFCURVE",
"62 85 CURVE SMOOTH"
);
},
{
closed = 1;
nodes = (
"219.876 0.987 OFFCURVE",
"235.32 27.835 OFFCURVE",
"238 85 CURVE SMOOTH",
"239 114 OFFCURVE",
"239 148 OFFCURVE",
"237 191 CURVE",
"217 191 LINE",
"219 148 OFFCURVE",
"219 115 OFFCURVE",
"218 85 CURVE SMOOTH",
"216.324 38.898 OFFCURVE",
"203.405 20.9 OFFCURVE",
"171 16.284 CURVE",
"171 -4.096 LINE"
);
},
{
closed = 1;
nodes = (
"237 292 LINE",
"241 402 OFFCURVE",
"239 478 OFFCURVE",
"238 514 CURVE SMOOTH",
"235 572 OFFCURVE",
"216 598 OFFCURVE",
"171 604 CURVE",
"171 584 LINE",
"202 578 OFFCURVE",
"215 557 OFFCURVE",
"218 514 CURVE SMOOTH",
"220 476 OFFCURVE",
"220 401 OFFCURVE",
"218 312 CURVE",
"110 312 LINE",
"110 292 LINE"
);
}
);
width = 289;
}
);
leftKerningGroup = o;
rightKerningGroup = e;
unicode = 0065;
},
{
glyphname = f;
layers = (
{
layerId = "3B122060-26E0-4730-9241-82784E6CB359";
paths = (
{
closed = 1;
nodes = (
"72 566 LINE",
"73 0 LINE",
"113 0 LINE",
"112 705 LINE SMOOTH",
"112 761 OFFCURVE",
"134 772 OFFCURVE",
"182 772 CURVE SMOOTH",
"208 772 OFFCURVE",
"229 770 OFFCURVE",
"244 768 CURVE",
"244 801 LINE",
"226 804 OFFCURVE",
"197 807 OFFCURVE",
"180 807 CURVE SMOOTH",
"102 807 OFFCURVE",
"72 777 OFFCURVE",
"72 703 CURVE SMOOTH",
"72 600 LINE",
"30 600 LINE",
"30 566 LINE"
);
},
{
closed = 1;
nodes = (
"230 566 LINE",
"230 600 LINE",
"148 600 LINE",
"148 566 LINE"
);
}
);
width = 254;
},
{
layerId = "1DFA7D5B-2E97-4B89-827F-FB43F8066DC1";
paths = (
{
closed = 1;
nodes = (
"101 487 LINE",
"102 0 LINE",
"255 0 LINE",
"254 645 LINE SMOOTH",
"254 677 OFFCURVE",
"276 695 OFFCURVE",
"316 695 CURVE SMOOTH",
"342 695 OFFCURVE",
"369 695 OFFCURVE",
"395 695 CURVE",
"395 804 LINE",
"369 808 OFFCURVE",
"340 811 OFFCURVE",
"316 811 CURVE SMOOTH",
"170 811 OFFCURVE",
"101 760 OFFCURVE",
"101 633 CURVE SMOOTH",
"101 600 LINE",
"30 600 LINE",
"30 487 LINE"
);
},
{
closed = 1;
nodes = (
"369 487 LINE",
"369 600 LINE",
"306 600 LINE",
"306 487 LINE"
);
}
);
width = 405;
},
{
layerId = "5013C991-8699-46CB-BB1C-82E334DBD38B";
paths = (
{
closed = 1;
nodes = (
"98 487 LINE",
"98 0 LINE",
"248 0 LINE",
"248 645 LINE SMOOTH",
"248 677 OFFCURVE",
"268 695 OFFCURVE",
"302 695 CURVE SMOOTH",
"326 695 OFFCURVE",
"351 695 OFFCURVE",
"375 695 CURVE",
"375 804 LINE",
"351 808 OFFCURVE",
"325 811 OFFCURVE",
"302 811 CURVE SMOOTH",
"164 811 OFFCURVE",
"98 760 OFFCURVE",
"98 633 CURVE SMOOTH",
"98 600 LINE",
"30 600 LINE",
"30 487 LINE"
);
},
{
closed = 1;
nodes = (
"350 487 LINE",
"350 600 LINE",
"298 600 LINE",
"298 487 LINE"
);
}
);
width = 385;
},
{
layerId = "3D06B89B-468F-44E0-A3D7-A5BC6911123E";
paths = (
{
closed = 1;
nodes = (
"62 580 LINE",
"63 0 LINE",
"83 0 LINE",
"82 716 LINE SMOOTH",
"82 771 OFFCURVE",
"97 786 OFFCURVE",
"145 786 CURVE SMOOTH",
"166 786 OFFCURVE",
"182 784 OFFCURVE",
"196 781 CURVE",
"196 800 LINE",
"183 803 OFFCURVE",
"158 806 OFFCURVE",
"143 806 CURVE SMOOTH",
"83 806 OFFCURVE",
"62 780 OFFCURVE",
"62 716 CURVE SMOOTH",
"62 600 LINE",
"30 600 LINE",
"30 580 LINE"
);
},
{
closed = 1;
nodes = (
"186 580 LINE",
"186 600 LINE",
"112 600 LINE",
"112 580 LINE"
);
}
);
width = 206;
}
);
leftKerningGroup = f;
rightKerningGroup = f;
unicode = 0066;
},
